M48
; DRILL file {KiCad 9.0.1} date 2025-07-20T02:37:40-0500
; FORMAT={-:-/ absolute / metric / decimal}
; #@! TF.CreationDate,2025-07-20T02:37:40-05:00
; #@! TF.GenerationSoftware,Kicad,Pcbnew,9.0.1
; #@! TF.FileFunction,MixedPlating,1,2
FMAT,2
METRIC
; #@! TA.AperFunction,Plated,PTH,ComponentDrill
T1C0.800
; #@! TA.AperFunction,Plated,PTH,ComponentDrill
T2C0.900
; #@! TA.AperFunction,Plated,PTH,ComponentDrill
T3C1.000
; #@! TA.AperFunction,Plated,PTH,ComponentDrill
T4C1.500
; #@! TA.AperFunction,Plated,PTH,ComponentDrill
T5C2.200
; #@! TA.AperFunction,Plated,PTH,ComponentDrill
T6C3.200
; #@! TA.AperFunction,NonPlated,NPTH,ComponentDrill
T7C1.800
%
G90
G05
T1
X29.0Y-90.5
X29.0Y-94.0
T2
X84.735Y-48.0
X87.275Y-48.0
T3
X25.73Y-68.5
X25.73Y-71.04
X25.73Y-79.96
X25.73Y-82.5
X32.26Y-61.33
X34.8Y-61.33
X37.34Y-61.33
X39.88Y-61.33
X42.42Y-61.33
X44.03Y-68.5
X44.03Y-71.04
X44.03Y-79.96
X44.03Y-82.5
X53.5Y-45.6
X53.5Y-48.14
X53.5Y-50.68
X53.5Y-53.22
X53.5Y-55.76
X53.5Y-58.3
X53.5Y-60.84
X53.5Y-63.38
X53.5Y-65.92
X53.5Y-68.46
X53.5Y-71.0
X53.5Y-73.54
X53.5Y-76.08
X53.5Y-78.62
X53.5Y-81.16
X53.5Y-83.7
X53.5Y-86.24
X53.5Y-88.78
X53.5Y-91.32
X78.9Y-45.6
X78.9Y-48.14
X78.9Y-50.68
X78.9Y-53.22
X78.9Y-55.76
X78.9Y-58.3
X78.9Y-60.84
X78.9Y-63.38
X78.9Y-65.92
X78.9Y-68.46
X78.9Y-71.0
X78.9Y-73.54
X78.9Y-76.08
X78.9Y-78.62
X78.9Y-81.16
X78.9Y-83.7
X78.9Y-86.24
X78.9Y-88.78
X78.9Y-91.32
X86.25Y-98.525
X88.75Y-98.525
X96.5Y-98.525
X97.61Y-80.62
X99.0Y-98.525
X100.15Y-80.62
X102.69Y-80.62
X105.23Y-80.62
X107.77Y-80.62
X110.31Y-80.62
T4
X108.5Y-89.5
X108.5Y-102.0
X113.5Y-89.5
X113.5Y-102.0
T5
X93.96Y-44.13
X93.96Y-81.87
X114.04Y-44.13
X114.04Y-81.87
T6
X27.18Y-43.55
X27.18Y-61.33
X27.18Y-101.5
X47.5Y-43.55
X47.5Y-61.33
X121.5Y-43.5
X121.5Y-101.5
T7
X106.5Y-95.75
X115.5Y-95.75
T3
G00X38.4Y-89.6
M15
G01X41.0Y-89.6
M16
G05
G00X38.6Y-95.9
M15
G01X40.8Y-95.9
M16
G05
G00X44.5Y-91.4
M15
G01X44.5Y-93.6
M16
G05
M30
