%TF.GenerationSoftware,KiCad,Pcbnew,9.0.1*%
%TF.CreationDate,2025-07-20T02:37:13-05:00*%
%TF.ProjectId,Modulo CO2 de bus TM,4d6f6475-6c6f-4204-934f-322064652062,rev?*%
%TF.SameCoordinates,Original*%
%TF.FileFunction,Legend,Bot*%
%TF.FilePolarity,Positive*%
%FSLAX46Y46*%
G04 Gerber Fmt 4.6, Leading zero omitted, Abs format (unit mm)*
G04 Created by KiCad (PCBNEW 9.0.1) date 2025-07-20 02:37:13*
%MOMM*%
%LPD*%
G01*
G04 APERTURE LIST*
%ADD10C,0.200000*%
%ADD11C,0.150000*%
%ADD12C,0.120000*%
G04 APERTURE END LIST*
D10*
X94065761Y-102920833D02*
X94121000Y-102873214D01*
X94121000Y-102873214D02*
X94176238Y-102730357D01*
X94176238Y-102730357D02*
X94176238Y-102635119D01*
X94176238Y-102635119D02*
X94121000Y-102492262D01*
X94121000Y-102492262D02*
X94010523Y-102397024D01*
X94010523Y-102397024D02*
X93900047Y-102349405D01*
X93900047Y-102349405D02*
X93679095Y-102301786D01*
X93679095Y-102301786D02*
X93513380Y-102301786D01*
X93513380Y-102301786D02*
X93292428Y-102349405D01*
X93292428Y-102349405D02*
X93181952Y-102397024D01*
X93181952Y-102397024D02*
X93071476Y-102492262D01*
X93071476Y-102492262D02*
X93016238Y-102635119D01*
X93016238Y-102635119D02*
X93016238Y-102730357D01*
X93016238Y-102730357D02*
X93071476Y-102873214D01*
X93071476Y-102873214D02*
X93126714Y-102920833D01*
X93016238Y-103825595D02*
X93016238Y-103349405D01*
X93016238Y-103349405D02*
X93568619Y-103301786D01*
X93568619Y-103301786D02*
X93513380Y-103349405D01*
X93513380Y-103349405D02*
X93458142Y-103444643D01*
X93458142Y-103444643D02*
X93458142Y-103682738D01*
X93458142Y-103682738D02*
X93513380Y-103777976D01*
X93513380Y-103777976D02*
X93568619Y-103825595D01*
X93568619Y-103825595D02*
X93679095Y-103873214D01*
X93679095Y-103873214D02*
X93955285Y-103873214D01*
X93955285Y-103873214D02*
X94065761Y-103825595D01*
X94065761Y-103825595D02*
X94121000Y-103777976D01*
X94121000Y-103777976D02*
X94176238Y-103682738D01*
X94176238Y-103682738D02*
X94176238Y-103444643D01*
X94176238Y-103444643D02*
X94121000Y-103349405D01*
X94121000Y-103349405D02*
X94065761Y-103301786D01*
D11*
X34706666Y-70399580D02*
X34754285Y-70447200D01*
X34754285Y-70447200D02*
X34897142Y-70494819D01*
X34897142Y-70494819D02*
X34992380Y-70494819D01*
X34992380Y-70494819D02*
X35135237Y-70447200D01*
X35135237Y-70447200D02*
X35230475Y-70351961D01*
X35230475Y-70351961D02*
X35278094Y-70256723D01*
X35278094Y-70256723D02*
X35325713Y-70066247D01*
X35325713Y-70066247D02*
X35325713Y-69923390D01*
X35325713Y-69923390D02*
X35278094Y-69732914D01*
X35278094Y-69732914D02*
X35230475Y-69637676D01*
X35230475Y-69637676D02*
X35135237Y-69542438D01*
X35135237Y-69542438D02*
X34992380Y-69494819D01*
X34992380Y-69494819D02*
X34897142Y-69494819D01*
X34897142Y-69494819D02*
X34754285Y-69542438D01*
X34754285Y-69542438D02*
X34706666Y-69590057D01*
X34373332Y-69494819D02*
X33754285Y-69494819D01*
X33754285Y-69494819D02*
X34087618Y-69875771D01*
X34087618Y-69875771D02*
X33944761Y-69875771D01*
X33944761Y-69875771D02*
X33849523Y-69923390D01*
X33849523Y-69923390D02*
X33801904Y-69971009D01*
X33801904Y-69971009D02*
X33754285Y-70066247D01*
X33754285Y-70066247D02*
X33754285Y-70304342D01*
X33754285Y-70304342D02*
X33801904Y-70399580D01*
X33801904Y-70399580D02*
X33849523Y-70447200D01*
X33849523Y-70447200D02*
X33944761Y-70494819D01*
X33944761Y-70494819D02*
X34230475Y-70494819D01*
X34230475Y-70494819D02*
X34325713Y-70447200D01*
X34325713Y-70447200D02*
X34373332Y-70399580D01*
D10*
X91276238Y-55795833D02*
X90723857Y-55462500D01*
X91276238Y-55224405D02*
X90116238Y-55224405D01*
X90116238Y-55224405D02*
X90116238Y-55605357D01*
X90116238Y-55605357D02*
X90171476Y-55700595D01*
X90171476Y-55700595D02*
X90226714Y-55748214D01*
X90226714Y-55748214D02*
X90337190Y-55795833D01*
X90337190Y-55795833D02*
X90502904Y-55795833D01*
X90502904Y-55795833D02*
X90613380Y-55748214D01*
X90613380Y-55748214D02*
X90668619Y-55700595D01*
X90668619Y-55700595D02*
X90723857Y-55605357D01*
X90723857Y-55605357D02*
X90723857Y-55224405D01*
X90116238Y-56129167D02*
X90116238Y-56748214D01*
X90116238Y-56748214D02*
X90558142Y-56414881D01*
X90558142Y-56414881D02*
X90558142Y-56557738D01*
X90558142Y-56557738D02*
X90613380Y-56652976D01*
X90613380Y-56652976D02*
X90668619Y-56700595D01*
X90668619Y-56700595D02*
X90779095Y-56748214D01*
X90779095Y-56748214D02*
X91055285Y-56748214D01*
X91055285Y-56748214D02*
X91165761Y-56700595D01*
X91165761Y-56700595D02*
X91221000Y-56652976D01*
X91221000Y-56652976D02*
X91276238Y-56557738D01*
X91276238Y-56557738D02*
X91276238Y-56272024D01*
X91276238Y-56272024D02*
X91221000Y-56176786D01*
X91221000Y-56176786D02*
X91165761Y-56129167D01*
X83161714Y-85907261D02*
X83106476Y-85812023D01*
X83106476Y-85812023D02*
X82996000Y-85716785D01*
X82996000Y-85716785D02*
X82830285Y-85573928D01*
X82830285Y-85573928D02*
X82775047Y-85478690D01*
X82775047Y-85478690D02*
X82775047Y-85383452D01*
X83051238Y-85431071D02*
X82996000Y-85335833D01*
X82996000Y-85335833D02*
X82885523Y-85240595D01*
X82885523Y-85240595D02*
X82664571Y-85192976D01*
X82664571Y-85192976D02*
X82277904Y-85192976D01*
X82277904Y-85192976D02*
X82056952Y-85240595D01*
X82056952Y-85240595D02*
X81946476Y-85335833D01*
X81946476Y-85335833D02*
X81891238Y-85431071D01*
X81891238Y-85431071D02*
X81891238Y-85621547D01*
X81891238Y-85621547D02*
X81946476Y-85716785D01*
X81946476Y-85716785D02*
X82056952Y-85812023D01*
X82056952Y-85812023D02*
X82277904Y-85859642D01*
X82277904Y-85859642D02*
X82664571Y-85859642D01*
X82664571Y-85859642D02*
X82885523Y-85812023D01*
X82885523Y-85812023D02*
X82996000Y-85716785D01*
X82996000Y-85716785D02*
X83051238Y-85621547D01*
X83051238Y-85621547D02*
X83051238Y-85431071D01*
X83051238Y-86812023D02*
X83051238Y-86240595D01*
X83051238Y-86526309D02*
X81891238Y-86526309D01*
X81891238Y-86526309D02*
X82056952Y-86431071D01*
X82056952Y-86431071D02*
X82167428Y-86335833D01*
X82167428Y-86335833D02*
X82222666Y-86240595D01*
X82754790Y-79310833D02*
X81992885Y-78977500D01*
X82754790Y-78739405D02*
X81154790Y-78739405D01*
X81154790Y-78739405D02*
X81154790Y-79120357D01*
X81154790Y-79120357D02*
X81230980Y-79215595D01*
X81230980Y-79215595D02*
X81307171Y-79263214D01*
X81307171Y-79263214D02*
X81459552Y-79310833D01*
X81459552Y-79310833D02*
X81688123Y-79310833D01*
X81688123Y-79310833D02*
X81840504Y-79263214D01*
X81840504Y-79263214D02*
X81916695Y-79215595D01*
X81916695Y-79215595D02*
X81992885Y-79120357D01*
X81992885Y-79120357D02*
X81992885Y-78739405D01*
X82754790Y-80263214D02*
X82754790Y-79691786D01*
X82754790Y-79977500D02*
X81154790Y-79977500D01*
X81154790Y-79977500D02*
X81383361Y-79882262D01*
X81383361Y-79882262D02*
X81535742Y-79787024D01*
X81535742Y-79787024D02*
X81611933Y-79691786D01*
X83726238Y-91824405D02*
X82566238Y-91824405D01*
X82566238Y-91824405D02*
X82566238Y-92062500D01*
X82566238Y-92062500D02*
X82621476Y-92205357D01*
X82621476Y-92205357D02*
X82731952Y-92300595D01*
X82731952Y-92300595D02*
X82842428Y-92348214D01*
X82842428Y-92348214D02*
X83063380Y-92395833D01*
X83063380Y-92395833D02*
X83229095Y-92395833D01*
X83229095Y-92395833D02*
X83450047Y-92348214D01*
X83450047Y-92348214D02*
X83560523Y-92300595D01*
X83560523Y-92300595D02*
X83671000Y-92205357D01*
X83671000Y-92205357D02*
X83726238Y-92062500D01*
X83726238Y-92062500D02*
X83726238Y-91824405D01*
X83726238Y-93348214D02*
X83726238Y-92776786D01*
X83726238Y-93062500D02*
X82566238Y-93062500D01*
X82566238Y-93062500D02*
X82731952Y-92967262D01*
X82731952Y-92967262D02*
X82842428Y-92872024D01*
X82842428Y-92872024D02*
X82897666Y-92776786D01*
X60915761Y-83808333D02*
X60971000Y-83760714D01*
X60971000Y-83760714D02*
X61026238Y-83617857D01*
X61026238Y-83617857D02*
X61026238Y-83522619D01*
X61026238Y-83522619D02*
X60971000Y-83379762D01*
X60971000Y-83379762D02*
X60860523Y-83284524D01*
X60860523Y-83284524D02*
X60750047Y-83236905D01*
X60750047Y-83236905D02*
X60529095Y-83189286D01*
X60529095Y-83189286D02*
X60363380Y-83189286D01*
X60363380Y-83189286D02*
X60142428Y-83236905D01*
X60142428Y-83236905D02*
X60031952Y-83284524D01*
X60031952Y-83284524D02*
X59921476Y-83379762D01*
X59921476Y-83379762D02*
X59866238Y-83522619D01*
X59866238Y-83522619D02*
X59866238Y-83617857D01*
X59866238Y-83617857D02*
X59921476Y-83760714D01*
X59921476Y-83760714D02*
X59976714Y-83808333D01*
X59976714Y-84189286D02*
X59921476Y-84236905D01*
X59921476Y-84236905D02*
X59866238Y-84332143D01*
X59866238Y-84332143D02*
X59866238Y-84570238D01*
X59866238Y-84570238D02*
X59921476Y-84665476D01*
X59921476Y-84665476D02*
X59976714Y-84713095D01*
X59976714Y-84713095D02*
X60087190Y-84760714D01*
X60087190Y-84760714D02*
X60197666Y-84760714D01*
X60197666Y-84760714D02*
X60363380Y-84713095D01*
X60363380Y-84713095D02*
X61026238Y-84141667D01*
X61026238Y-84141667D02*
X61026238Y-84760714D01*
X84165761Y-102420833D02*
X84221000Y-102373214D01*
X84221000Y-102373214D02*
X84276238Y-102230357D01*
X84276238Y-102230357D02*
X84276238Y-102135119D01*
X84276238Y-102135119D02*
X84221000Y-101992262D01*
X84221000Y-101992262D02*
X84110523Y-101897024D01*
X84110523Y-101897024D02*
X84000047Y-101849405D01*
X84000047Y-101849405D02*
X83779095Y-101801786D01*
X83779095Y-101801786D02*
X83613380Y-101801786D01*
X83613380Y-101801786D02*
X83392428Y-101849405D01*
X83392428Y-101849405D02*
X83281952Y-101897024D01*
X83281952Y-101897024D02*
X83171476Y-101992262D01*
X83171476Y-101992262D02*
X83116238Y-102135119D01*
X83116238Y-102135119D02*
X83116238Y-102230357D01*
X83116238Y-102230357D02*
X83171476Y-102373214D01*
X83171476Y-102373214D02*
X83226714Y-102420833D01*
X83502904Y-103277976D02*
X84276238Y-103277976D01*
X83061000Y-103039881D02*
X83889571Y-102801786D01*
X83889571Y-102801786D02*
X83889571Y-103420833D01*
X93726238Y-91824405D02*
X92566238Y-91824405D01*
X92566238Y-91824405D02*
X92566238Y-92062500D01*
X92566238Y-92062500D02*
X92621476Y-92205357D01*
X92621476Y-92205357D02*
X92731952Y-92300595D01*
X92731952Y-92300595D02*
X92842428Y-92348214D01*
X92842428Y-92348214D02*
X93063380Y-92395833D01*
X93063380Y-92395833D02*
X93229095Y-92395833D01*
X93229095Y-92395833D02*
X93450047Y-92348214D01*
X93450047Y-92348214D02*
X93560523Y-92300595D01*
X93560523Y-92300595D02*
X93671000Y-92205357D01*
X93671000Y-92205357D02*
X93726238Y-92062500D01*
X93726238Y-92062500D02*
X93726238Y-91824405D01*
X92676714Y-92776786D02*
X92621476Y-92824405D01*
X92621476Y-92824405D02*
X92566238Y-92919643D01*
X92566238Y-92919643D02*
X92566238Y-93157738D01*
X92566238Y-93157738D02*
X92621476Y-93252976D01*
X92621476Y-93252976D02*
X92676714Y-93300595D01*
X92676714Y-93300595D02*
X92787190Y-93348214D01*
X92787190Y-93348214D02*
X92897666Y-93348214D01*
X92897666Y-93348214D02*
X93063380Y-93300595D01*
X93063380Y-93300595D02*
X93726238Y-92729167D01*
X93726238Y-92729167D02*
X93726238Y-93348214D01*
X83691666Y-72028738D02*
X84024999Y-71476357D01*
X84263094Y-72028738D02*
X84263094Y-70868738D01*
X84263094Y-70868738D02*
X83882142Y-70868738D01*
X83882142Y-70868738D02*
X83786904Y-70923976D01*
X83786904Y-70923976D02*
X83739285Y-70979214D01*
X83739285Y-70979214D02*
X83691666Y-71089690D01*
X83691666Y-71089690D02*
X83691666Y-71255404D01*
X83691666Y-71255404D02*
X83739285Y-71365880D01*
X83739285Y-71365880D02*
X83786904Y-71421119D01*
X83786904Y-71421119D02*
X83882142Y-71476357D01*
X83882142Y-71476357D02*
X84263094Y-71476357D01*
X83310713Y-70979214D02*
X83263094Y-70923976D01*
X83263094Y-70923976D02*
X83167856Y-70868738D01*
X83167856Y-70868738D02*
X82929761Y-70868738D01*
X82929761Y-70868738D02*
X82834523Y-70923976D01*
X82834523Y-70923976D02*
X82786904Y-70979214D01*
X82786904Y-70979214D02*
X82739285Y-71089690D01*
X82739285Y-71089690D02*
X82739285Y-71200166D01*
X82739285Y-71200166D02*
X82786904Y-71365880D01*
X82786904Y-71365880D02*
X83358332Y-72028738D01*
X83358332Y-72028738D02*
X82739285Y-72028738D01*
D12*
%TO.C,C5*%
X98411252Y-102152500D02*
X96988748Y-102152500D01*
X98411252Y-103972500D02*
X96988748Y-103972500D01*
%TO.C,C3*%
X30620000Y-71240000D02*
X30620000Y-73990000D01*
X30620000Y-79760000D02*
X30620000Y-77010000D01*
X38075563Y-71240000D02*
X30620000Y-71240000D01*
X38075563Y-79760000D02*
X30620000Y-79760000D01*
X39140000Y-72304437D02*
X38075563Y-71240000D01*
X39140000Y-72304437D02*
X39140000Y-73990000D01*
X39140000Y-78695563D02*
X38075563Y-79760000D01*
X39140000Y-78695563D02*
X39140000Y-77010000D01*
X39880000Y-72490000D02*
X39880000Y-73490000D01*
X40380000Y-72990000D02*
X39380000Y-72990000D01*
%TO.C,R3*%
X85790000Y-58139564D02*
X85790000Y-53785436D01*
X89210000Y-58139564D02*
X89210000Y-53785436D01*
%TO.C,Q1*%
X84050000Y-79257500D02*
X84320000Y-79257500D01*
X84050000Y-85677500D02*
X84050000Y-79257500D01*
X90950000Y-79257500D02*
X90680000Y-79257500D01*
X90950000Y-85677500D02*
X90950000Y-79257500D01*
X84360000Y-77527500D02*
X83890000Y-77867500D01*
X83890000Y-77187500D01*
X84360000Y-77527500D01*
G36*
X84360000Y-77527500D02*
G01*
X83890000Y-77867500D01*
X83890000Y-77187500D01*
X84360000Y-77527500D01*
G37*
%TO.C,R1*%
X81115000Y-75729564D02*
X81115000Y-74275436D01*
X82935000Y-75729564D02*
X82935000Y-74275436D01*
%TO.C,D1*%
X84890000Y-91562500D02*
X88900000Y-91562500D01*
X84890000Y-93562500D02*
X84890000Y-91562500D01*
X84890000Y-93562500D02*
X88900000Y-93562500D01*
%TO.C,C2*%
X56590000Y-84211252D02*
X56590000Y-82788748D01*
X58410000Y-84211252D02*
X58410000Y-82788748D01*
%TO.C,C4*%
X88211252Y-101652500D02*
X86788748Y-101652500D01*
X88211252Y-103472500D02*
X86788748Y-103472500D01*
%TO.C,D2*%
X95290000Y-91562500D02*
X99300000Y-91562500D01*
X95290000Y-93562500D02*
X95290000Y-91562500D01*
X95290000Y-93562500D02*
X99300000Y-93562500D01*
%TO.C,R2*%
X88044564Y-72617500D02*
X86590436Y-72617500D01*
X88044564Y-74437500D02*
X86590436Y-74437500D01*
%TD*%
%LPC*%
G36*
X96553400Y-102003038D02*
G01*
X96624771Y-102009730D01*
X96648853Y-102018156D01*
X96676697Y-102022567D01*
X96710111Y-102039592D01*
X96741314Y-102050511D01*
X96763106Y-102066594D01*
X96790992Y-102080803D01*
X96815318Y-102105129D01*
X96839513Y-102122986D01*
X96857369Y-102147180D01*
X96881697Y-102171508D01*
X96895906Y-102199395D01*
X96911988Y-102221185D01*
X96922905Y-102252383D01*
X96939933Y-102285803D01*
X96944343Y-102313649D01*
X96952769Y-102337728D01*
X96959459Y-102409086D01*
X96960000Y-102412500D01*
X96960000Y-103712500D01*
X96959458Y-103715915D01*
X96952769Y-103787271D01*
X96944343Y-103811348D01*
X96939933Y-103839197D01*
X96922904Y-103872618D01*
X96911988Y-103903814D01*
X96895907Y-103925601D01*
X96881697Y-103953492D01*
X96857366Y-103977822D01*
X96839513Y-104002013D01*
X96815322Y-104019866D01*
X96790992Y-104044197D01*
X96763101Y-104058407D01*
X96741314Y-104074488D01*
X96710118Y-104085404D01*
X96676697Y-104102433D01*
X96648848Y-104106843D01*
X96624771Y-104115269D01*
X96553414Y-104121959D01*
X96550000Y-104122500D01*
X95900000Y-104122500D01*
X95896585Y-104121959D01*
X95825228Y-104115269D01*
X95801149Y-104106843D01*
X95773303Y-104102433D01*
X95739883Y-104085405D01*
X95708685Y-104074488D01*
X95686895Y-104058406D01*
X95659008Y-104044197D01*
X95634680Y-104019869D01*
X95610486Y-104002013D01*
X95592629Y-103977818D01*
X95568303Y-103953492D01*
X95554094Y-103925606D01*
X95538011Y-103903814D01*
X95527092Y-103872611D01*
X95510067Y-103839197D01*
X95505656Y-103811353D01*
X95497230Y-103787271D01*
X95490538Y-103715899D01*
X95490000Y-103712500D01*
X95490000Y-102412500D01*
X95490538Y-102409101D01*
X95497230Y-102337728D01*
X95505657Y-102313644D01*
X95510067Y-102285803D01*
X95527091Y-102252390D01*
X95538011Y-102221185D01*
X95554096Y-102199390D01*
X95568303Y-102171508D01*
X95592626Y-102147184D01*
X95610486Y-102122986D01*
X95634684Y-102105126D01*
X95659008Y-102080803D01*
X95686890Y-102066596D01*
X95708685Y-102050511D01*
X95739890Y-102039591D01*
X95773303Y-102022567D01*
X95801144Y-102018157D01*
X95825228Y-102009730D01*
X95896602Y-102003038D01*
X95900000Y-102002500D01*
X96550000Y-102002500D01*
X96553400Y-102003038D01*
G37*
G36*
X99503400Y-102003038D02*
G01*
X99574771Y-102009730D01*
X99598853Y-102018156D01*
X99626697Y-102022567D01*
X99660111Y-102039592D01*
X99691314Y-102050511D01*
X99713106Y-102066594D01*
X99740992Y-102080803D01*
X99765318Y-102105129D01*
X99789513Y-102122986D01*
X99807369Y-102147180D01*
X99831697Y-102171508D01*
X99845906Y-102199395D01*
X99861988Y-102221185D01*
X99872905Y-102252383D01*
X99889933Y-102285803D01*
X99894343Y-102313649D01*
X99902769Y-102337728D01*
X99909459Y-102409086D01*
X99910000Y-102412500D01*
X99910000Y-103712500D01*
X99909458Y-103715915D01*
X99902769Y-103787271D01*
X99894343Y-103811348D01*
X99889933Y-103839197D01*
X99872904Y-103872618D01*
X99861988Y-103903814D01*
X99845907Y-103925601D01*
X99831697Y-103953492D01*
X99807366Y-103977822D01*
X99789513Y-104002013D01*
X99765322Y-104019866D01*
X99740992Y-104044197D01*
X99713101Y-104058407D01*
X99691314Y-104074488D01*
X99660118Y-104085404D01*
X99626697Y-104102433D01*
X99598848Y-104106843D01*
X99574771Y-104115269D01*
X99503414Y-104121959D01*
X99500000Y-104122500D01*
X98850000Y-104122500D01*
X98846585Y-104121959D01*
X98775228Y-104115269D01*
X98751149Y-104106843D01*
X98723303Y-104102433D01*
X98689883Y-104085405D01*
X98658685Y-104074488D01*
X98636895Y-104058406D01*
X98609008Y-104044197D01*
X98584680Y-104019869D01*
X98560486Y-104002013D01*
X98542629Y-103977818D01*
X98518303Y-103953492D01*
X98504094Y-103925606D01*
X98488011Y-103903814D01*
X98477092Y-103872611D01*
X98460067Y-103839197D01*
X98455656Y-103811353D01*
X98447230Y-103787271D01*
X98440538Y-103715899D01*
X98440000Y-103712500D01*
X98440000Y-102412500D01*
X98440538Y-102409101D01*
X98447230Y-102337728D01*
X98455657Y-102313644D01*
X98460067Y-102285803D01*
X98477091Y-102252390D01*
X98488011Y-102221185D01*
X98504096Y-102199390D01*
X98518303Y-102171508D01*
X98542626Y-102147184D01*
X98560486Y-102122986D01*
X98584684Y-102105126D01*
X98609008Y-102080803D01*
X98636890Y-102066596D01*
X98658685Y-102050511D01*
X98689890Y-102039591D01*
X98723303Y-102022567D01*
X98751144Y-102018157D01*
X98775228Y-102009730D01*
X98846602Y-102003038D01*
X98850000Y-102002500D01*
X99500000Y-102002500D01*
X99503400Y-102003038D01*
G37*
G36*
X86353400Y-101503038D02*
G01*
X86424771Y-101509730D01*
X86448853Y-101518156D01*
X86476697Y-101522567D01*
X86510111Y-101539592D01*
X86541314Y-101550511D01*
X86563106Y-101566594D01*
X86590992Y-101580803D01*
X86615318Y-101605129D01*
X86639513Y-101622986D01*
X86657369Y-101647180D01*
X86681697Y-101671508D01*
X86695906Y-101699395D01*
X86711988Y-101721185D01*
X86722905Y-101752383D01*
X86739933Y-101785803D01*
X86744343Y-101813649D01*
X86752769Y-101837728D01*
X86759459Y-101909086D01*
X86760000Y-101912500D01*
X86760000Y-103212500D01*
X86759458Y-103215915D01*
X86752769Y-103287271D01*
X86744343Y-103311348D01*
X86739933Y-103339197D01*
X86722904Y-103372618D01*
X86711988Y-103403814D01*
X86695907Y-103425601D01*
X86681697Y-103453492D01*
X86657366Y-103477822D01*
X86639513Y-103502013D01*
X86615322Y-103519866D01*
X86590992Y-103544197D01*
X86563101Y-103558407D01*
X86541314Y-103574488D01*
X86510118Y-103585404D01*
X86476697Y-103602433D01*
X86448848Y-103606843D01*
X86424771Y-103615269D01*
X86353414Y-103621959D01*
X86350000Y-103622500D01*
X85700000Y-103622500D01*
X85696585Y-103621959D01*
X85625228Y-103615269D01*
X85601149Y-103606843D01*
X85573303Y-103602433D01*
X85539883Y-103585405D01*
X85508685Y-103574488D01*
X85486895Y-103558406D01*
X85459008Y-103544197D01*
X85434680Y-103519869D01*
X85410486Y-103502013D01*
X85392629Y-103477818D01*
X85368303Y-103453492D01*
X85354094Y-103425606D01*
X85338011Y-103403814D01*
X85327092Y-103372611D01*
X85310067Y-103339197D01*
X85305656Y-103311353D01*
X85297230Y-103287271D01*
X85290538Y-103215899D01*
X85290000Y-103212500D01*
X85290000Y-101912500D01*
X85290538Y-101909101D01*
X85297230Y-101837728D01*
X85305657Y-101813644D01*
X85310067Y-101785803D01*
X85327091Y-101752390D01*
X85338011Y-101721185D01*
X85354096Y-101699390D01*
X85368303Y-101671508D01*
X85392626Y-101647184D01*
X85410486Y-101622986D01*
X85434684Y-101605126D01*
X85459008Y-101580803D01*
X85486890Y-101566596D01*
X85508685Y-101550511D01*
X85539890Y-101539591D01*
X85573303Y-101522567D01*
X85601144Y-101518157D01*
X85625228Y-101509730D01*
X85696602Y-101503038D01*
X85700000Y-101502500D01*
X86350000Y-101502500D01*
X86353400Y-101503038D01*
G37*
G36*
X89303400Y-101503038D02*
G01*
X89374771Y-101509730D01*
X89398853Y-101518156D01*
X89426697Y-101522567D01*
X89460111Y-101539592D01*
X89491314Y-101550511D01*
X89513106Y-101566594D01*
X89540992Y-101580803D01*
X89565318Y-101605129D01*
X89589513Y-101622986D01*
X89607369Y-101647180D01*
X89631697Y-101671508D01*
X89645906Y-101699395D01*
X89661988Y-101721185D01*
X89672905Y-101752383D01*
X89689933Y-101785803D01*
X89694343Y-101813649D01*
X89702769Y-101837728D01*
X89709459Y-101909086D01*
X89710000Y-101912500D01*
X89710000Y-103212500D01*
X89709458Y-103215915D01*
X89702769Y-103287271D01*
X89694343Y-103311348D01*
X89689933Y-103339197D01*
X89672904Y-103372618D01*
X89661988Y-103403814D01*
X89645907Y-103425601D01*
X89631697Y-103453492D01*
X89607366Y-103477822D01*
X89589513Y-103502013D01*
X89565322Y-103519866D01*
X89540992Y-103544197D01*
X89513101Y-103558407D01*
X89491314Y-103574488D01*
X89460118Y-103585404D01*
X89426697Y-103602433D01*
X89398848Y-103606843D01*
X89374771Y-103615269D01*
X89303414Y-103621959D01*
X89300000Y-103622500D01*
X88650000Y-103622500D01*
X88646585Y-103621959D01*
X88575228Y-103615269D01*
X88551149Y-103606843D01*
X88523303Y-103602433D01*
X88489883Y-103585405D01*
X88458685Y-103574488D01*
X88436895Y-103558406D01*
X88409008Y-103544197D01*
X88384680Y-103519869D01*
X88360486Y-103502013D01*
X88342629Y-103477818D01*
X88318303Y-103453492D01*
X88304094Y-103425606D01*
X88288011Y-103403814D01*
X88277092Y-103372611D01*
X88260067Y-103339197D01*
X88255656Y-103311353D01*
X88247230Y-103287271D01*
X88240538Y-103215899D01*
X88240000Y-103212500D01*
X88240000Y-101912500D01*
X88240538Y-101909101D01*
X88247230Y-101837728D01*
X88255657Y-101813644D01*
X88260067Y-101785803D01*
X88277091Y-101752390D01*
X88288011Y-101721185D01*
X88304096Y-101699390D01*
X88318303Y-101671508D01*
X88342626Y-101647184D01*
X88360486Y-101622986D01*
X88384684Y-101605126D01*
X88409008Y-101580803D01*
X88436890Y-101566596D01*
X88458685Y-101550511D01*
X88489890Y-101539591D01*
X88523303Y-101522567D01*
X88551144Y-101518157D01*
X88575228Y-101509730D01*
X88646602Y-101503038D01*
X88650000Y-101502500D01*
X89300000Y-101502500D01*
X89303400Y-101503038D01*
G37*
G36*
X108770797Y-100422051D02*
G01*
X108943913Y-100478300D01*
X109106098Y-100560937D01*
X109253360Y-100667929D01*
X109382071Y-100796640D01*
X109489063Y-100943902D01*
X109571700Y-101106087D01*
X109627949Y-101279203D01*
X109656424Y-101458987D01*
X109660000Y-101550000D01*
X109660000Y-102450000D01*
X109656424Y-102541013D01*
X109627949Y-102720797D01*
X109571700Y-102893913D01*
X109489063Y-103056098D01*
X109382071Y-103203360D01*
X109253360Y-103332071D01*
X109106098Y-103439063D01*
X108943913Y-103521700D01*
X108770797Y-103577949D01*
X108591013Y-103606424D01*
X108408987Y-103606424D01*
X108229203Y-103577949D01*
X108056087Y-103521700D01*
X107893902Y-103439063D01*
X107746640Y-103332071D01*
X107617929Y-103203360D01*
X107510937Y-103056098D01*
X107428300Y-102893913D01*
X107372051Y-102720797D01*
X107343576Y-102541013D01*
X107340000Y-102450000D01*
X107340000Y-101550000D01*
X107343576Y-101458987D01*
X107372051Y-101279203D01*
X107428300Y-101106087D01*
X107510937Y-100943902D01*
X107617929Y-100796640D01*
X107746640Y-100667929D01*
X107893902Y-100560937D01*
X108056087Y-100478300D01*
X108229203Y-100422051D01*
X108408987Y-100393576D01*
X108591013Y-100393576D01*
X108770797Y-100422051D01*
G37*
G36*
X113770797Y-100422051D02*
G01*
X113943913Y-100478300D01*
X114106098Y-100560937D01*
X114253360Y-100667929D01*
X114382071Y-100796640D01*
X114489063Y-100943902D01*
X114571700Y-101106087D01*
X114627949Y-101279203D01*
X114656424Y-101458987D01*
X114660000Y-101550000D01*
X114660000Y-102450000D01*
X114656424Y-102541013D01*
X114627949Y-102720797D01*
X114571700Y-102893913D01*
X114489063Y-103056098D01*
X114382071Y-103203360D01*
X114253360Y-103332071D01*
X114106098Y-103439063D01*
X113943913Y-103521700D01*
X113770797Y-103577949D01*
X113591013Y-103606424D01*
X113408987Y-103606424D01*
X113229203Y-103577949D01*
X113056087Y-103521700D01*
X112893902Y-103439063D01*
X112746640Y-103332071D01*
X112617929Y-103203360D01*
X112510937Y-103056098D01*
X112428300Y-102893913D01*
X112372051Y-102720797D01*
X112343576Y-102541013D01*
X112340000Y-102450000D01*
X112340000Y-101550000D01*
X112343576Y-101458987D01*
X112372051Y-101279203D01*
X112428300Y-101106087D01*
X112510937Y-100943902D01*
X112617929Y-100796640D01*
X112746640Y-100667929D01*
X112893902Y-100560937D01*
X113056087Y-100478300D01*
X113229203Y-100422051D01*
X113408987Y-100393576D01*
X113591013Y-100393576D01*
X113770797Y-100422051D01*
G37*
G36*
X27570181Y-99538429D02*
G01*
X27822879Y-99606140D01*
X28064577Y-99706255D01*
X28291140Y-99837061D01*
X28498692Y-99996320D01*
X28683680Y-100181308D01*
X28842939Y-100388860D01*
X28973745Y-100615423D01*
X29073860Y-100857121D01*
X29141571Y-101109819D01*
X29175718Y-101369194D01*
X29175718Y-101630806D01*
X29141571Y-101890181D01*
X29073860Y-102142879D01*
X28973745Y-102384577D01*
X28842939Y-102611140D01*
X28683680Y-102818692D01*
X28498692Y-103003680D01*
X28291140Y-103162939D01*
X28064577Y-103293745D01*
X27822879Y-103393860D01*
X27570181Y-103461571D01*
X27310806Y-103495718D01*
X27049194Y-103495718D01*
X26789819Y-103461571D01*
X26537121Y-103393860D01*
X26295423Y-103293745D01*
X26068860Y-103162939D01*
X25861308Y-103003680D01*
X25676320Y-102818692D01*
X25517061Y-102611140D01*
X25386255Y-102384577D01*
X25286140Y-102142879D01*
X25218429Y-101890181D01*
X25184282Y-101630806D01*
X25184282Y-101369194D01*
X25218429Y-101109819D01*
X25286140Y-100857121D01*
X25386255Y-100615423D01*
X25517061Y-100388860D01*
X25676320Y-100181308D01*
X25861308Y-99996320D01*
X26068860Y-99837061D01*
X26295423Y-99706255D01*
X26537121Y-99606140D01*
X26789819Y-99538429D01*
X27049194Y-99504282D01*
X27310806Y-99504282D01*
X27570181Y-99538429D01*
G37*
G36*
X121890181Y-99538429D02*
G01*
X122142879Y-99606140D01*
X122384577Y-99706255D01*
X122611140Y-99837061D01*
X122818692Y-99996320D01*
X123003680Y-100181308D01*
X123162939Y-100388860D01*
X123293745Y-100615423D01*
X123393860Y-100857121D01*
X123461571Y-101109819D01*
X123495718Y-101369194D01*
X123495718Y-101630806D01*
X123461571Y-101890181D01*
X123393860Y-102142879D01*
X123293745Y-102384577D01*
X123162939Y-102611140D01*
X123003680Y-102818692D01*
X122818692Y-103003680D01*
X122611140Y-103162939D01*
X122384577Y-103293745D01*
X122142879Y-103393860D01*
X121890181Y-103461571D01*
X121630806Y-103495718D01*
X121369194Y-103495718D01*
X121109819Y-103461571D01*
X120857121Y-103393860D01*
X120615423Y-103293745D01*
X120388860Y-103162939D01*
X120181308Y-103003680D01*
X119996320Y-102818692D01*
X119837061Y-102611140D01*
X119706255Y-102384577D01*
X119606140Y-102142879D01*
X119538429Y-101890181D01*
X119504282Y-101630806D01*
X119504282Y-101369194D01*
X119538429Y-101109819D01*
X119606140Y-100857121D01*
X119706255Y-100615423D01*
X119837061Y-100388860D01*
X119996320Y-100181308D01*
X120181308Y-99996320D01*
X120388860Y-99837061D01*
X120615423Y-99706255D01*
X120857121Y-99606140D01*
X121109819Y-99538429D01*
X121369194Y-99504282D01*
X121630806Y-99504282D01*
X121890181Y-99538429D01*
G37*
G36*
X86779232Y-97615616D02*
G01*
X86845123Y-97621795D01*
X86861876Y-97627657D01*
X86884854Y-97631005D01*
X86918624Y-97647514D01*
X86954635Y-97660115D01*
X86974717Y-97674936D01*
X86998715Y-97686668D01*
X87021537Y-97709490D01*
X87046837Y-97728162D01*
X87065508Y-97753461D01*
X87088332Y-97776285D01*
X87100063Y-97800283D01*
X87114884Y-97820364D01*
X87127482Y-97856369D01*
X87143995Y-97890146D01*
X87147343Y-97913129D01*
X87153203Y-97929875D01*
X87159380Y-97995746D01*
X87160000Y-98000000D01*
X87160000Y-99050000D01*
X87159380Y-99054251D01*
X87153204Y-99120123D01*
X87147343Y-99136871D01*
X87143995Y-99159854D01*
X87127482Y-99193631D01*
X87114884Y-99229635D01*
X87100065Y-99249713D01*
X87088332Y-99273715D01*
X87065505Y-99296541D01*
X87046837Y-99321837D01*
X87021541Y-99340505D01*
X86998715Y-99363332D01*
X86974713Y-99375065D01*
X86954635Y-99389884D01*
X86918633Y-99402481D01*
X86884854Y-99418995D01*
X86861868Y-99422343D01*
X86845124Y-99428203D01*
X86779255Y-99434380D01*
X86775000Y-99435000D01*
X85725000Y-99435000D01*
X85720749Y-99434380D01*
X85654876Y-99428204D01*
X85638126Y-99422343D01*
X85615146Y-99418995D01*
X85581370Y-99402483D01*
X85545364Y-99389884D01*
X85525283Y-99375063D01*
X85501285Y-99363332D01*
X85478461Y-99340508D01*
X85453162Y-99321837D01*
X85434490Y-99296537D01*
X85411668Y-99273715D01*
X85399936Y-99249717D01*
X85385115Y-99229635D01*
X85372515Y-99193626D01*
X85356005Y-99159854D01*
X85352656Y-99136873D01*
X85346796Y-99120124D01*
X85340617Y-99054235D01*
X85340000Y-99050000D01*
X85340000Y-98000000D01*
X85340616Y-97995769D01*
X85346795Y-97929876D01*
X85352657Y-97913121D01*
X85356005Y-97890146D01*
X85372513Y-97856377D01*
X85385115Y-97820364D01*
X85399938Y-97800279D01*
X85411668Y-97776285D01*
X85434487Y-97753465D01*
X85453162Y-97728162D01*
X85478465Y-97709487D01*
X85501285Y-97686668D01*
X85525279Y-97674938D01*
X85545364Y-97660115D01*
X85581376Y-97647513D01*
X85615146Y-97631005D01*
X85638124Y-97627657D01*
X85654875Y-97621796D01*
X85720765Y-97615616D01*
X85725000Y-97615000D01*
X86775000Y-97615000D01*
X86779232Y-97615616D01*
G37*
G36*
X97029232Y-97615616D02*
G01*
X97095123Y-97621795D01*
X97111876Y-97627657D01*
X97134854Y-97631005D01*
X97168624Y-97647514D01*
X97204635Y-97660115D01*
X97224717Y-97674936D01*
X97248715Y-97686668D01*
X97271537Y-97709490D01*
X97296837Y-97728162D01*
X97315508Y-97753461D01*
X97338332Y-97776285D01*
X97350063Y-97800283D01*
X97364884Y-97820364D01*
X97377482Y-97856369D01*
X97393995Y-97890146D01*
X97397343Y-97913129D01*
X97403203Y-97929875D01*
X97409380Y-97995746D01*
X97410000Y-98000000D01*
X97410000Y-99050000D01*
X97409380Y-99054251D01*
X97403204Y-99120123D01*
X97397343Y-99136871D01*
X97393995Y-99159854D01*
X97377482Y-99193631D01*
X97364884Y-99229635D01*
X97350065Y-99249713D01*
X97338332Y-99273715D01*
X97315505Y-99296541D01*
X97296837Y-99321837D01*
X97271541Y-99340505D01*
X97248715Y-99363332D01*
X97224713Y-99375065D01*
X97204635Y-99389884D01*
X97168633Y-99402481D01*
X97134854Y-99418995D01*
X97111868Y-99422343D01*
X97095124Y-99428203D01*
X97029255Y-99434380D01*
X97025000Y-99435000D01*
X95975000Y-99435000D01*
X95970749Y-99434380D01*
X95904876Y-99428204D01*
X95888126Y-99422343D01*
X95865146Y-99418995D01*
X95831370Y-99402483D01*
X95795364Y-99389884D01*
X95775283Y-99375063D01*
X95751285Y-99363332D01*
X95728461Y-99340508D01*
X95703162Y-99321837D01*
X95684490Y-99296537D01*
X95661668Y-99273715D01*
X95649936Y-99249717D01*
X95635115Y-99229635D01*
X95622515Y-99193626D01*
X95606005Y-99159854D01*
X95602656Y-99136873D01*
X95596796Y-99120124D01*
X95590617Y-99054235D01*
X95590000Y-99050000D01*
X95590000Y-98000000D01*
X95590616Y-97995769D01*
X95596795Y-97929876D01*
X95602657Y-97913121D01*
X95606005Y-97890146D01*
X95622513Y-97856377D01*
X95635115Y-97820364D01*
X95649938Y-97800279D01*
X95661668Y-97776285D01*
X95684487Y-97753465D01*
X95703162Y-97728162D01*
X95728465Y-97709487D01*
X95751285Y-97686668D01*
X95775279Y-97674938D01*
X95795364Y-97660115D01*
X95831376Y-97647513D01*
X95865146Y-97631005D01*
X95888124Y-97627657D01*
X95904875Y-97621796D01*
X95970765Y-97615616D01*
X95975000Y-97615000D01*
X97025000Y-97615000D01*
X97029232Y-97615616D01*
G37*
G36*
X89014159Y-97654184D02*
G01*
X89178971Y-97722452D01*
X89327298Y-97821560D01*
X89453440Y-97947702D01*
X89552548Y-98096029D01*
X89620816Y-98260841D01*
X89655618Y-98435804D01*
X89655618Y-98614196D01*
X89620816Y-98789159D01*
X89552548Y-98953971D01*
X89453440Y-99102298D01*
X89327298Y-99228440D01*
X89178971Y-99327548D01*
X89014159Y-99395816D01*
X88839196Y-99430618D01*
X88660804Y-99430618D01*
X88485841Y-99395816D01*
X88321029Y-99327548D01*
X88172702Y-99228440D01*
X88046560Y-99102298D01*
X87947452Y-98953971D01*
X87879184Y-98789159D01*
X87844382Y-98614196D01*
X87844382Y-98435804D01*
X87879184Y-98260841D01*
X87947452Y-98096029D01*
X88046560Y-97947702D01*
X88172702Y-97821560D01*
X88321029Y-97722452D01*
X88485841Y-97654184D01*
X88660804Y-97619382D01*
X88839196Y-97619382D01*
X89014159Y-97654184D01*
G37*
G36*
X99264159Y-97654184D02*
G01*
X99428971Y-97722452D01*
X99577298Y-97821560D01*
X99703440Y-97947702D01*
X99802548Y-98096029D01*
X99870816Y-98260841D01*
X99905618Y-98435804D01*
X99905618Y-98614196D01*
X99870816Y-98789159D01*
X99802548Y-98953971D01*
X99703440Y-99102298D01*
X99577298Y-99228440D01*
X99428971Y-99327548D01*
X99264159Y-99395816D01*
X99089196Y-99430618D01*
X98910804Y-99430618D01*
X98735841Y-99395816D01*
X98571029Y-99327548D01*
X98422702Y-99228440D01*
X98296560Y-99102298D01*
X98197452Y-98953971D01*
X98129184Y-98789159D01*
X98094382Y-98614196D01*
X98094382Y-98435804D01*
X98129184Y-98260841D01*
X98197452Y-98096029D01*
X98296560Y-97947702D01*
X98422702Y-97821560D01*
X98571029Y-97722452D01*
X98735841Y-97654184D01*
X98910804Y-97619382D01*
X99089196Y-97619382D01*
X99264159Y-97654184D01*
G37*
G36*
X40891013Y-94743576D02*
G01*
X41070797Y-94772051D01*
X41243913Y-94828300D01*
X41406098Y-94910937D01*
X41553360Y-95017929D01*
X41682071Y-95146640D01*
X41789063Y-95293902D01*
X41871700Y-95456087D01*
X41927949Y-95629203D01*
X41956424Y-95808987D01*
X41956424Y-95991013D01*
X41927949Y-96170797D01*
X41871700Y-96343913D01*
X41789063Y-96506098D01*
X41682071Y-96653360D01*
X41553360Y-96782071D01*
X41406098Y-96889063D01*
X41243913Y-96971700D01*
X41070797Y-97027949D01*
X40891013Y-97056424D01*
X40800000Y-97060000D01*
X40799030Y-97060000D01*
X38600970Y-97060000D01*
X38600000Y-97060000D01*
X38508987Y-97056424D01*
X38329203Y-97027949D01*
X38156087Y-96971700D01*
X37993902Y-96889063D01*
X37846640Y-96782071D01*
X37717929Y-96653360D01*
X37610937Y-96506098D01*
X37528300Y-96343913D01*
X37472051Y-96170797D01*
X37443576Y-95991013D01*
X37443576Y-95808987D01*
X37472051Y-95629203D01*
X37528300Y-95456087D01*
X37610937Y-95293902D01*
X37717929Y-95146640D01*
X37846640Y-95017929D01*
X37993902Y-94910937D01*
X38156087Y-94828300D01*
X38329203Y-94772051D01*
X38508987Y-94743576D01*
X38600000Y-94740000D01*
X40800000Y-94740000D01*
X40891013Y-94743576D01*
G37*
G36*
X106593778Y-94695104D02*
G01*
X106603898Y-94695104D01*
X106643438Y-94702969D01*
X106747411Y-94719436D01*
X106780855Y-94730302D01*
X106807702Y-94735643D01*
X106845591Y-94751337D01*
X106905583Y-94770830D01*
X106961783Y-94799465D01*
X106999681Y-94815163D01*
X107022446Y-94830374D01*
X107053769Y-94846334D01*
X107138927Y-94908205D01*
X107172457Y-94930609D01*
X107179612Y-94937764D01*
X107188312Y-94944085D01*
X107305914Y-95061687D01*
X107312234Y-95070386D01*
X107319391Y-95077543D01*
X107341797Y-95111076D01*
X107403665Y-95196230D01*
X107419623Y-95227550D01*
X107434837Y-95250319D01*
X107450536Y-95288221D01*
X107479169Y-95344416D01*
X107498659Y-95404401D01*
X107514357Y-95442298D01*
X107519698Y-95469150D01*
X107530563Y-95502588D01*
X107547029Y-95606555D01*
X107554896Y-95646102D01*
X107554896Y-95656221D01*
X107556578Y-95666841D01*
X107556578Y-95833158D01*
X107554896Y-95843777D01*
X107554896Y-95853898D01*
X107547029Y-95893447D01*
X107530563Y-95997411D01*
X107519698Y-96030847D01*
X107514357Y-96057702D01*
X107498658Y-96095602D01*
X107479169Y-96155583D01*
X107450538Y-96211773D01*
X107434837Y-96249681D01*
X107419621Y-96272452D01*
X107403665Y-96303769D01*
X107341806Y-96388910D01*
X107319391Y-96422457D01*
X107312232Y-96429615D01*
X107305914Y-96438312D01*
X107188312Y-96555914D01*
X107179615Y-96562232D01*
X107172457Y-96569391D01*
X107138910Y-96591806D01*
X107053769Y-96653665D01*
X107022452Y-96669621D01*
X106999681Y-96684837D01*
X106961773Y-96700538D01*
X106905583Y-96729169D01*
X106845602Y-96748658D01*
X106807702Y-96764357D01*
X106780847Y-96769698D01*
X106747411Y-96780563D01*
X106643447Y-96797029D01*
X106603898Y-96804896D01*
X106593778Y-96804896D01*
X106583158Y-96806578D01*
X106416842Y-96806578D01*
X106406222Y-96804896D01*
X106396102Y-96804896D01*
X106356553Y-96797029D01*
X106252588Y-96780563D01*
X106219150Y-96769698D01*
X106192298Y-96764357D01*
X106154401Y-96748659D01*
X106094416Y-96729169D01*
X106038221Y-96700536D01*
X106000319Y-96684837D01*
X105977550Y-96669623D01*
X105946230Y-96653665D01*
X105861076Y-96591797D01*
X105827543Y-96569391D01*
X105820386Y-96562234D01*
X105811687Y-96555914D01*
X105694085Y-96438312D01*
X105687764Y-96429612D01*
X105680609Y-96422457D01*
X105658205Y-96388927D01*
X105596334Y-96303769D01*
X105580374Y-96272446D01*
X105565163Y-96249681D01*
X105549465Y-96211783D01*
X105520830Y-96155583D01*
X105501337Y-96095591D01*
X105485643Y-96057702D01*
X105480302Y-96030855D01*
X105469436Y-95997411D01*
X105452969Y-95893438D01*
X105445104Y-95853898D01*
X105445104Y-95843778D01*
X105443422Y-95833158D01*
X105443422Y-95666841D01*
X105445104Y-95656220D01*
X105445104Y-95646102D01*
X105452968Y-95606565D01*
X105469436Y-95502588D01*
X105480303Y-95469142D01*
X105485643Y-95442298D01*
X105501335Y-95404412D01*
X105520830Y-95344416D01*
X105549467Y-95288210D01*
X105565163Y-95250319D01*
X105580372Y-95227556D01*
X105596334Y-95196230D01*
X105658213Y-95111059D01*
X105680609Y-95077543D01*
X105687761Y-95070390D01*
X105694085Y-95061687D01*
X105811687Y-94944085D01*
X105820390Y-94937761D01*
X105827543Y-94930609D01*
X105861059Y-94908213D01*
X105946230Y-94846334D01*
X105977556Y-94830372D01*
X106000319Y-94815163D01*
X106038210Y-94799467D01*
X106094416Y-94770830D01*
X106154412Y-94751335D01*
X106192298Y-94735643D01*
X106219142Y-94730303D01*
X106252588Y-94719436D01*
X106356562Y-94702968D01*
X106396102Y-94695104D01*
X106406222Y-94695104D01*
X106416842Y-94693422D01*
X106583158Y-94693422D01*
X106593778Y-94695104D01*
G37*
G36*
X115593778Y-94695104D02*
G01*
X115603898Y-94695104D01*
X115643438Y-94702969D01*
X115747411Y-94719436D01*
X115780855Y-94730302D01*
X115807702Y-94735643D01*
X115845591Y-94751337D01*
X115905583Y-94770830D01*
X115961783Y-94799465D01*
X115999681Y-94815163D01*
X116022446Y-94830374D01*
X116053769Y-94846334D01*
X116138927Y-94908205D01*
X116172457Y-94930609D01*
X116179612Y-94937764D01*
X116188312Y-94944085D01*
X116305914Y-95061687D01*
X116312234Y-95070386D01*
X116319391Y-95077543D01*
X116341797Y-95111076D01*
X116403665Y-95196230D01*
X116419623Y-95227550D01*
X116434837Y-95250319D01*
X116450536Y-95288221D01*
X116479169Y-95344416D01*
X116498659Y-95404401D01*
X116514357Y-95442298D01*
X116519698Y-95469150D01*
X116530563Y-95502588D01*
X116547029Y-95606555D01*
X116554896Y-95646102D01*
X116554896Y-95656221D01*
X116556578Y-95666841D01*
X116556578Y-95833158D01*
X116554896Y-95843777D01*
X116554896Y-95853898D01*
X116547029Y-95893447D01*
X116530563Y-95997411D01*
X116519698Y-96030847D01*
X116514357Y-96057702D01*
X116498658Y-96095602D01*
X116479169Y-96155583D01*
X116450538Y-96211773D01*
X116434837Y-96249681D01*
X116419621Y-96272452D01*
X116403665Y-96303769D01*
X116341806Y-96388910D01*
X116319391Y-96422457D01*
X116312232Y-96429615D01*
X116305914Y-96438312D01*
X116188312Y-96555914D01*
X116179615Y-96562232D01*
X116172457Y-96569391D01*
X116138910Y-96591806D01*
X116053769Y-96653665D01*
X116022452Y-96669621D01*
X115999681Y-96684837D01*
X115961773Y-96700538D01*
X115905583Y-96729169D01*
X115845602Y-96748658D01*
X115807702Y-96764357D01*
X115780847Y-96769698D01*
X115747411Y-96780563D01*
X115643447Y-96797029D01*
X115603898Y-96804896D01*
X115593778Y-96804896D01*
X115583158Y-96806578D01*
X115416842Y-96806578D01*
X115406222Y-96804896D01*
X115396102Y-96804896D01*
X115356553Y-96797029D01*
X115252588Y-96780563D01*
X115219150Y-96769698D01*
X115192298Y-96764357D01*
X115154401Y-96748659D01*
X115094416Y-96729169D01*
X115038221Y-96700536D01*
X115000319Y-96684837D01*
X114977550Y-96669623D01*
X114946230Y-96653665D01*
X114861076Y-96591797D01*
X114827543Y-96569391D01*
X114820386Y-96562234D01*
X114811687Y-96555914D01*
X114694085Y-96438312D01*
X114687764Y-96429612D01*
X114680609Y-96422457D01*
X114658205Y-96388927D01*
X114596334Y-96303769D01*
X114580374Y-96272446D01*
X114565163Y-96249681D01*
X114549465Y-96211783D01*
X114520830Y-96155583D01*
X114501337Y-96095591D01*
X114485643Y-96057702D01*
X114480302Y-96030855D01*
X114469436Y-95997411D01*
X114452969Y-95893438D01*
X114445104Y-95853898D01*
X114445104Y-95843778D01*
X114443422Y-95833158D01*
X114443422Y-95666841D01*
X114445104Y-95656220D01*
X114445104Y-95646102D01*
X114452968Y-95606565D01*
X114469436Y-95502588D01*
X114480303Y-95469142D01*
X114485643Y-95442298D01*
X114501335Y-95404412D01*
X114520830Y-95344416D01*
X114549467Y-95288210D01*
X114565163Y-95250319D01*
X114580372Y-95227556D01*
X114596334Y-95196230D01*
X114658213Y-95111059D01*
X114680609Y-95077543D01*
X114687761Y-95070390D01*
X114694085Y-95061687D01*
X114811687Y-94944085D01*
X114820390Y-94937761D01*
X114827543Y-94930609D01*
X114861059Y-94908213D01*
X114946230Y-94846334D01*
X114977556Y-94830372D01*
X115000319Y-94815163D01*
X115038210Y-94799467D01*
X115094416Y-94770830D01*
X115154412Y-94751335D01*
X115192298Y-94735643D01*
X115219142Y-94730303D01*
X115252588Y-94719436D01*
X115356562Y-94702968D01*
X115396102Y-94695104D01*
X115406222Y-94695104D01*
X115416842Y-94693422D01*
X115583158Y-94693422D01*
X115593778Y-94695104D01*
G37*
G36*
X29278673Y-93081337D02*
G01*
X29452541Y-93153356D01*
X29609018Y-93257910D01*
X29742090Y-93390982D01*
X29846644Y-93547459D01*
X29918663Y-93721327D01*
X29955377Y-93905904D01*
X29955377Y-94094096D01*
X29918663Y-94278673D01*
X29846644Y-94452541D01*
X29742090Y-94609018D01*
X29609018Y-94742090D01*
X29452541Y-94846644D01*
X29278673Y-94918663D01*
X29094096Y-94955377D01*
X28905904Y-94955377D01*
X28721327Y-94918663D01*
X28547459Y-94846644D01*
X28390982Y-94742090D01*
X28257910Y-94609018D01*
X28153356Y-94452541D01*
X28081337Y-94278673D01*
X28044623Y-94094096D01*
X28044623Y-93905904D01*
X28081337Y-93721327D01*
X28153356Y-93547459D01*
X28257910Y-93390982D01*
X28390982Y-93257910D01*
X28547459Y-93153356D01*
X28721327Y-93081337D01*
X28905904Y-93044623D01*
X29094096Y-93044623D01*
X29278673Y-93081337D01*
G37*
G36*
X44768462Y-90281775D02*
G01*
X44940086Y-90337539D01*
X45100873Y-90419464D01*
X45246865Y-90525533D01*
X45374467Y-90653135D01*
X45480536Y-90799127D01*
X45562461Y-90959914D01*
X45618225Y-91131538D01*
X45646455Y-91309772D01*
X45650000Y-91400000D01*
X45650000Y-93600000D01*
X45646455Y-93690228D01*
X45618225Y-93868462D01*
X45562461Y-94040086D01*
X45480536Y-94200873D01*
X45374467Y-94346865D01*
X45246865Y-94474467D01*
X45100873Y-94580536D01*
X44940086Y-94662461D01*
X44768462Y-94718225D01*
X44590228Y-94746455D01*
X44409772Y-94746455D01*
X44231538Y-94718225D01*
X44059914Y-94662461D01*
X43899127Y-94580536D01*
X43753135Y-94474467D01*
X43625533Y-94346865D01*
X43519464Y-94200873D01*
X43437539Y-94040086D01*
X43381775Y-93868462D01*
X43353545Y-93690228D01*
X43350000Y-93600000D01*
X43350000Y-91400000D01*
X43353545Y-91309772D01*
X43381775Y-91131538D01*
X43437539Y-90959914D01*
X43519464Y-90799127D01*
X43625533Y-90653135D01*
X43753135Y-90525533D01*
X43899127Y-90419464D01*
X44059914Y-90337539D01*
X44231538Y-90281775D01*
X44409772Y-90253545D01*
X44590228Y-90253545D01*
X44768462Y-90281775D01*
G37*
G36*
X89185519Y-91710519D02*
G01*
X89191555Y-91712631D01*
X89196819Y-91713197D01*
X89252143Y-91733831D01*
X89314944Y-91755807D01*
X89318911Y-91758735D01*
X89320211Y-91759220D01*
X89365178Y-91792881D01*
X89425269Y-91837231D01*
X89469635Y-91897345D01*
X89503279Y-91942288D01*
X89503763Y-91943586D01*
X89506693Y-91947556D01*
X89528677Y-92010383D01*
X89549302Y-92065680D01*
X89549867Y-92070941D01*
X89551981Y-92076981D01*
X89560000Y-92162500D01*
X89560000Y-92962500D01*
X89551981Y-93048019D01*
X89549867Y-93054059D01*
X89549302Y-93059319D01*
X89528683Y-93114599D01*
X89506693Y-93177444D01*
X89503762Y-93181414D01*
X89503279Y-93182711D01*
X89469688Y-93227583D01*
X89425269Y-93287769D01*
X89365083Y-93332188D01*
X89320211Y-93365779D01*
X89318914Y-93366262D01*
X89314944Y-93369193D01*
X89252099Y-93391183D01*
X89196819Y-93411802D01*
X89191559Y-93412367D01*
X89185519Y-93414481D01*
X89100000Y-93422500D01*
X88500000Y-93422500D01*
X88414481Y-93414481D01*
X88408441Y-93412367D01*
X88403180Y-93411802D01*
X88347883Y-93391177D01*
X88285056Y-93369193D01*
X88281086Y-93366263D01*
X88279788Y-93365779D01*
X88234845Y-93332135D01*
X88174731Y-93287769D01*
X88130381Y-93227678D01*
X88096720Y-93182711D01*
X88096235Y-93181411D01*
X88093307Y-93177444D01*
X88071331Y-93114643D01*
X88050697Y-93059319D01*
X88050131Y-93054055D01*
X88048019Y-93048019D01*
X88040000Y-92962500D01*
X88040000Y-92162500D01*
X88048019Y-92076981D01*
X88050130Y-92070945D01*
X88050697Y-92065680D01*
X88071337Y-92010340D01*
X88093307Y-91947556D01*
X88096234Y-91943589D01*
X88096720Y-91942288D01*
X88130434Y-91897250D01*
X88174731Y-91837231D01*
X88234750Y-91792934D01*
X88279788Y-91759220D01*
X88281089Y-91758734D01*
X88285056Y-91755807D01*
X88347840Y-91733837D01*
X88403180Y-91713197D01*
X88408445Y-91712630D01*
X88414481Y-91710519D01*
X88500000Y-91702500D01*
X89100000Y-91702500D01*
X89185519Y-91710519D01*
G37*
G36*
X99585519Y-91710519D02*
G01*
X99591555Y-91712631D01*
X99596819Y-91713197D01*
X99652143Y-91733831D01*
X99714944Y-91755807D01*
X99718911Y-91758735D01*
X99720211Y-91759220D01*
X99765178Y-91792881D01*
X99825269Y-91837231D01*
X99869635Y-91897345D01*
X99903279Y-91942288D01*
X99903763Y-91943586D01*
X99906693Y-91947556D01*
X99928677Y-92010383D01*
X99949302Y-92065680D01*
X99949867Y-92070941D01*
X99951981Y-92076981D01*
X99960000Y-92162500D01*
X99960000Y-92962500D01*
X99951981Y-93048019D01*
X99949867Y-93054059D01*
X99949302Y-93059319D01*
X99928683Y-93114599D01*
X99906693Y-93177444D01*
X99903762Y-93181414D01*
X99903279Y-93182711D01*
X99869688Y-93227583D01*
X99825269Y-93287769D01*
X99765083Y-93332188D01*
X99720211Y-93365779D01*
X99718914Y-93366262D01*
X99714944Y-93369193D01*
X99652099Y-93391183D01*
X99596819Y-93411802D01*
X99591559Y-93412367D01*
X99585519Y-93414481D01*
X99500000Y-93422500D01*
X98900000Y-93422500D01*
X98814481Y-93414481D01*
X98808441Y-93412367D01*
X98803180Y-93411802D01*
X98747883Y-93391177D01*
X98685056Y-93369193D01*
X98681086Y-93366263D01*
X98679788Y-93365779D01*
X98634845Y-93332135D01*
X98574731Y-93287769D01*
X98530381Y-93227678D01*
X98496720Y-93182711D01*
X98496235Y-93181411D01*
X98493307Y-93177444D01*
X98471331Y-93114643D01*
X98450697Y-93059319D01*
X98450131Y-93054055D01*
X98448019Y-93048019D01*
X98440000Y-92962500D01*
X98440000Y-92162500D01*
X98448019Y-92076981D01*
X98450130Y-92070945D01*
X98450697Y-92065680D01*
X98471337Y-92010340D01*
X98493307Y-91947556D01*
X98496234Y-91943589D01*
X98496720Y-91942288D01*
X98530434Y-91897250D01*
X98574731Y-91837231D01*
X98634750Y-91792934D01*
X98679788Y-91759220D01*
X98681089Y-91758734D01*
X98685056Y-91755807D01*
X98747840Y-91733837D01*
X98803180Y-91713197D01*
X98808445Y-91712630D01*
X98814481Y-91710519D01*
X98900000Y-91702500D01*
X99500000Y-91702500D01*
X99585519Y-91710519D01*
G37*
G36*
X86083660Y-91720345D02*
G01*
X86089589Y-91722419D01*
X86094689Y-91722968D01*
X86148312Y-91742967D01*
X86210271Y-91764648D01*
X86214183Y-91767535D01*
X86215418Y-91767996D01*
X86258132Y-91799971D01*
X86318198Y-91844302D01*
X86362546Y-91904391D01*
X86394503Y-91947081D01*
X86394963Y-91948314D01*
X86397852Y-91952229D01*
X86419537Y-92014202D01*
X86439530Y-92067806D01*
X86440078Y-92072904D01*
X86442155Y-92078840D01*
X86450000Y-92162500D01*
X86450000Y-92962500D01*
X86442155Y-93046160D01*
X86440078Y-93052093D01*
X86439531Y-93057189D01*
X86419547Y-93110769D01*
X86397852Y-93172771D01*
X86394962Y-93176686D01*
X86394503Y-93177918D01*
X86362598Y-93220537D01*
X86318198Y-93280698D01*
X86258037Y-93325098D01*
X86215418Y-93357003D01*
X86214186Y-93357462D01*
X86210271Y-93360352D01*
X86148281Y-93382043D01*
X86094693Y-93402030D01*
X86089595Y-93402578D01*
X86083660Y-93404655D01*
X86000000Y-93412500D01*
X85400000Y-93412500D01*
X85316340Y-93404655D01*
X85310407Y-93402579D01*
X85305310Y-93402031D01*
X85251714Y-93382041D01*
X85189729Y-93360352D01*
X85185814Y-93357463D01*
X85184581Y-93357003D01*
X85141891Y-93325046D01*
X85081802Y-93280698D01*
X85037471Y-93220632D01*
X85005496Y-93177918D01*
X85005035Y-93176683D01*
X85002148Y-93172771D01*
X84980472Y-93110824D01*
X84960469Y-93057193D01*
X84959920Y-93052091D01*
X84957845Y-93046160D01*
X84950000Y-92962500D01*
X84950000Y-92162500D01*
X84957845Y-92078840D01*
X84959919Y-92072911D01*
X84960468Y-92067810D01*
X84980473Y-92014170D01*
X85002148Y-91952229D01*
X85005034Y-91948317D01*
X85005496Y-91947081D01*
X85037523Y-91904296D01*
X85081802Y-91844302D01*
X85141796Y-91800023D01*
X85184581Y-91767996D01*
X85185817Y-91767534D01*
X85189729Y-91764648D01*
X85251659Y-91742977D01*
X85305306Y-91722969D01*
X85310408Y-91722420D01*
X85316340Y-91720345D01*
X85400000Y-91712500D01*
X86000000Y-91712500D01*
X86083660Y-91720345D01*
G37*
G36*
X96483660Y-91720345D02*
G01*
X96489589Y-91722419D01*
X96494689Y-91722968D01*
X96548312Y-91742967D01*
X96610271Y-91764648D01*
X96614183Y-91767535D01*
X96615418Y-91767996D01*
X96658132Y-91799971D01*
X96718198Y-91844302D01*
X96762546Y-91904391D01*
X96794503Y-91947081D01*
X96794963Y-91948314D01*
X96797852Y-91952229D01*
X96819537Y-92014202D01*
X96839530Y-92067806D01*
X96840078Y-92072904D01*
X96842155Y-92078840D01*
X96850000Y-92162500D01*
X96850000Y-92962500D01*
X96842155Y-93046160D01*
X96840078Y-93052093D01*
X96839531Y-93057189D01*
X96819547Y-93110769D01*
X96797852Y-93172771D01*
X96794962Y-93176686D01*
X96794503Y-93177918D01*
X96762598Y-93220537D01*
X96718198Y-93280698D01*
X96658037Y-93325098D01*
X96615418Y-93357003D01*
X96614186Y-93357462D01*
X96610271Y-93360352D01*
X96548281Y-93382043D01*
X96494693Y-93402030D01*
X96489595Y-93402578D01*
X96483660Y-93404655D01*
X96400000Y-93412500D01*
X95800000Y-93412500D01*
X95716340Y-93404655D01*
X95710407Y-93402579D01*
X95705310Y-93402031D01*
X95651714Y-93382041D01*
X95589729Y-93360352D01*
X95585814Y-93357463D01*
X95584581Y-93357003D01*
X95541891Y-93325046D01*
X95481802Y-93280698D01*
X95437471Y-93220632D01*
X95405496Y-93177918D01*
X95405035Y-93176683D01*
X95402148Y-93172771D01*
X95380472Y-93110824D01*
X95360469Y-93057193D01*
X95359920Y-93052091D01*
X95357845Y-93046160D01*
X95350000Y-92962500D01*
X95350000Y-92162500D01*
X95357845Y-92078840D01*
X95359919Y-92072911D01*
X95360468Y-92067810D01*
X95380473Y-92014170D01*
X95402148Y-91952229D01*
X95405034Y-91948317D01*
X95405496Y-91947081D01*
X95437523Y-91904296D01*
X95481802Y-91844302D01*
X95541796Y-91800023D01*
X95584581Y-91767996D01*
X95585817Y-91767534D01*
X95589729Y-91764648D01*
X95651659Y-91742977D01*
X95705306Y-91722969D01*
X95710408Y-91722420D01*
X95716340Y-91720345D01*
X95800000Y-91712500D01*
X96400000Y-91712500D01*
X96483660Y-91720345D01*
G37*
G36*
X53772868Y-90420476D02*
G01*
X53943113Y-90490994D01*
X54096330Y-90593370D01*
X54226630Y-90723670D01*
X54329006Y-90876887D01*
X54399524Y-91047132D01*
X54435474Y-91227864D01*
X54435474Y-91412136D01*
X54399524Y-91592868D01*
X54329006Y-91763113D01*
X54226630Y-91916330D01*
X54096330Y-92046630D01*
X53943113Y-92149006D01*
X53772868Y-92219524D01*
X53592136Y-92255474D01*
X53407864Y-92255474D01*
X53227132Y-92219524D01*
X53056887Y-92149006D01*
X52903670Y-92046630D01*
X52773370Y-91916330D01*
X52670994Y-91763113D01*
X52600476Y-91592868D01*
X52564526Y-91412136D01*
X52564526Y-91227864D01*
X52600476Y-91047132D01*
X52670994Y-90876887D01*
X52773370Y-90723670D01*
X52903670Y-90593370D01*
X53056887Y-90490994D01*
X53227132Y-90420476D01*
X53407864Y-90384526D01*
X53592136Y-90384526D01*
X53772868Y-90420476D01*
G37*
G36*
X79172868Y-90420476D02*
G01*
X79343113Y-90490994D01*
X79496330Y-90593370D01*
X79626630Y-90723670D01*
X79729006Y-90876887D01*
X79799524Y-91047132D01*
X79835474Y-91227864D01*
X79835474Y-91412136D01*
X79799524Y-91592868D01*
X79729006Y-91763113D01*
X79626630Y-91916330D01*
X79496330Y-92046630D01*
X79343113Y-92149006D01*
X79172868Y-92219524D01*
X78992136Y-92255474D01*
X78807864Y-92255474D01*
X78627132Y-92219524D01*
X78456887Y-92149006D01*
X78303670Y-92046630D01*
X78173370Y-91916330D01*
X78070994Y-91763113D01*
X78000476Y-91592868D01*
X77964526Y-91412136D01*
X77964526Y-91227864D01*
X78000476Y-91047132D01*
X78070994Y-90876887D01*
X78173370Y-90723670D01*
X78303670Y-90593370D01*
X78456887Y-90490994D01*
X78627132Y-90420476D01*
X78807864Y-90384526D01*
X78992136Y-90384526D01*
X79172868Y-90420476D01*
G37*
G36*
X29861229Y-89552179D02*
G01*
X29913137Y-89586863D01*
X29947821Y-89638771D01*
X29960000Y-89700000D01*
X29960000Y-91300000D01*
X29947821Y-91361229D01*
X29913137Y-91413137D01*
X29861229Y-91447821D01*
X29800000Y-91460000D01*
X28200000Y-91460000D01*
X28138771Y-91447821D01*
X28086863Y-91413137D01*
X28052179Y-91361229D01*
X28040000Y-91300000D01*
X28040000Y-89700000D01*
X28052179Y-89638771D01*
X28086863Y-89586863D01*
X28138771Y-89552179D01*
X28200000Y-89540000D01*
X29800000Y-89540000D01*
X29861229Y-89552179D01*
G37*
G36*
X108770797Y-87922051D02*
G01*
X108943913Y-87978300D01*
X109106098Y-88060937D01*
X109253360Y-88167929D01*
X109382071Y-88296640D01*
X109489063Y-88443902D01*
X109571700Y-88606087D01*
X109627949Y-88779203D01*
X109656424Y-88958987D01*
X109660000Y-89050000D01*
X109660000Y-89950000D01*
X109656424Y-90041013D01*
X109627949Y-90220797D01*
X109571700Y-90393913D01*
X109489063Y-90556098D01*
X109382071Y-90703360D01*
X109253360Y-90832071D01*
X109106098Y-90939063D01*
X108943913Y-91021700D01*
X108770797Y-91077949D01*
X108591013Y-91106424D01*
X108408987Y-91106424D01*
X108229203Y-91077949D01*
X108056087Y-91021700D01*
X107893902Y-90939063D01*
X107746640Y-90832071D01*
X107617929Y-90703360D01*
X107510937Y-90556098D01*
X107428300Y-90393913D01*
X107372051Y-90220797D01*
X107343576Y-90041013D01*
X107340000Y-89950000D01*
X107340000Y-89050000D01*
X107343576Y-88958987D01*
X107372051Y-88779203D01*
X107428300Y-88606087D01*
X107510937Y-88443902D01*
X107617929Y-88296640D01*
X107746640Y-88167929D01*
X107893902Y-88060937D01*
X108056087Y-87978300D01*
X108229203Y-87922051D01*
X108408987Y-87893576D01*
X108591013Y-87893576D01*
X108770797Y-87922051D01*
G37*
G36*
X113770797Y-87922051D02*
G01*
X113943913Y-87978300D01*
X114106098Y-88060937D01*
X114253360Y-88167929D01*
X114382071Y-88296640D01*
X114489063Y-88443902D01*
X114571700Y-88606087D01*
X114627949Y-88779203D01*
X114656424Y-88958987D01*
X114660000Y-89050000D01*
X114660000Y-89950000D01*
X114656424Y-90041013D01*
X114627949Y-90220797D01*
X114571700Y-90393913D01*
X114489063Y-90556098D01*
X114382071Y-90703360D01*
X114253360Y-90832071D01*
X114106098Y-90939063D01*
X113943913Y-91021700D01*
X113770797Y-91077949D01*
X113591013Y-91106424D01*
X113408987Y-91106424D01*
X113229203Y-91077949D01*
X113056087Y-91021700D01*
X112893902Y-90939063D01*
X112746640Y-90832071D01*
X112617929Y-90703360D01*
X112510937Y-90556098D01*
X112428300Y-90393913D01*
X112372051Y-90220797D01*
X112343576Y-90041013D01*
X112340000Y-89950000D01*
X112340000Y-89050000D01*
X112343576Y-88958987D01*
X112372051Y-88779203D01*
X112428300Y-88606087D01*
X112510937Y-88443902D01*
X112617929Y-88296640D01*
X112746640Y-88167929D01*
X112893902Y-88060937D01*
X113056087Y-87978300D01*
X113229203Y-87922051D01*
X113408987Y-87893576D01*
X113591013Y-87893576D01*
X113770797Y-87922051D01*
G37*
G36*
X42057403Y-88461418D02*
G01*
X42106066Y-88493934D01*
X42138582Y-88542597D01*
X42150000Y-88600000D01*
X42150000Y-90600000D01*
X42138582Y-90657403D01*
X42106066Y-90706066D01*
X42057403Y-90738582D01*
X42000000Y-90750000D01*
X37400000Y-90750000D01*
X37342597Y-90738582D01*
X37293934Y-90706066D01*
X37261418Y-90657403D01*
X37250000Y-90600000D01*
X37250000Y-88600000D01*
X37261418Y-88542597D01*
X37293934Y-88493934D01*
X37342597Y-88461418D01*
X37400000Y-88450000D01*
X42000000Y-88450000D01*
X42057403Y-88461418D01*
G37*
G36*
X53772868Y-87880476D02*
G01*
X53943113Y-87950994D01*
X54096330Y-88053370D01*
X54226630Y-88183670D01*
X54329006Y-88336887D01*
X54399524Y-88507132D01*
X54435474Y-88687864D01*
X54435474Y-88872136D01*
X54399524Y-89052868D01*
X54329006Y-89223113D01*
X54226630Y-89376330D01*
X54096330Y-89506630D01*
X53943113Y-89609006D01*
X53772868Y-89679524D01*
X53592136Y-89715474D01*
X53407864Y-89715474D01*
X53227132Y-89679524D01*
X53056887Y-89609006D01*
X52903670Y-89506630D01*
X52773370Y-89376330D01*
X52670994Y-89223113D01*
X52600476Y-89052868D01*
X52564526Y-88872136D01*
X52564526Y-88687864D01*
X52600476Y-88507132D01*
X52670994Y-88336887D01*
X52773370Y-88183670D01*
X52903670Y-88053370D01*
X53056887Y-87950994D01*
X53227132Y-87880476D01*
X53407864Y-87844526D01*
X53592136Y-87844526D01*
X53772868Y-87880476D01*
G37*
G36*
X79172868Y-87880476D02*
G01*
X79343113Y-87950994D01*
X79496330Y-88053370D01*
X79626630Y-88183670D01*
X79729006Y-88336887D01*
X79799524Y-88507132D01*
X79835474Y-88687864D01*
X79835474Y-88872136D01*
X79799524Y-89052868D01*
X79729006Y-89223113D01*
X79626630Y-89376330D01*
X79496330Y-89506630D01*
X79343113Y-89609006D01*
X79172868Y-89679524D01*
X78992136Y-89715474D01*
X78807864Y-89715474D01*
X78627132Y-89679524D01*
X78456887Y-89609006D01*
X78303670Y-89506630D01*
X78173370Y-89376330D01*
X78070994Y-89223113D01*
X78000476Y-89052868D01*
X77964526Y-88872136D01*
X77964526Y-88687864D01*
X78000476Y-88507132D01*
X78070994Y-88336887D01*
X78173370Y-88183670D01*
X78303670Y-88053370D01*
X78456887Y-87950994D01*
X78627132Y-87880476D01*
X78807864Y-87844526D01*
X78992136Y-87844526D01*
X79172868Y-87880476D01*
G37*
G36*
X90153401Y-80468038D02*
G01*
X90224775Y-80474730D01*
X90248859Y-80483157D01*
X90276699Y-80487567D01*
X90310109Y-80504590D01*
X90341316Y-80515510D01*
X90363110Y-80531595D01*
X90390993Y-80545802D01*
X90415318Y-80570127D01*
X90439514Y-80587985D01*
X90457371Y-80612180D01*
X90481698Y-80636507D01*
X90495905Y-80664391D01*
X90511989Y-80686183D01*
X90522907Y-80717386D01*
X90539933Y-80750801D01*
X90544342Y-80778642D01*
X90552769Y-80802724D01*
X90559463Y-80874114D01*
X90559999Y-80877498D01*
X90559999Y-80879829D01*
X90560000Y-80879840D01*
X90560000Y-83972795D01*
X90560000Y-86777503D01*
X90559461Y-86780904D01*
X90552769Y-86852275D01*
X90544343Y-86876353D01*
X90539933Y-86904199D01*
X90522906Y-86937615D01*
X90511989Y-86968816D01*
X90495907Y-86990605D01*
X90481698Y-87018493D01*
X90457368Y-87042822D01*
X90439514Y-87067014D01*
X90415322Y-87084868D01*
X90390993Y-87109198D01*
X90363105Y-87123407D01*
X90341316Y-87139489D01*
X90310115Y-87150406D01*
X90276699Y-87167433D01*
X90248855Y-87171842D01*
X90224775Y-87180269D01*
X90153385Y-87186963D01*
X90150002Y-87187499D01*
X90147670Y-87187499D01*
X90147660Y-87187500D01*
X84852340Y-87187500D01*
X84852339Y-87187499D01*
X84849997Y-87187500D01*
X84846597Y-87186961D01*
X84775224Y-87180269D01*
X84751144Y-87171843D01*
X84723301Y-87167433D01*
X84689886Y-87150407D01*
X84658683Y-87139489D01*
X84636891Y-87123405D01*
X84609007Y-87109198D01*
X84584680Y-87084871D01*
X84560485Y-87067014D01*
X84542627Y-87042818D01*
X84518302Y-87018493D01*
X84504095Y-86990610D01*
X84488010Y-86968816D01*
X84477090Y-86937609D01*
X84460067Y-86904199D01*
X84455658Y-86876360D01*
X84447230Y-86852275D01*
X84440536Y-86780885D01*
X84440001Y-86777502D01*
X84440000Y-86775169D01*
X84440000Y-86775159D01*
X84440000Y-80879840D01*
X84440000Y-80879839D01*
X84440000Y-80877497D01*
X84440538Y-80874098D01*
X84447230Y-80802724D01*
X84455657Y-80778638D01*
X84460067Y-80750801D01*
X84477088Y-80717393D01*
X84488010Y-80686183D01*
X84504096Y-80664386D01*
X84518302Y-80636507D01*
X84542624Y-80612184D01*
X84560485Y-80587985D01*
X84584684Y-80570124D01*
X84609007Y-80545802D01*
X84636886Y-80531596D01*
X84658683Y-80515510D01*
X84689893Y-80504588D01*
X84723301Y-80487567D01*
X84751137Y-80483158D01*
X84775224Y-80474730D01*
X84846615Y-80468036D01*
X84849998Y-80467501D01*
X84852329Y-80467500D01*
X84852340Y-80467500D01*
X90147660Y-80467500D01*
X90150003Y-80467500D01*
X90153401Y-80468038D01*
G37*
G36*
X53772868Y-85340476D02*
G01*
X53943113Y-85410994D01*
X54096330Y-85513370D01*
X54226630Y-85643670D01*
X54329006Y-85796887D01*
X54399524Y-85967132D01*
X54435474Y-86147864D01*
X54435474Y-86332136D01*
X54399524Y-86512868D01*
X54329006Y-86683113D01*
X54226630Y-86836330D01*
X54096330Y-86966630D01*
X53943113Y-87069006D01*
X53772868Y-87139524D01*
X53592136Y-87175474D01*
X53407864Y-87175474D01*
X53227132Y-87139524D01*
X53056887Y-87069006D01*
X52903670Y-86966630D01*
X52773370Y-86836330D01*
X52670994Y-86683113D01*
X52600476Y-86512868D01*
X52564526Y-86332136D01*
X52564526Y-86147864D01*
X52600476Y-85967132D01*
X52670994Y-85796887D01*
X52773370Y-85643670D01*
X52903670Y-85513370D01*
X53056887Y-85410994D01*
X53227132Y-85340476D01*
X53407864Y-85304526D01*
X53592136Y-85304526D01*
X53772868Y-85340476D01*
G37*
G36*
X79172868Y-85340476D02*
G01*
X79343113Y-85410994D01*
X79496330Y-85513370D01*
X79626630Y-85643670D01*
X79729006Y-85796887D01*
X79799524Y-85967132D01*
X79835474Y-86147864D01*
X79835474Y-86332136D01*
X79799524Y-86512868D01*
X79729006Y-86683113D01*
X79626630Y-86836330D01*
X79496330Y-86966630D01*
X79343113Y-87069006D01*
X79172868Y-87139524D01*
X78992136Y-87175474D01*
X78807864Y-87175474D01*
X78627132Y-87139524D01*
X78456887Y-87069006D01*
X78303670Y-86966630D01*
X78173370Y-86836330D01*
X78070994Y-86683113D01*
X78000476Y-86512868D01*
X77964526Y-86332136D01*
X77964526Y-86147864D01*
X78000476Y-85967132D01*
X78070994Y-85796887D01*
X78173370Y-85643670D01*
X78303670Y-85513370D01*
X78456887Y-85410994D01*
X78627132Y-85340476D01*
X78807864Y-85304526D01*
X78992136Y-85304526D01*
X79172868Y-85340476D01*
G37*
G36*
X58153400Y-84240538D02*
G01*
X58224771Y-84247230D01*
X58248853Y-84255656D01*
X58276697Y-84260067D01*
X58310111Y-84277092D01*
X58341314Y-84288011D01*
X58363106Y-84304094D01*
X58390992Y-84318303D01*
X58415318Y-84342629D01*
X58439513Y-84360486D01*
X58457369Y-84384680D01*
X58481697Y-84409008D01*
X58495906Y-84436895D01*
X58511988Y-84458685D01*
X58522905Y-84489883D01*
X58539933Y-84523303D01*
X58544343Y-84551149D01*
X58552769Y-84575228D01*
X58559459Y-84646586D01*
X58560000Y-84650000D01*
X58560000Y-85300000D01*
X58559458Y-85303415D01*
X58552769Y-85374771D01*
X58544343Y-85398848D01*
X58539933Y-85426697D01*
X58522904Y-85460118D01*
X58511988Y-85491314D01*
X58495907Y-85513101D01*
X58481697Y-85540992D01*
X58457366Y-85565322D01*
X58439513Y-85589513D01*
X58415322Y-85607366D01*
X58390992Y-85631697D01*
X58363101Y-85645907D01*
X58341314Y-85661988D01*
X58310118Y-85672904D01*
X58276697Y-85689933D01*
X58248848Y-85694343D01*
X58224771Y-85702769D01*
X58153414Y-85709459D01*
X58150000Y-85710000D01*
X56850000Y-85710000D01*
X56846585Y-85709459D01*
X56775228Y-85702769D01*
X56751149Y-85694343D01*
X56723303Y-85689933D01*
X56689883Y-85672905D01*
X56658685Y-85661988D01*
X56636895Y-85645906D01*
X56609008Y-85631697D01*
X56584680Y-85607369D01*
X56560486Y-85589513D01*
X56542629Y-85565318D01*
X56518303Y-85540992D01*
X56504094Y-85513106D01*
X56488011Y-85491314D01*
X56477092Y-85460111D01*
X56460067Y-85426697D01*
X56455656Y-85398853D01*
X56447230Y-85374771D01*
X56440538Y-85303399D01*
X56440000Y-85300000D01*
X56440000Y-84650000D01*
X56440538Y-84646601D01*
X56447230Y-84575228D01*
X56455657Y-84551144D01*
X56460067Y-84523303D01*
X56477091Y-84489890D01*
X56488011Y-84458685D01*
X56504096Y-84436890D01*
X56518303Y-84409008D01*
X56542626Y-84384684D01*
X56560486Y-84360486D01*
X56584684Y-84342626D01*
X56609008Y-84318303D01*
X56636890Y-84304096D01*
X56658685Y-84288011D01*
X56689890Y-84277091D01*
X56723303Y-84260067D01*
X56751144Y-84255657D01*
X56775228Y-84247230D01*
X56846602Y-84240538D01*
X56850000Y-84240000D01*
X58150000Y-84240000D01*
X58153400Y-84240538D01*
G37*
G36*
X53772868Y-82800476D02*
G01*
X53943113Y-82870994D01*
X54096330Y-82973370D01*
X54226630Y-83103670D01*
X54329006Y-83256887D01*
X54399524Y-83427132D01*
X54435474Y-83607864D01*
X54435474Y-83792136D01*
X54399524Y-83972868D01*
X54329006Y-84143113D01*
X54226630Y-84296330D01*
X54096330Y-84426630D01*
X53943113Y-84529006D01*
X53772868Y-84599524D01*
X53592136Y-84635474D01*
X53407864Y-84635474D01*
X53227132Y-84599524D01*
X53056887Y-84529006D01*
X52903670Y-84426630D01*
X52773370Y-84296330D01*
X52670994Y-84143113D01*
X52600476Y-83972868D01*
X52564526Y-83792136D01*
X52564526Y-83607864D01*
X52600476Y-83427132D01*
X52670994Y-83256887D01*
X52773370Y-83103670D01*
X52903670Y-82973370D01*
X53056887Y-82870994D01*
X53227132Y-82800476D01*
X53407864Y-82764526D01*
X53592136Y-82764526D01*
X53772868Y-82800476D01*
G37*
G36*
X79172868Y-82800476D02*
G01*
X79343113Y-82870994D01*
X79496330Y-82973370D01*
X79626630Y-83103670D01*
X79729006Y-83256887D01*
X79799524Y-83427132D01*
X79835474Y-83607864D01*
X79835474Y-83792136D01*
X79799524Y-83972868D01*
X79729006Y-84143113D01*
X79626630Y-84296330D01*
X79496330Y-84426630D01*
X79343113Y-84529006D01*
X79172868Y-84599524D01*
X78992136Y-84635474D01*
X78807864Y-84635474D01*
X78627132Y-84599524D01*
X78456887Y-84529006D01*
X78303670Y-84426630D01*
X78173370Y-84296330D01*
X78070994Y-84143113D01*
X78000476Y-83972868D01*
X77964526Y-83792136D01*
X77964526Y-83607864D01*
X78000476Y-83427132D01*
X78070994Y-83256887D01*
X78173370Y-83103670D01*
X78303670Y-82973370D01*
X78456887Y-82870994D01*
X78627132Y-82800476D01*
X78807864Y-82764526D01*
X78992136Y-82764526D01*
X79172868Y-82800476D01*
G37*
G36*
X26002868Y-81600476D02*
G01*
X26173113Y-81670994D01*
X26326330Y-81773370D01*
X26456630Y-81903670D01*
X26559006Y-82056887D01*
X26629524Y-82227132D01*
X26665474Y-82407864D01*
X26665474Y-82592136D01*
X26629524Y-82772868D01*
X26559006Y-82943113D01*
X26456630Y-83096330D01*
X26326330Y-83226630D01*
X26173113Y-83329006D01*
X26002868Y-83399524D01*
X25822136Y-83435474D01*
X25637864Y-83435474D01*
X25457132Y-83399524D01*
X25286887Y-83329006D01*
X25133670Y-83226630D01*
X25003370Y-83096330D01*
X24900994Y-82943113D01*
X24830476Y-82772868D01*
X24794526Y-82592136D01*
X24794526Y-82407864D01*
X24830476Y-82227132D01*
X24900994Y-82056887D01*
X25003370Y-81903670D01*
X25133670Y-81773370D01*
X25286887Y-81670994D01*
X25457132Y-81600476D01*
X25637864Y-81564526D01*
X25822136Y-81564526D01*
X26002868Y-81600476D01*
G37*
G36*
X44302868Y-81600476D02*
G01*
X44473113Y-81670994D01*
X44626330Y-81773370D01*
X44756630Y-81903670D01*
X44859006Y-82056887D01*
X44929524Y-82227132D01*
X44965474Y-82407864D01*
X44965474Y-82592136D01*
X44929524Y-82772868D01*
X44859006Y-82943113D01*
X44756630Y-83096330D01*
X44626330Y-83226630D01*
X44473113Y-83329006D01*
X44302868Y-83399524D01*
X44122136Y-83435474D01*
X43937864Y-83435474D01*
X43757132Y-83399524D01*
X43586887Y-83329006D01*
X43433670Y-83226630D01*
X43303370Y-83096330D01*
X43200994Y-82943113D01*
X43130476Y-82772868D01*
X43094526Y-82592136D01*
X43094526Y-82407864D01*
X43130476Y-82227132D01*
X43200994Y-82056887D01*
X43303370Y-81903670D01*
X43433670Y-81773370D01*
X43586887Y-81670994D01*
X43757132Y-81600476D01*
X43937864Y-81564526D01*
X44122136Y-81564526D01*
X44302868Y-81600476D01*
G37*
G36*
X94300830Y-80450340D02*
G01*
X94518718Y-80521136D01*
X94722848Y-80625145D01*
X94908194Y-80759807D01*
X95070193Y-80921806D01*
X95204855Y-81107152D01*
X95308864Y-81311282D01*
X95379660Y-81529170D01*
X95415499Y-81755450D01*
X95415499Y-81984550D01*
X95379660Y-82210830D01*
X95308864Y-82428718D01*
X95204855Y-82632848D01*
X95070193Y-82818194D01*
X94908194Y-82980193D01*
X94722848Y-83114855D01*
X94518718Y-83218864D01*
X94300830Y-83289660D01*
X94074550Y-83325499D01*
X93845450Y-83325499D01*
X93619170Y-83289660D01*
X93401282Y-83218864D01*
X93197152Y-83114855D01*
X93011806Y-82980193D01*
X92849807Y-82818194D01*
X92715145Y-82632848D01*
X92611136Y-82428718D01*
X92540340Y-82210830D01*
X92504501Y-81984550D01*
X92504501Y-81755450D01*
X92540340Y-81529170D01*
X92611136Y-81311282D01*
X92715145Y-81107152D01*
X92849807Y-80921806D01*
X93011806Y-80759807D01*
X93197152Y-80625145D01*
X93401282Y-80521136D01*
X93619170Y-80450340D01*
X93845450Y-80414501D01*
X94074550Y-80414501D01*
X94300830Y-80450340D01*
G37*
G36*
X114380830Y-80450340D02*
G01*
X114598718Y-80521136D01*
X114802848Y-80625145D01*
X114988194Y-80759807D01*
X115150193Y-80921806D01*
X115284855Y-81107152D01*
X115388864Y-81311282D01*
X115459660Y-81529170D01*
X115495499Y-81755450D01*
X115495499Y-81984550D01*
X115459660Y-82210830D01*
X115388864Y-82428718D01*
X115284855Y-82632848D01*
X115150193Y-82818194D01*
X114988194Y-82980193D01*
X114802848Y-83114855D01*
X114598718Y-83218864D01*
X114380830Y-83289660D01*
X114154550Y-83325499D01*
X113925450Y-83325499D01*
X113699170Y-83289660D01*
X113481282Y-83218864D01*
X113277152Y-83114855D01*
X113091806Y-82980193D01*
X112929807Y-82818194D01*
X112795145Y-82632848D01*
X112691136Y-82428718D01*
X112620340Y-82210830D01*
X112584501Y-81984550D01*
X112584501Y-81755450D01*
X112620340Y-81529170D01*
X112691136Y-81311282D01*
X112795145Y-81107152D01*
X112929807Y-80921806D01*
X113091806Y-80759807D01*
X113277152Y-80625145D01*
X113481282Y-80521136D01*
X113699170Y-80450340D01*
X113925450Y-80414501D01*
X114154550Y-80414501D01*
X114380830Y-80450340D01*
G37*
G36*
X58153400Y-81290538D02*
G01*
X58224771Y-81297230D01*
X58248853Y-81305656D01*
X58276697Y-81310067D01*
X58310111Y-81327092D01*
X58341314Y-81338011D01*
X58363106Y-81354094D01*
X58390992Y-81368303D01*
X58415318Y-81392629D01*
X58439513Y-81410486D01*
X58457369Y-81434680D01*
X58481697Y-81459008D01*
X58495906Y-81486895D01*
X58511988Y-81508685D01*
X58522905Y-81539883D01*
X58539933Y-81573303D01*
X58544343Y-81601149D01*
X58552769Y-81625228D01*
X58559459Y-81696586D01*
X58560000Y-81700000D01*
X58560000Y-82350000D01*
X58559458Y-82353415D01*
X58552769Y-82424771D01*
X58544343Y-82448848D01*
X58539933Y-82476697D01*
X58522904Y-82510118D01*
X58511988Y-82541314D01*
X58495907Y-82563101D01*
X58481697Y-82590992D01*
X58457366Y-82615322D01*
X58439513Y-82639513D01*
X58415322Y-82657366D01*
X58390992Y-82681697D01*
X58363101Y-82695907D01*
X58341314Y-82711988D01*
X58310118Y-82722904D01*
X58276697Y-82739933D01*
X58248848Y-82744343D01*
X58224771Y-82752769D01*
X58153414Y-82759459D01*
X58150000Y-82760000D01*
X56850000Y-82760000D01*
X56846585Y-82759459D01*
X56775228Y-82752769D01*
X56751149Y-82744343D01*
X56723303Y-82739933D01*
X56689883Y-82722905D01*
X56658685Y-82711988D01*
X56636895Y-82695906D01*
X56609008Y-82681697D01*
X56584680Y-82657369D01*
X56560486Y-82639513D01*
X56542629Y-82615318D01*
X56518303Y-82590992D01*
X56504094Y-82563106D01*
X56488011Y-82541314D01*
X56477092Y-82510111D01*
X56460067Y-82476697D01*
X56455656Y-82448853D01*
X56447230Y-82424771D01*
X56440538Y-82353399D01*
X56440000Y-82350000D01*
X56440000Y-81700000D01*
X56440538Y-81696601D01*
X56447230Y-81625228D01*
X56455657Y-81601144D01*
X56460067Y-81573303D01*
X56477091Y-81539890D01*
X56488011Y-81508685D01*
X56504096Y-81486890D01*
X56518303Y-81459008D01*
X56542626Y-81434684D01*
X56560486Y-81410486D01*
X56584684Y-81392626D01*
X56609008Y-81368303D01*
X56636890Y-81354096D01*
X56658685Y-81338011D01*
X56689890Y-81327091D01*
X56723303Y-81310067D01*
X56751144Y-81305657D01*
X56775228Y-81297230D01*
X56846602Y-81290538D01*
X56850000Y-81290000D01*
X58150000Y-81290000D01*
X58153400Y-81290538D01*
G37*
G36*
X53772868Y-80260476D02*
G01*
X53943113Y-80330994D01*
X54096330Y-80433370D01*
X54226630Y-80563670D01*
X54329006Y-80716887D01*
X54399524Y-80887132D01*
X54435474Y-81067864D01*
X54435474Y-81252136D01*
X54399524Y-81432868D01*
X54329006Y-81603113D01*
X54226630Y-81756330D01*
X54096330Y-81886630D01*
X53943113Y-81989006D01*
X53772868Y-82059524D01*
X53592136Y-82095474D01*
X53407864Y-82095474D01*
X53227132Y-82059524D01*
X53056887Y-81989006D01*
X52903670Y-81886630D01*
X52773370Y-81756330D01*
X52670994Y-81603113D01*
X52600476Y-81432868D01*
X52564526Y-81252136D01*
X52564526Y-81067864D01*
X52600476Y-80887132D01*
X52670994Y-80716887D01*
X52773370Y-80563670D01*
X52903670Y-80433370D01*
X53056887Y-80330994D01*
X53227132Y-80260476D01*
X53407864Y-80224526D01*
X53592136Y-80224526D01*
X53772868Y-80260476D01*
G37*
G36*
X79172868Y-80260476D02*
G01*
X79343113Y-80330994D01*
X79496330Y-80433370D01*
X79626630Y-80563670D01*
X79729006Y-80716887D01*
X79799524Y-80887132D01*
X79835474Y-81067864D01*
X79835474Y-81252136D01*
X79799524Y-81432868D01*
X79729006Y-81603113D01*
X79626630Y-81756330D01*
X79496330Y-81886630D01*
X79343113Y-81989006D01*
X79172868Y-82059524D01*
X78992136Y-82095474D01*
X78807864Y-82095474D01*
X78627132Y-82059524D01*
X78456887Y-81989006D01*
X78303670Y-81886630D01*
X78173370Y-81756330D01*
X78070994Y-81603113D01*
X78000476Y-81432868D01*
X77964526Y-81252136D01*
X77964526Y-81067864D01*
X78000476Y-80887132D01*
X78070994Y-80716887D01*
X78173370Y-80563670D01*
X78303670Y-80433370D01*
X78456887Y-80330994D01*
X78627132Y-80260476D01*
X78807864Y-80224526D01*
X78992136Y-80224526D01*
X79172868Y-80260476D01*
G37*
G36*
X97882868Y-79720476D02*
G01*
X98053113Y-79790994D01*
X98206330Y-79893370D01*
X98336630Y-80023670D01*
X98439006Y-80176887D01*
X98509524Y-80347132D01*
X98545474Y-80527864D01*
X98545474Y-80712136D01*
X98509524Y-80892868D01*
X98439006Y-81063113D01*
X98336630Y-81216330D01*
X98206330Y-81346630D01*
X98053113Y-81449006D01*
X97882868Y-81519524D01*
X97702136Y-81555474D01*
X97517864Y-81555474D01*
X97337132Y-81519524D01*
X97166887Y-81449006D01*
X97013670Y-81346630D01*
X96883370Y-81216330D01*
X96780994Y-81063113D01*
X96710476Y-80892868D01*
X96674526Y-80712136D01*
X96674526Y-80527864D01*
X96710476Y-80347132D01*
X96780994Y-80176887D01*
X96883370Y-80023670D01*
X97013670Y-79893370D01*
X97166887Y-79790994D01*
X97337132Y-79720476D01*
X97517864Y-79684526D01*
X97702136Y-79684526D01*
X97882868Y-79720476D01*
G37*
G36*
X100422868Y-79720476D02*
G01*
X100593113Y-79790994D01*
X100746330Y-79893370D01*
X100876630Y-80023670D01*
X100979006Y-80176887D01*
X101049524Y-80347132D01*
X101085474Y-80527864D01*
X101085474Y-80712136D01*
X101049524Y-80892868D01*
X100979006Y-81063113D01*
X100876630Y-81216330D01*
X100746330Y-81346630D01*
X100593113Y-81449006D01*
X100422868Y-81519524D01*
X100242136Y-81555474D01*
X100057864Y-81555474D01*
X99877132Y-81519524D01*
X99706887Y-81449006D01*
X99553670Y-81346630D01*
X99423370Y-81216330D01*
X99320994Y-81063113D01*
X99250476Y-80892868D01*
X99214526Y-80712136D01*
X99214526Y-80527864D01*
X99250476Y-80347132D01*
X99320994Y-80176887D01*
X99423370Y-80023670D01*
X99553670Y-79893370D01*
X99706887Y-79790994D01*
X99877132Y-79720476D01*
X100057864Y-79684526D01*
X100242136Y-79684526D01*
X100422868Y-79720476D01*
G37*
G36*
X102962868Y-79720476D02*
G01*
X103133113Y-79790994D01*
X103286330Y-79893370D01*
X103416630Y-80023670D01*
X103519006Y-80176887D01*
X103589524Y-80347132D01*
X103625474Y-80527864D01*
X103625474Y-80712136D01*
X103589524Y-80892868D01*
X103519006Y-81063113D01*
X103416630Y-81216330D01*
X103286330Y-81346630D01*
X103133113Y-81449006D01*
X102962868Y-81519524D01*
X102782136Y-81555474D01*
X102597864Y-81555474D01*
X102417132Y-81519524D01*
X102246887Y-81449006D01*
X102093670Y-81346630D01*
X101963370Y-81216330D01*
X101860994Y-81063113D01*
X101790476Y-80892868D01*
X101754526Y-80712136D01*
X101754526Y-80527864D01*
X101790476Y-80347132D01*
X101860994Y-80176887D01*
X101963370Y-80023670D01*
X102093670Y-79893370D01*
X102246887Y-79790994D01*
X102417132Y-79720476D01*
X102597864Y-79684526D01*
X102782136Y-79684526D01*
X102962868Y-79720476D01*
G37*
G36*
X105502868Y-79720476D02*
G01*
X105673113Y-79790994D01*
X105826330Y-79893370D01*
X105956630Y-80023670D01*
X106059006Y-80176887D01*
X106129524Y-80347132D01*
X106165474Y-80527864D01*
X106165474Y-80712136D01*
X106129524Y-80892868D01*
X106059006Y-81063113D01*
X105956630Y-81216330D01*
X105826330Y-81346630D01*
X105673113Y-81449006D01*
X105502868Y-81519524D01*
X105322136Y-81555474D01*
X105137864Y-81555474D01*
X104957132Y-81519524D01*
X104786887Y-81449006D01*
X104633670Y-81346630D01*
X104503370Y-81216330D01*
X104400994Y-81063113D01*
X104330476Y-80892868D01*
X104294526Y-80712136D01*
X104294526Y-80527864D01*
X104330476Y-80347132D01*
X104400994Y-80176887D01*
X104503370Y-80023670D01*
X104633670Y-79893370D01*
X104786887Y-79790994D01*
X104957132Y-79720476D01*
X105137864Y-79684526D01*
X105322136Y-79684526D01*
X105502868Y-79720476D01*
G37*
G36*
X108042868Y-79720476D02*
G01*
X108213113Y-79790994D01*
X108366330Y-79893370D01*
X108496630Y-80023670D01*
X108599006Y-80176887D01*
X108669524Y-80347132D01*
X108705474Y-80527864D01*
X108705474Y-80712136D01*
X108669524Y-80892868D01*
X108599006Y-81063113D01*
X108496630Y-81216330D01*
X108366330Y-81346630D01*
X108213113Y-81449006D01*
X108042868Y-81519524D01*
X107862136Y-81555474D01*
X107677864Y-81555474D01*
X107497132Y-81519524D01*
X107326887Y-81449006D01*
X107173670Y-81346630D01*
X107043370Y-81216330D01*
X106940994Y-81063113D01*
X106870476Y-80892868D01*
X106834526Y-80712136D01*
X106834526Y-80527864D01*
X106870476Y-80347132D01*
X106940994Y-80176887D01*
X107043370Y-80023670D01*
X107173670Y-79893370D01*
X107326887Y-79790994D01*
X107497132Y-79720476D01*
X107677864Y-79684526D01*
X107862136Y-79684526D01*
X108042868Y-79720476D01*
G37*
G36*
X110582868Y-79720476D02*
G01*
X110753113Y-79790994D01*
X110906330Y-79893370D01*
X111036630Y-80023670D01*
X111139006Y-80176887D01*
X111209524Y-80347132D01*
X111245474Y-80527864D01*
X111245474Y-80712136D01*
X111209524Y-80892868D01*
X111139006Y-81063113D01*
X111036630Y-81216330D01*
X110906330Y-81346630D01*
X110753113Y-81449006D01*
X110582868Y-81519524D01*
X110402136Y-81555474D01*
X110217864Y-81555474D01*
X110037132Y-81519524D01*
X109866887Y-81449006D01*
X109713670Y-81346630D01*
X109583370Y-81216330D01*
X109480994Y-81063113D01*
X109410476Y-80892868D01*
X109374526Y-80712136D01*
X109374526Y-80527864D01*
X109410476Y-80347132D01*
X109480994Y-80176887D01*
X109583370Y-80023670D01*
X109713670Y-79893370D01*
X109866887Y-79790994D01*
X110037132Y-79720476D01*
X110217864Y-79684526D01*
X110402136Y-79684526D01*
X110582868Y-79720476D01*
G37*
G36*
X26002868Y-79060476D02*
G01*
X26173113Y-79130994D01*
X26326330Y-79233370D01*
X26456630Y-79363670D01*
X26559006Y-79516887D01*
X26629524Y-79687132D01*
X26665474Y-79867864D01*
X26665474Y-80052136D01*
X26629524Y-80232868D01*
X26559006Y-80403113D01*
X26456630Y-80556330D01*
X26326330Y-80686630D01*
X26173113Y-80789006D01*
X26002868Y-80859524D01*
X25822136Y-80895474D01*
X25637864Y-80895474D01*
X25457132Y-80859524D01*
X25286887Y-80789006D01*
X25133670Y-80686630D01*
X25003370Y-80556330D01*
X24900994Y-80403113D01*
X24830476Y-80232868D01*
X24794526Y-80052136D01*
X24794526Y-79867864D01*
X24830476Y-79687132D01*
X24900994Y-79516887D01*
X25003370Y-79363670D01*
X25133670Y-79233370D01*
X25286887Y-79130994D01*
X25457132Y-79060476D01*
X25637864Y-79024526D01*
X25822136Y-79024526D01*
X26002868Y-79060476D01*
G37*
G36*
X44302868Y-79060476D02*
G01*
X44473113Y-79130994D01*
X44626330Y-79233370D01*
X44756630Y-79363670D01*
X44859006Y-79516887D01*
X44929524Y-79687132D01*
X44965474Y-79867864D01*
X44965474Y-80052136D01*
X44929524Y-80232868D01*
X44859006Y-80403113D01*
X44756630Y-80556330D01*
X44626330Y-80686630D01*
X44473113Y-80789006D01*
X44302868Y-80859524D01*
X44122136Y-80895474D01*
X43937864Y-80895474D01*
X43757132Y-80859524D01*
X43586887Y-80789006D01*
X43433670Y-80686630D01*
X43303370Y-80556330D01*
X43200994Y-80403113D01*
X43130476Y-80232868D01*
X43094526Y-80052136D01*
X43094526Y-79867864D01*
X43130476Y-79687132D01*
X43200994Y-79516887D01*
X43303370Y-79363670D01*
X43433670Y-79233370D01*
X43586887Y-79130994D01*
X43757132Y-79060476D01*
X43937864Y-79024526D01*
X44122136Y-79024526D01*
X44302868Y-79060476D01*
G37*
G36*
X53772868Y-77720476D02*
G01*
X53943113Y-77790994D01*
X54096330Y-77893370D01*
X54226630Y-78023670D01*
X54329006Y-78176887D01*
X54399524Y-78347132D01*
X54435474Y-78527864D01*
X54435474Y-78712136D01*
X54399524Y-78892868D01*
X54329006Y-79063113D01*
X54226630Y-79216330D01*
X54096330Y-79346630D01*
X53943113Y-79449006D01*
X53772868Y-79519524D01*
X53592136Y-79555474D01*
X53407864Y-79555474D01*
X53227132Y-79519524D01*
X53056887Y-79449006D01*
X52903670Y-79346630D01*
X52773370Y-79216330D01*
X52670994Y-79063113D01*
X52600476Y-78892868D01*
X52564526Y-78712136D01*
X52564526Y-78527864D01*
X52600476Y-78347132D01*
X52670994Y-78176887D01*
X52773370Y-78023670D01*
X52903670Y-77893370D01*
X53056887Y-77790994D01*
X53227132Y-77720476D01*
X53407864Y-77684526D01*
X53592136Y-77684526D01*
X53772868Y-77720476D01*
G37*
G36*
X79172868Y-77720476D02*
G01*
X79343113Y-77790994D01*
X79496330Y-77893370D01*
X79626630Y-78023670D01*
X79729006Y-78176887D01*
X79799524Y-78347132D01*
X79835474Y-78527864D01*
X79835474Y-78712136D01*
X79799524Y-78892868D01*
X79729006Y-79063113D01*
X79626630Y-79216330D01*
X79496330Y-79346630D01*
X79343113Y-79449006D01*
X79172868Y-79519524D01*
X78992136Y-79555474D01*
X78807864Y-79555474D01*
X78627132Y-79519524D01*
X78456887Y-79449006D01*
X78303670Y-79346630D01*
X78173370Y-79216330D01*
X78070994Y-79063113D01*
X78000476Y-78892868D01*
X77964526Y-78712136D01*
X77964526Y-78527864D01*
X78000476Y-78347132D01*
X78070994Y-78176887D01*
X78173370Y-78023670D01*
X78303670Y-77893370D01*
X78456887Y-77790994D01*
X78627132Y-77720476D01*
X78807864Y-77684526D01*
X78992136Y-77684526D01*
X79172868Y-77720476D01*
G37*
G36*
X85573400Y-76268038D02*
G01*
X85644771Y-76274730D01*
X85668853Y-76283156D01*
X85696697Y-76287567D01*
X85730111Y-76304592D01*
X85761314Y-76315511D01*
X85783106Y-76331594D01*
X85810992Y-76345803D01*
X85835318Y-76370129D01*
X85859513Y-76387986D01*
X85877369Y-76412180D01*
X85901697Y-76436508D01*
X85915906Y-76464395D01*
X85931988Y-76486185D01*
X85942905Y-76517383D01*
X85959933Y-76550803D01*
X85964343Y-76578649D01*
X85972769Y-76602728D01*
X85979459Y-76674086D01*
X85980000Y-76677500D01*
X85980000Y-78377500D01*
X85979458Y-78380915D01*
X85972769Y-78452271D01*
X85964343Y-78476348D01*
X85959933Y-78504197D01*
X85942904Y-78537618D01*
X85931988Y-78568814D01*
X85915907Y-78590601D01*
X85901697Y-78618492D01*
X85877366Y-78642822D01*
X85859513Y-78667013D01*
X85835322Y-78684866D01*
X85810992Y-78709197D01*
X85783101Y-78723407D01*
X85761314Y-78739488D01*
X85730118Y-78750404D01*
X85696697Y-78767433D01*
X85668848Y-78771843D01*
X85644771Y-78780269D01*
X85573414Y-78786959D01*
X85570000Y-78787500D01*
X84870000Y-78787500D01*
X84866585Y-78786959D01*
X84795228Y-78780269D01*
X84771149Y-78771843D01*
X84743303Y-78767433D01*
X84709883Y-78750405D01*
X84678685Y-78739488D01*
X84656895Y-78723406D01*
X84629008Y-78709197D01*
X84604680Y-78684869D01*
X84580486Y-78667013D01*
X84562629Y-78642818D01*
X84538303Y-78618492D01*
X84524094Y-78590606D01*
X84508011Y-78568814D01*
X84497092Y-78537611D01*
X84480067Y-78504197D01*
X84475656Y-78476353D01*
X84467230Y-78452271D01*
X84460538Y-78380899D01*
X84460000Y-78377500D01*
X84460000Y-76677500D01*
X84460538Y-76674101D01*
X84467230Y-76602728D01*
X84475657Y-76578644D01*
X84480067Y-76550803D01*
X84497091Y-76517390D01*
X84508011Y-76486185D01*
X84524096Y-76464390D01*
X84538303Y-76436508D01*
X84562626Y-76412184D01*
X84580486Y-76387986D01*
X84604684Y-76370126D01*
X84629008Y-76345803D01*
X84656890Y-76331596D01*
X84678685Y-76315511D01*
X84709890Y-76304591D01*
X84743303Y-76287567D01*
X84771144Y-76283157D01*
X84795228Y-76274730D01*
X84866602Y-76268038D01*
X84870000Y-76267500D01*
X85570000Y-76267500D01*
X85573400Y-76268038D01*
G37*
G36*
X90133400Y-76268038D02*
G01*
X90204771Y-76274730D01*
X90228853Y-76283156D01*
X90256697Y-76287567D01*
X90290111Y-76304592D01*
X90321314Y-76315511D01*
X90343106Y-76331594D01*
X90370992Y-76345803D01*
X90395318Y-76370129D01*
X90419513Y-76387986D01*
X90437369Y-76412180D01*
X90461697Y-76436508D01*
X90475906Y-76464395D01*
X90491988Y-76486185D01*
X90502905Y-76517383D01*
X90519933Y-76550803D01*
X90524343Y-76578649D01*
X90532769Y-76602728D01*
X90539459Y-76674086D01*
X90540000Y-76677500D01*
X90540000Y-78377500D01*
X90539458Y-78380915D01*
X90532769Y-78452271D01*
X90524343Y-78476348D01*
X90519933Y-78504197D01*
X90502904Y-78537618D01*
X90491988Y-78568814D01*
X90475907Y-78590601D01*
X90461697Y-78618492D01*
X90437366Y-78642822D01*
X90419513Y-78667013D01*
X90395322Y-78684866D01*
X90370992Y-78709197D01*
X90343101Y-78723407D01*
X90321314Y-78739488D01*
X90290118Y-78750404D01*
X90256697Y-78767433D01*
X90228848Y-78771843D01*
X90204771Y-78780269D01*
X90133414Y-78786959D01*
X90130000Y-78787500D01*
X89430000Y-78787500D01*
X89426585Y-78786959D01*
X89355228Y-78780269D01*
X89331149Y-78771843D01*
X89303303Y-78767433D01*
X89269883Y-78750405D01*
X89238685Y-78739488D01*
X89216895Y-78723406D01*
X89189008Y-78709197D01*
X89164680Y-78684869D01*
X89140486Y-78667013D01*
X89122629Y-78642818D01*
X89098303Y-78618492D01*
X89084094Y-78590606D01*
X89068011Y-78568814D01*
X89057092Y-78537611D01*
X89040067Y-78504197D01*
X89035656Y-78476353D01*
X89027230Y-78452271D01*
X89020538Y-78380899D01*
X89020000Y-78377500D01*
X89020000Y-76677500D01*
X89020538Y-76674101D01*
X89027230Y-76602728D01*
X89035657Y-76578644D01*
X89040067Y-76550803D01*
X89057091Y-76517390D01*
X89068011Y-76486185D01*
X89084096Y-76464390D01*
X89098303Y-76436508D01*
X89122626Y-76412184D01*
X89140486Y-76387986D01*
X89164684Y-76370126D01*
X89189008Y-76345803D01*
X89216890Y-76331596D01*
X89238685Y-76315511D01*
X89269890Y-76304591D01*
X89303303Y-76287567D01*
X89331144Y-76283157D01*
X89355228Y-76274730D01*
X89426602Y-76268038D01*
X89430000Y-76267500D01*
X90130000Y-76267500D01*
X90133400Y-76268038D01*
G37*
G36*
X82653400Y-75743038D02*
G01*
X82724771Y-75749730D01*
X82748853Y-75758156D01*
X82776697Y-75762567D01*
X82810111Y-75779592D01*
X82841314Y-75790511D01*
X82863106Y-75806594D01*
X82890992Y-75820803D01*
X82915318Y-75845129D01*
X82939513Y-75862986D01*
X82957369Y-75887180D01*
X82981697Y-75911508D01*
X82995906Y-75939395D01*
X83011988Y-75961185D01*
X83022905Y-75992383D01*
X83039933Y-76025803D01*
X83044343Y-76053649D01*
X83052769Y-76077728D01*
X83059459Y-76149086D01*
X83060000Y-76152500D01*
X83060000Y-76777500D01*
X83059458Y-76780915D01*
X83052769Y-76852271D01*
X83044343Y-76876348D01*
X83039933Y-76904197D01*
X83022904Y-76937618D01*
X83011988Y-76968814D01*
X82995907Y-76990601D01*
X82981697Y-77018492D01*
X82957366Y-77042822D01*
X82939513Y-77067013D01*
X82915322Y-77084866D01*
X82890992Y-77109197D01*
X82863101Y-77123407D01*
X82841314Y-77139488D01*
X82810118Y-77150404D01*
X82776697Y-77167433D01*
X82748848Y-77171843D01*
X82724771Y-77180269D01*
X82653414Y-77186959D01*
X82650000Y-77187500D01*
X81400000Y-77187500D01*
X81396585Y-77186959D01*
X81325228Y-77180269D01*
X81301149Y-77171843D01*
X81273303Y-77167433D01*
X81239883Y-77150405D01*
X81208685Y-77139488D01*
X81186895Y-77123406D01*
X81159008Y-77109197D01*
X81134680Y-77084869D01*
X81110486Y-77067013D01*
X81092629Y-77042818D01*
X81068303Y-77018492D01*
X81054094Y-76990606D01*
X81038011Y-76968814D01*
X81027092Y-76937611D01*
X81010067Y-76904197D01*
X81005656Y-76876353D01*
X80997230Y-76852271D01*
X80990538Y-76780899D01*
X80990000Y-76777500D01*
X80990000Y-76152500D01*
X80990538Y-76149101D01*
X80997230Y-76077728D01*
X81005657Y-76053644D01*
X81010067Y-76025803D01*
X81027091Y-75992390D01*
X81038011Y-75961185D01*
X81054096Y-75939390D01*
X81068303Y-75911508D01*
X81092626Y-75887184D01*
X81110486Y-75862986D01*
X81134684Y-75845126D01*
X81159008Y-75820803D01*
X81186890Y-75806596D01*
X81208685Y-75790511D01*
X81239890Y-75779591D01*
X81273303Y-75762567D01*
X81301144Y-75758157D01*
X81325228Y-75749730D01*
X81396602Y-75743038D01*
X81400000Y-75742500D01*
X82650000Y-75742500D01*
X82653400Y-75743038D01*
G37*
G36*
X53772868Y-75180476D02*
G01*
X53943113Y-75250994D01*
X54096330Y-75353370D01*
X54226630Y-75483670D01*
X54329006Y-75636887D01*
X54399524Y-75807132D01*
X54435474Y-75987864D01*
X54435474Y-76172136D01*
X54399524Y-76352868D01*
X54329006Y-76523113D01*
X54226630Y-76676330D01*
X54096330Y-76806630D01*
X53943113Y-76909006D01*
X53772868Y-76979524D01*
X53592136Y-77015474D01*
X53407864Y-77015474D01*
X53227132Y-76979524D01*
X53056887Y-76909006D01*
X52903670Y-76806630D01*
X52773370Y-76676330D01*
X52670994Y-76523113D01*
X52600476Y-76352868D01*
X52564526Y-76172136D01*
X52564526Y-75987864D01*
X52600476Y-75807132D01*
X52670994Y-75636887D01*
X52773370Y-75483670D01*
X52903670Y-75353370D01*
X53056887Y-75250994D01*
X53227132Y-75180476D01*
X53407864Y-75144526D01*
X53592136Y-75144526D01*
X53772868Y-75180476D01*
G37*
G36*
X79172868Y-75180476D02*
G01*
X79343113Y-75250994D01*
X79496330Y-75353370D01*
X79626630Y-75483670D01*
X79729006Y-75636887D01*
X79799524Y-75807132D01*
X79835474Y-75987864D01*
X79835474Y-76172136D01*
X79799524Y-76352868D01*
X79729006Y-76523113D01*
X79626630Y-76676330D01*
X79496330Y-76806630D01*
X79343113Y-76909006D01*
X79172868Y-76979524D01*
X78992136Y-77015474D01*
X78807864Y-77015474D01*
X78627132Y-76979524D01*
X78456887Y-76909006D01*
X78303670Y-76806630D01*
X78173370Y-76676330D01*
X78070994Y-76523113D01*
X78000476Y-76352868D01*
X77964526Y-76172136D01*
X77964526Y-75987864D01*
X78000476Y-75807132D01*
X78070994Y-75636887D01*
X78173370Y-75483670D01*
X78303670Y-75353370D01*
X78456887Y-75250994D01*
X78627132Y-75180476D01*
X78807864Y-75144526D01*
X78992136Y-75144526D01*
X79172868Y-75180476D01*
G37*
G36*
X33133400Y-74090538D02*
G01*
X33204771Y-74097230D01*
X33228853Y-74105656D01*
X33256697Y-74110067D01*
X33290111Y-74127092D01*
X33321314Y-74138011D01*
X33343106Y-74154094D01*
X33370992Y-74168303D01*
X33395318Y-74192629D01*
X33419513Y-74210486D01*
X33437369Y-74234680D01*
X33461697Y-74259008D01*
X33475906Y-74286895D01*
X33491988Y-74308685D01*
X33502905Y-74339883D01*
X33519933Y-74373303D01*
X33524343Y-74401149D01*
X33532769Y-74425228D01*
X33539459Y-74496586D01*
X33540000Y-74500000D01*
X33540000Y-76500000D01*
X33539458Y-76503415D01*
X33532769Y-76574771D01*
X33524343Y-76598848D01*
X33519933Y-76626697D01*
X33502904Y-76660118D01*
X33491988Y-76691314D01*
X33475907Y-76713101D01*
X33461697Y-76740992D01*
X33437366Y-76765322D01*
X33419513Y-76789513D01*
X33395322Y-76807366D01*
X33370992Y-76831697D01*
X33343101Y-76845907D01*
X33321314Y-76861988D01*
X33290118Y-76872904D01*
X33256697Y-76889933D01*
X33228848Y-76894343D01*
X33204771Y-76902769D01*
X33133414Y-76909459D01*
X33130000Y-76910000D01*
X30130000Y-76910000D01*
X30126585Y-76909459D01*
X30055228Y-76902769D01*
X30031149Y-76894343D01*
X30003303Y-76889933D01*
X29969883Y-76872905D01*
X29938685Y-76861988D01*
X29916895Y-76845906D01*
X29889008Y-76831697D01*
X29864680Y-76807369D01*
X29840486Y-76789513D01*
X29822629Y-76765318D01*
X29798303Y-76740992D01*
X29784094Y-76713106D01*
X29768011Y-76691314D01*
X29757092Y-76660111D01*
X29740067Y-76626697D01*
X29735656Y-76598853D01*
X29727230Y-76574771D01*
X29720538Y-76503399D01*
X29720000Y-76500000D01*
X29720000Y-74500000D01*
X29720538Y-74496601D01*
X29727230Y-74425228D01*
X29735657Y-74401144D01*
X29740067Y-74373303D01*
X29757091Y-74339890D01*
X29768011Y-74308685D01*
X29784096Y-74286890D01*
X29798303Y-74259008D01*
X29822626Y-74234684D01*
X29840486Y-74210486D01*
X29864684Y-74192626D01*
X29889008Y-74168303D01*
X29916890Y-74154096D01*
X29938685Y-74138011D01*
X29969890Y-74127091D01*
X30003303Y-74110067D01*
X30031144Y-74105657D01*
X30055228Y-74097230D01*
X30126602Y-74090538D01*
X30130000Y-74090000D01*
X33130000Y-74090000D01*
X33133400Y-74090538D01*
G37*
G36*
X39633400Y-74090538D02*
G01*
X39704771Y-74097230D01*
X39728853Y-74105656D01*
X39756697Y-74110067D01*
X39790111Y-74127092D01*
X39821314Y-74138011D01*
X39843106Y-74154094D01*
X39870992Y-74168303D01*
X39895318Y-74192629D01*
X39919513Y-74210486D01*
X39937369Y-74234680D01*
X39961697Y-74259008D01*
X39975906Y-74286895D01*
X39991988Y-74308685D01*
X40002905Y-74339883D01*
X40019933Y-74373303D01*
X40024343Y-74401149D01*
X40032769Y-74425228D01*
X40039459Y-74496586D01*
X40040000Y-74500000D01*
X40040000Y-76500000D01*
X40039458Y-76503415D01*
X40032769Y-76574771D01*
X40024343Y-76598848D01*
X40019933Y-76626697D01*
X40002904Y-76660118D01*
X39991988Y-76691314D01*
X39975907Y-76713101D01*
X39961697Y-76740992D01*
X39937366Y-76765322D01*
X39919513Y-76789513D01*
X39895322Y-76807366D01*
X39870992Y-76831697D01*
X39843101Y-76845907D01*
X39821314Y-76861988D01*
X39790118Y-76872904D01*
X39756697Y-76889933D01*
X39728848Y-76894343D01*
X39704771Y-76902769D01*
X39633414Y-76909459D01*
X39630000Y-76910000D01*
X36630000Y-76910000D01*
X36626585Y-76909459D01*
X36555228Y-76902769D01*
X36531149Y-76894343D01*
X36503303Y-76889933D01*
X36469883Y-76872905D01*
X36438685Y-76861988D01*
X36416895Y-76845906D01*
X36389008Y-76831697D01*
X36364680Y-76807369D01*
X36340486Y-76789513D01*
X36322629Y-76765318D01*
X36298303Y-76740992D01*
X36284094Y-76713106D01*
X36268011Y-76691314D01*
X36257092Y-76660111D01*
X36240067Y-76626697D01*
X36235656Y-76598853D01*
X36227230Y-76574771D01*
X36220538Y-76503399D01*
X36220000Y-76500000D01*
X36220000Y-74500000D01*
X36220538Y-74496601D01*
X36227230Y-74425228D01*
X36235657Y-74401144D01*
X36240067Y-74373303D01*
X36257091Y-74339890D01*
X36268011Y-74308685D01*
X36284096Y-74286890D01*
X36298303Y-74259008D01*
X36322626Y-74234684D01*
X36340486Y-74210486D01*
X36364684Y-74192626D01*
X36389008Y-74168303D01*
X36416890Y-74154096D01*
X36438685Y-74138011D01*
X36469890Y-74127091D01*
X36503303Y-74110067D01*
X36531144Y-74105657D01*
X36555228Y-74097230D01*
X36626602Y-74090538D01*
X36630000Y-74090000D01*
X39630000Y-74090000D01*
X39633400Y-74090538D01*
G37*
G36*
X86170900Y-72493038D02*
G01*
X86242271Y-72499730D01*
X86266353Y-72508156D01*
X86294197Y-72512567D01*
X86327611Y-72529592D01*
X86358814Y-72540511D01*
X86380606Y-72556594D01*
X86408492Y-72570803D01*
X86432818Y-72595129D01*
X86457013Y-72612986D01*
X86474869Y-72637180D01*
X86499197Y-72661508D01*
X86513406Y-72689395D01*
X86529488Y-72711185D01*
X86540405Y-72742383D01*
X86557433Y-72775803D01*
X86561843Y-72803649D01*
X86570269Y-72827728D01*
X86576959Y-72899086D01*
X86577500Y-72902500D01*
X86577500Y-74152500D01*
X86576958Y-74155915D01*
X86570269Y-74227271D01*
X86561843Y-74251348D01*
X86557433Y-74279197D01*
X86540404Y-74312618D01*
X86529488Y-74343814D01*
X86513407Y-74365601D01*
X86499197Y-74393492D01*
X86474866Y-74417822D01*
X86457013Y-74442013D01*
X86432822Y-74459866D01*
X86408492Y-74484197D01*
X86380601Y-74498407D01*
X86358814Y-74514488D01*
X86327618Y-74525404D01*
X86294197Y-74542433D01*
X86266348Y-74546843D01*
X86242271Y-74555269D01*
X86170914Y-74561959D01*
X86167500Y-74562500D01*
X85542500Y-74562500D01*
X85539085Y-74561959D01*
X85467728Y-74555269D01*
X85443649Y-74546843D01*
X85415803Y-74542433D01*
X85382383Y-74525405D01*
X85351185Y-74514488D01*
X85329395Y-74498406D01*
X85301508Y-74484197D01*
X85277180Y-74459869D01*
X85252986Y-74442013D01*
X85235129Y-74417818D01*
X85210803Y-74393492D01*
X85196594Y-74365606D01*
X85180511Y-74343814D01*
X85169592Y-74312611D01*
X85152567Y-74279197D01*
X85148156Y-74251353D01*
X85139730Y-74227271D01*
X85133038Y-74155899D01*
X85132500Y-74152500D01*
X85132500Y-72902500D01*
X85133038Y-72899101D01*
X85139730Y-72827728D01*
X85148157Y-72803644D01*
X85152567Y-72775803D01*
X85169591Y-72742390D01*
X85180511Y-72711185D01*
X85196596Y-72689390D01*
X85210803Y-72661508D01*
X85235126Y-72637184D01*
X85252986Y-72612986D01*
X85277184Y-72595126D01*
X85301508Y-72570803D01*
X85329390Y-72556596D01*
X85351185Y-72540511D01*
X85382390Y-72529591D01*
X85415803Y-72512567D01*
X85443644Y-72508157D01*
X85467728Y-72499730D01*
X85539102Y-72493038D01*
X85542500Y-72492500D01*
X86167500Y-72492500D01*
X86170900Y-72493038D01*
G37*
G36*
X89095900Y-72493038D02*
G01*
X89167271Y-72499730D01*
X89191353Y-72508156D01*
X89219197Y-72512567D01*
X89252611Y-72529592D01*
X89283814Y-72540511D01*
X89305606Y-72556594D01*
X89333492Y-72570803D01*
X89357818Y-72595129D01*
X89382013Y-72612986D01*
X89399869Y-72637180D01*
X89424197Y-72661508D01*
X89438406Y-72689395D01*
X89454488Y-72711185D01*
X89465405Y-72742383D01*
X89482433Y-72775803D01*
X89486843Y-72803649D01*
X89495269Y-72827728D01*
X89501959Y-72899086D01*
X89502500Y-72902500D01*
X89502500Y-74152500D01*
X89501958Y-74155915D01*
X89495269Y-74227271D01*
X89486843Y-74251348D01*
X89482433Y-74279197D01*
X89465404Y-74312618D01*
X89454488Y-74343814D01*
X89438407Y-74365601D01*
X89424197Y-74393492D01*
X89399866Y-74417822D01*
X89382013Y-74442013D01*
X89357822Y-74459866D01*
X89333492Y-74484197D01*
X89305601Y-74498407D01*
X89283814Y-74514488D01*
X89252618Y-74525404D01*
X89219197Y-74542433D01*
X89191348Y-74546843D01*
X89167271Y-74555269D01*
X89095914Y-74561959D01*
X89092500Y-74562500D01*
X88467500Y-74562500D01*
X88464085Y-74561959D01*
X88392728Y-74555269D01*
X88368649Y-74546843D01*
X88340803Y-74542433D01*
X88307383Y-74525405D01*
X88276185Y-74514488D01*
X88254395Y-74498406D01*
X88226508Y-74484197D01*
X88202180Y-74459869D01*
X88177986Y-74442013D01*
X88160129Y-74417818D01*
X88135803Y-74393492D01*
X88121594Y-74365606D01*
X88105511Y-74343814D01*
X88094592Y-74312611D01*
X88077567Y-74279197D01*
X88073156Y-74251353D01*
X88064730Y-74227271D01*
X88058038Y-74155899D01*
X88057500Y-74152500D01*
X88057500Y-72902500D01*
X88058038Y-72899101D01*
X88064730Y-72827728D01*
X88073157Y-72803644D01*
X88077567Y-72775803D01*
X88094591Y-72742390D01*
X88105511Y-72711185D01*
X88121596Y-72689390D01*
X88135803Y-72661508D01*
X88160126Y-72637184D01*
X88177986Y-72612986D01*
X88202184Y-72595126D01*
X88226508Y-72570803D01*
X88254390Y-72556596D01*
X88276185Y-72540511D01*
X88307390Y-72529591D01*
X88340803Y-72512567D01*
X88368644Y-72508157D01*
X88392728Y-72499730D01*
X88464102Y-72493038D01*
X88467500Y-72492500D01*
X89092500Y-72492500D01*
X89095900Y-72493038D01*
G37*
G36*
X53772868Y-72640476D02*
G01*
X53943113Y-72710994D01*
X54096330Y-72813370D01*
X54226630Y-72943670D01*
X54329006Y-73096887D01*
X54399524Y-73267132D01*
X54435474Y-73447864D01*
X54435474Y-73632136D01*
X54399524Y-73812868D01*
X54329006Y-73983113D01*
X54226630Y-74136330D01*
X54096330Y-74266630D01*
X53943113Y-74369006D01*
X53772868Y-74439524D01*
X53592136Y-74475474D01*
X53407864Y-74475474D01*
X53227132Y-74439524D01*
X53056887Y-74369006D01*
X52903670Y-74266630D01*
X52773370Y-74136330D01*
X52670994Y-73983113D01*
X52600476Y-73812868D01*
X52564526Y-73632136D01*
X52564526Y-73447864D01*
X52600476Y-73267132D01*
X52670994Y-73096887D01*
X52773370Y-72943670D01*
X52903670Y-72813370D01*
X53056887Y-72710994D01*
X53227132Y-72640476D01*
X53407864Y-72604526D01*
X53592136Y-72604526D01*
X53772868Y-72640476D01*
G37*
G36*
X79172868Y-72640476D02*
G01*
X79343113Y-72710994D01*
X79496330Y-72813370D01*
X79626630Y-72943670D01*
X79729006Y-73096887D01*
X79799524Y-73267132D01*
X79835474Y-73447864D01*
X79835474Y-73632136D01*
X79799524Y-73812868D01*
X79729006Y-73983113D01*
X79626630Y-74136330D01*
X79496330Y-74266630D01*
X79343113Y-74369006D01*
X79172868Y-74439524D01*
X78992136Y-74475474D01*
X78807864Y-74475474D01*
X78627132Y-74439524D01*
X78456887Y-74369006D01*
X78303670Y-74266630D01*
X78173370Y-74136330D01*
X78070994Y-73983113D01*
X78000476Y-73812868D01*
X77964526Y-73632136D01*
X77964526Y-73447864D01*
X78000476Y-73267132D01*
X78070994Y-73096887D01*
X78173370Y-72943670D01*
X78303670Y-72813370D01*
X78456887Y-72710994D01*
X78627132Y-72640476D01*
X78807864Y-72604526D01*
X78992136Y-72604526D01*
X79172868Y-72640476D01*
G37*
G36*
X82653400Y-72818038D02*
G01*
X82724771Y-72824730D01*
X82748853Y-72833156D01*
X82776697Y-72837567D01*
X82810111Y-72854592D01*
X82841314Y-72865511D01*
X82863106Y-72881594D01*
X82890992Y-72895803D01*
X82915318Y-72920129D01*
X82939513Y-72937986D01*
X82957369Y-72962180D01*
X82981697Y-72986508D01*
X82995906Y-73014395D01*
X83011988Y-73036185D01*
X83022905Y-73067383D01*
X83039933Y-73100803D01*
X83044343Y-73128649D01*
X83052769Y-73152728D01*
X83059459Y-73224086D01*
X83060000Y-73227500D01*
X83060000Y-73852500D01*
X83059458Y-73855915D01*
X83052769Y-73927271D01*
X83044343Y-73951348D01*
X83039933Y-73979197D01*
X83022904Y-74012618D01*
X83011988Y-74043814D01*
X82995907Y-74065601D01*
X82981697Y-74093492D01*
X82957366Y-74117822D01*
X82939513Y-74142013D01*
X82915322Y-74159866D01*
X82890992Y-74184197D01*
X82863101Y-74198407D01*
X82841314Y-74214488D01*
X82810118Y-74225404D01*
X82776697Y-74242433D01*
X82748848Y-74246843D01*
X82724771Y-74255269D01*
X82653414Y-74261959D01*
X82650000Y-74262500D01*
X81400000Y-74262500D01*
X81396585Y-74261959D01*
X81325228Y-74255269D01*
X81301149Y-74246843D01*
X81273303Y-74242433D01*
X81239883Y-74225405D01*
X81208685Y-74214488D01*
X81186895Y-74198406D01*
X81159008Y-74184197D01*
X81134680Y-74159869D01*
X81110486Y-74142013D01*
X81092629Y-74117818D01*
X81068303Y-74093492D01*
X81054094Y-74065606D01*
X81038011Y-74043814D01*
X81027092Y-74012611D01*
X81010067Y-73979197D01*
X81005656Y-73951353D01*
X80997230Y-73927271D01*
X80990538Y-73855899D01*
X80990000Y-73852500D01*
X80990000Y-73227500D01*
X80990538Y-73224101D01*
X80997230Y-73152728D01*
X81005657Y-73128644D01*
X81010067Y-73100803D01*
X81027091Y-73067390D01*
X81038011Y-73036185D01*
X81054096Y-73014390D01*
X81068303Y-72986508D01*
X81092626Y-72962184D01*
X81110486Y-72937986D01*
X81134684Y-72920126D01*
X81159008Y-72895803D01*
X81186890Y-72881596D01*
X81208685Y-72865511D01*
X81239890Y-72854591D01*
X81273303Y-72837567D01*
X81301144Y-72833157D01*
X81325228Y-72824730D01*
X81396602Y-72818038D01*
X81400000Y-72817500D01*
X82650000Y-72817500D01*
X82653400Y-72818038D01*
G37*
G36*
X26002868Y-70140476D02*
G01*
X26173113Y-70210994D01*
X26326330Y-70313370D01*
X26456630Y-70443670D01*
X26559006Y-70596887D01*
X26629524Y-70767132D01*
X26665474Y-70947864D01*
X26665474Y-71132136D01*
X26629524Y-71312868D01*
X26559006Y-71483113D01*
X26456630Y-71636330D01*
X26326330Y-71766630D01*
X26173113Y-71869006D01*
X26002868Y-71939524D01*
X25822136Y-71975474D01*
X25637864Y-71975474D01*
X25457132Y-71939524D01*
X25286887Y-71869006D01*
X25133670Y-71766630D01*
X25003370Y-71636330D01*
X24900994Y-71483113D01*
X24830476Y-71312868D01*
X24794526Y-71132136D01*
X24794526Y-70947864D01*
X24830476Y-70767132D01*
X24900994Y-70596887D01*
X25003370Y-70443670D01*
X25133670Y-70313370D01*
X25286887Y-70210994D01*
X25457132Y-70140476D01*
X25637864Y-70104526D01*
X25822136Y-70104526D01*
X26002868Y-70140476D01*
G37*
G36*
X44302868Y-70140476D02*
G01*
X44473113Y-70210994D01*
X44626330Y-70313370D01*
X44756630Y-70443670D01*
X44859006Y-70596887D01*
X44929524Y-70767132D01*
X44965474Y-70947864D01*
X44965474Y-71132136D01*
X44929524Y-71312868D01*
X44859006Y-71483113D01*
X44756630Y-71636330D01*
X44626330Y-71766630D01*
X44473113Y-71869006D01*
X44302868Y-71939524D01*
X44122136Y-71975474D01*
X43937864Y-71975474D01*
X43757132Y-71939524D01*
X43586887Y-71869006D01*
X43433670Y-71766630D01*
X43303370Y-71636330D01*
X43200994Y-71483113D01*
X43130476Y-71312868D01*
X43094526Y-71132136D01*
X43094526Y-70947864D01*
X43130476Y-70767132D01*
X43200994Y-70596887D01*
X43303370Y-70443670D01*
X43433670Y-70313370D01*
X43586887Y-70210994D01*
X43757132Y-70140476D01*
X43937864Y-70104526D01*
X44122136Y-70104526D01*
X44302868Y-70140476D01*
G37*
G36*
X53772868Y-70100476D02*
G01*
X53943113Y-70170994D01*
X54096330Y-70273370D01*
X54226630Y-70403670D01*
X54329006Y-70556887D01*
X54399524Y-70727132D01*
X54435474Y-70907864D01*
X54435474Y-71092136D01*
X54399524Y-71272868D01*
X54329006Y-71443113D01*
X54226630Y-71596330D01*
X54096330Y-71726630D01*
X53943113Y-71829006D01*
X53772868Y-71899524D01*
X53592136Y-71935474D01*
X53407864Y-71935474D01*
X53227132Y-71899524D01*
X53056887Y-71829006D01*
X52903670Y-71726630D01*
X52773370Y-71596330D01*
X52670994Y-71443113D01*
X52600476Y-71272868D01*
X52564526Y-71092136D01*
X52564526Y-70907864D01*
X52600476Y-70727132D01*
X52670994Y-70556887D01*
X52773370Y-70403670D01*
X52903670Y-70273370D01*
X53056887Y-70170994D01*
X53227132Y-70100476D01*
X53407864Y-70064526D01*
X53592136Y-70064526D01*
X53772868Y-70100476D01*
G37*
G36*
X79172868Y-70100476D02*
G01*
X79343113Y-70170994D01*
X79496330Y-70273370D01*
X79626630Y-70403670D01*
X79729006Y-70556887D01*
X79799524Y-70727132D01*
X79835474Y-70907864D01*
X79835474Y-71092136D01*
X79799524Y-71272868D01*
X79729006Y-71443113D01*
X79626630Y-71596330D01*
X79496330Y-71726630D01*
X79343113Y-71829006D01*
X79172868Y-71899524D01*
X78992136Y-71935474D01*
X78807864Y-71935474D01*
X78627132Y-71899524D01*
X78456887Y-71829006D01*
X78303670Y-71726630D01*
X78173370Y-71596330D01*
X78070994Y-71443113D01*
X78000476Y-71272868D01*
X77964526Y-71092136D01*
X77964526Y-70907864D01*
X78000476Y-70727132D01*
X78070994Y-70556887D01*
X78173370Y-70403670D01*
X78303670Y-70273370D01*
X78456887Y-70170994D01*
X78627132Y-70100476D01*
X78807864Y-70064526D01*
X78992136Y-70064526D01*
X79172868Y-70100476D01*
G37*
G36*
X26002868Y-67600476D02*
G01*
X26173113Y-67670994D01*
X26326330Y-67773370D01*
X26456630Y-67903670D01*
X26559006Y-68056887D01*
X26629524Y-68227132D01*
X26665474Y-68407864D01*
X26665474Y-68592136D01*
X26629524Y-68772868D01*
X26559006Y-68943113D01*
X26456630Y-69096330D01*
X26326330Y-69226630D01*
X26173113Y-69329006D01*
X26002868Y-69399524D01*
X25822136Y-69435474D01*
X25637864Y-69435474D01*
X25457132Y-69399524D01*
X25286887Y-69329006D01*
X25133670Y-69226630D01*
X25003370Y-69096330D01*
X24900994Y-68943113D01*
X24830476Y-68772868D01*
X24794526Y-68592136D01*
X24794526Y-68407864D01*
X24830476Y-68227132D01*
X24900994Y-68056887D01*
X25003370Y-67903670D01*
X25133670Y-67773370D01*
X25286887Y-67670994D01*
X25457132Y-67600476D01*
X25637864Y-67564526D01*
X25822136Y-67564526D01*
X26002868Y-67600476D01*
G37*
G36*
X44302868Y-67600476D02*
G01*
X44473113Y-67670994D01*
X44626330Y-67773370D01*
X44756630Y-67903670D01*
X44859006Y-68056887D01*
X44929524Y-68227132D01*
X44965474Y-68407864D01*
X44965474Y-68592136D01*
X44929524Y-68772868D01*
X44859006Y-68943113D01*
X44756630Y-69096330D01*
X44626330Y-69226630D01*
X44473113Y-69329006D01*
X44302868Y-69399524D01*
X44122136Y-69435474D01*
X43937864Y-69435474D01*
X43757132Y-69399524D01*
X43586887Y-69329006D01*
X43433670Y-69226630D01*
X43303370Y-69096330D01*
X43200994Y-68943113D01*
X43130476Y-68772868D01*
X43094526Y-68592136D01*
X43094526Y-68407864D01*
X43130476Y-68227132D01*
X43200994Y-68056887D01*
X43303370Y-67903670D01*
X43433670Y-67773370D01*
X43586887Y-67670994D01*
X43757132Y-67600476D01*
X43937864Y-67564526D01*
X44122136Y-67564526D01*
X44302868Y-67600476D01*
G37*
G36*
X53772868Y-67560476D02*
G01*
X53943113Y-67630994D01*
X54096330Y-67733370D01*
X54226630Y-67863670D01*
X54329006Y-68016887D01*
X54399524Y-68187132D01*
X54435474Y-68367864D01*
X54435474Y-68552136D01*
X54399524Y-68732868D01*
X54329006Y-68903113D01*
X54226630Y-69056330D01*
X54096330Y-69186630D01*
X53943113Y-69289006D01*
X53772868Y-69359524D01*
X53592136Y-69395474D01*
X53407864Y-69395474D01*
X53227132Y-69359524D01*
X53056887Y-69289006D01*
X52903670Y-69186630D01*
X52773370Y-69056330D01*
X52670994Y-68903113D01*
X52600476Y-68732868D01*
X52564526Y-68552136D01*
X52564526Y-68367864D01*
X52600476Y-68187132D01*
X52670994Y-68016887D01*
X52773370Y-67863670D01*
X52903670Y-67733370D01*
X53056887Y-67630994D01*
X53227132Y-67560476D01*
X53407864Y-67524526D01*
X53592136Y-67524526D01*
X53772868Y-67560476D01*
G37*
G36*
X79172868Y-67560476D02*
G01*
X79343113Y-67630994D01*
X79496330Y-67733370D01*
X79626630Y-67863670D01*
X79729006Y-68016887D01*
X79799524Y-68187132D01*
X79835474Y-68367864D01*
X79835474Y-68552136D01*
X79799524Y-68732868D01*
X79729006Y-68903113D01*
X79626630Y-69056330D01*
X79496330Y-69186630D01*
X79343113Y-69289006D01*
X79172868Y-69359524D01*
X78992136Y-69395474D01*
X78807864Y-69395474D01*
X78627132Y-69359524D01*
X78456887Y-69289006D01*
X78303670Y-69186630D01*
X78173370Y-69056330D01*
X78070994Y-68903113D01*
X78000476Y-68732868D01*
X77964526Y-68552136D01*
X77964526Y-68367864D01*
X78000476Y-68187132D01*
X78070994Y-68016887D01*
X78173370Y-67863670D01*
X78303670Y-67733370D01*
X78456887Y-67630994D01*
X78627132Y-67560476D01*
X78807864Y-67524526D01*
X78992136Y-67524526D01*
X79172868Y-67560476D01*
G37*
G36*
X53772868Y-65020476D02*
G01*
X53943113Y-65090994D01*
X54096330Y-65193370D01*
X54226630Y-65323670D01*
X54329006Y-65476887D01*
X54399524Y-65647132D01*
X54435474Y-65827864D01*
X54435474Y-66012136D01*
X54399524Y-66192868D01*
X54329006Y-66363113D01*
X54226630Y-66516330D01*
X54096330Y-66646630D01*
X53943113Y-66749006D01*
X53772868Y-66819524D01*
X53592136Y-66855474D01*
X53407864Y-66855474D01*
X53227132Y-66819524D01*
X53056887Y-66749006D01*
X52903670Y-66646630D01*
X52773370Y-66516330D01*
X52670994Y-66363113D01*
X52600476Y-66192868D01*
X52564526Y-66012136D01*
X52564526Y-65827864D01*
X52600476Y-65647132D01*
X52670994Y-65476887D01*
X52773370Y-65323670D01*
X52903670Y-65193370D01*
X53056887Y-65090994D01*
X53227132Y-65020476D01*
X53407864Y-64984526D01*
X53592136Y-64984526D01*
X53772868Y-65020476D01*
G37*
G36*
X79172868Y-65020476D02*
G01*
X79343113Y-65090994D01*
X79496330Y-65193370D01*
X79626630Y-65323670D01*
X79729006Y-65476887D01*
X79799524Y-65647132D01*
X79835474Y-65827864D01*
X79835474Y-66012136D01*
X79799524Y-66192868D01*
X79729006Y-66363113D01*
X79626630Y-66516330D01*
X79496330Y-66646630D01*
X79343113Y-66749006D01*
X79172868Y-66819524D01*
X78992136Y-66855474D01*
X78807864Y-66855474D01*
X78627132Y-66819524D01*
X78456887Y-66749006D01*
X78303670Y-66646630D01*
X78173370Y-66516330D01*
X78070994Y-66363113D01*
X78000476Y-66192868D01*
X77964526Y-66012136D01*
X77964526Y-65827864D01*
X78000476Y-65647132D01*
X78070994Y-65476887D01*
X78173370Y-65323670D01*
X78303670Y-65193370D01*
X78456887Y-65090994D01*
X78627132Y-65020476D01*
X78807864Y-64984526D01*
X78992136Y-64984526D01*
X79172868Y-65020476D01*
G37*
G36*
X53772868Y-62480476D02*
G01*
X53943113Y-62550994D01*
X54096330Y-62653370D01*
X54226630Y-62783670D01*
X54329006Y-62936887D01*
X54399524Y-63107132D01*
X54435474Y-63287864D01*
X54435474Y-63472136D01*
X54399524Y-63652868D01*
X54329006Y-63823113D01*
X54226630Y-63976330D01*
X54096330Y-64106630D01*
X53943113Y-64209006D01*
X53772868Y-64279524D01*
X53592136Y-64315474D01*
X53407864Y-64315474D01*
X53227132Y-64279524D01*
X53056887Y-64209006D01*
X52903670Y-64106630D01*
X52773370Y-63976330D01*
X52670994Y-63823113D01*
X52600476Y-63652868D01*
X52564526Y-63472136D01*
X52564526Y-63287864D01*
X52600476Y-63107132D01*
X52670994Y-62936887D01*
X52773370Y-62783670D01*
X52903670Y-62653370D01*
X53056887Y-62550994D01*
X53227132Y-62480476D01*
X53407864Y-62444526D01*
X53592136Y-62444526D01*
X53772868Y-62480476D01*
G37*
G36*
X79172868Y-62480476D02*
G01*
X79343113Y-62550994D01*
X79496330Y-62653370D01*
X79626630Y-62783670D01*
X79729006Y-62936887D01*
X79799524Y-63107132D01*
X79835474Y-63287864D01*
X79835474Y-63472136D01*
X79799524Y-63652868D01*
X79729006Y-63823113D01*
X79626630Y-63976330D01*
X79496330Y-64106630D01*
X79343113Y-64209006D01*
X79172868Y-64279524D01*
X78992136Y-64315474D01*
X78807864Y-64315474D01*
X78627132Y-64279524D01*
X78456887Y-64209006D01*
X78303670Y-64106630D01*
X78173370Y-63976330D01*
X78070994Y-63823113D01*
X78000476Y-63652868D01*
X77964526Y-63472136D01*
X77964526Y-63287864D01*
X78000476Y-63107132D01*
X78070994Y-62936887D01*
X78173370Y-62783670D01*
X78303670Y-62653370D01*
X78456887Y-62550994D01*
X78627132Y-62480476D01*
X78807864Y-62444526D01*
X78992136Y-62444526D01*
X79172868Y-62480476D01*
G37*
G36*
X27531163Y-59564586D02*
G01*
X27758591Y-59625526D01*
X27976120Y-59715629D01*
X28180026Y-59833355D01*
X28366822Y-59976688D01*
X28533312Y-60143178D01*
X28676645Y-60329974D01*
X28794371Y-60533880D01*
X28884474Y-60751409D01*
X28945414Y-60978837D01*
X28976146Y-61212274D01*
X28976146Y-61447726D01*
X28945414Y-61681163D01*
X28884474Y-61908591D01*
X28794371Y-62126120D01*
X28676645Y-62330026D01*
X28533312Y-62516822D01*
X28366822Y-62683312D01*
X28180026Y-62826645D01*
X27976120Y-62944371D01*
X27758591Y-63034474D01*
X27531163Y-63095414D01*
X27297726Y-63126146D01*
X27062274Y-63126146D01*
X26828837Y-63095414D01*
X26601409Y-63034474D01*
X26383880Y-62944371D01*
X26179974Y-62826645D01*
X25993178Y-62683312D01*
X25826688Y-62516822D01*
X25683355Y-62330026D01*
X25565629Y-62126120D01*
X25475526Y-61908591D01*
X25414586Y-61681163D01*
X25383854Y-61447726D01*
X25383854Y-61212274D01*
X25414586Y-60978837D01*
X25475526Y-60751409D01*
X25565629Y-60533880D01*
X25683355Y-60329974D01*
X25826688Y-60143178D01*
X25993178Y-59976688D01*
X26179974Y-59833355D01*
X26383880Y-59715629D01*
X26601409Y-59625526D01*
X26828837Y-59564586D01*
X27062274Y-59533854D01*
X27297726Y-59533854D01*
X27531163Y-59564586D01*
G37*
G36*
X47851163Y-59564586D02*
G01*
X48078591Y-59625526D01*
X48296120Y-59715629D01*
X48500026Y-59833355D01*
X48686822Y-59976688D01*
X48853312Y-60143178D01*
X48996645Y-60329974D01*
X49114371Y-60533880D01*
X49204474Y-60751409D01*
X49265414Y-60978837D01*
X49296146Y-61212274D01*
X49296146Y-61447726D01*
X49265414Y-61681163D01*
X49204474Y-61908591D01*
X49114371Y-62126120D01*
X48996645Y-62330026D01*
X48853312Y-62516822D01*
X48686822Y-62683312D01*
X48500026Y-62826645D01*
X48296120Y-62944371D01*
X48078591Y-63034474D01*
X47851163Y-63095414D01*
X47617726Y-63126146D01*
X47382274Y-63126146D01*
X47148837Y-63095414D01*
X46921409Y-63034474D01*
X46703880Y-62944371D01*
X46499974Y-62826645D01*
X46313178Y-62683312D01*
X46146688Y-62516822D01*
X46003355Y-62330026D01*
X45885629Y-62126120D01*
X45795526Y-61908591D01*
X45734586Y-61681163D01*
X45703854Y-61447726D01*
X45703854Y-61212274D01*
X45734586Y-60978837D01*
X45795526Y-60751409D01*
X45885629Y-60533880D01*
X46003355Y-60329974D01*
X46146688Y-60143178D01*
X46313178Y-59976688D01*
X46499974Y-59833355D01*
X46703880Y-59715629D01*
X46921409Y-59625526D01*
X47148837Y-59564586D01*
X47382274Y-59533854D01*
X47617726Y-59533854D01*
X47851163Y-59564586D01*
G37*
G36*
X32532868Y-60430476D02*
G01*
X32703113Y-60500994D01*
X32856330Y-60603370D01*
X32986630Y-60733670D01*
X33089006Y-60886887D01*
X33159524Y-61057132D01*
X33195474Y-61237864D01*
X33195474Y-61422136D01*
X33159524Y-61602868D01*
X33089006Y-61773113D01*
X32986630Y-61926330D01*
X32856330Y-62056630D01*
X32703113Y-62159006D01*
X32532868Y-62229524D01*
X32352136Y-62265474D01*
X32167864Y-62265474D01*
X31987132Y-62229524D01*
X31816887Y-62159006D01*
X31663670Y-62056630D01*
X31533370Y-61926330D01*
X31430994Y-61773113D01*
X31360476Y-61602868D01*
X31324526Y-61422136D01*
X31324526Y-61237864D01*
X31360476Y-61057132D01*
X31430994Y-60886887D01*
X31533370Y-60733670D01*
X31663670Y-60603370D01*
X31816887Y-60500994D01*
X31987132Y-60430476D01*
X32167864Y-60394526D01*
X32352136Y-60394526D01*
X32532868Y-60430476D01*
G37*
G36*
X35072868Y-60430476D02*
G01*
X35243113Y-60500994D01*
X35396330Y-60603370D01*
X35526630Y-60733670D01*
X35629006Y-60886887D01*
X35699524Y-61057132D01*
X35735474Y-61237864D01*
X35735474Y-61422136D01*
X35699524Y-61602868D01*
X35629006Y-61773113D01*
X35526630Y-61926330D01*
X35396330Y-62056630D01*
X35243113Y-62159006D01*
X35072868Y-62229524D01*
X34892136Y-62265474D01*
X34707864Y-62265474D01*
X34527132Y-62229524D01*
X34356887Y-62159006D01*
X34203670Y-62056630D01*
X34073370Y-61926330D01*
X33970994Y-61773113D01*
X33900476Y-61602868D01*
X33864526Y-61422136D01*
X33864526Y-61237864D01*
X33900476Y-61057132D01*
X33970994Y-60886887D01*
X34073370Y-60733670D01*
X34203670Y-60603370D01*
X34356887Y-60500994D01*
X34527132Y-60430476D01*
X34707864Y-60394526D01*
X34892136Y-60394526D01*
X35072868Y-60430476D01*
G37*
G36*
X37612868Y-60430476D02*
G01*
X37783113Y-60500994D01*
X37936330Y-60603370D01*
X38066630Y-60733670D01*
X38169006Y-60886887D01*
X38239524Y-61057132D01*
X38275474Y-61237864D01*
X38275474Y-61422136D01*
X38239524Y-61602868D01*
X38169006Y-61773113D01*
X38066630Y-61926330D01*
X37936330Y-62056630D01*
X37783113Y-62159006D01*
X37612868Y-62229524D01*
X37432136Y-62265474D01*
X37247864Y-62265474D01*
X37067132Y-62229524D01*
X36896887Y-62159006D01*
X36743670Y-62056630D01*
X36613370Y-61926330D01*
X36510994Y-61773113D01*
X36440476Y-61602868D01*
X36404526Y-61422136D01*
X36404526Y-61237864D01*
X36440476Y-61057132D01*
X36510994Y-60886887D01*
X36613370Y-60733670D01*
X36743670Y-60603370D01*
X36896887Y-60500994D01*
X37067132Y-60430476D01*
X37247864Y-60394526D01*
X37432136Y-60394526D01*
X37612868Y-60430476D01*
G37*
G36*
X40152868Y-60430476D02*
G01*
X40323113Y-60500994D01*
X40476330Y-60603370D01*
X40606630Y-60733670D01*
X40709006Y-60886887D01*
X40779524Y-61057132D01*
X40815474Y-61237864D01*
X40815474Y-61422136D01*
X40779524Y-61602868D01*
X40709006Y-61773113D01*
X40606630Y-61926330D01*
X40476330Y-62056630D01*
X40323113Y-62159006D01*
X40152868Y-62229524D01*
X39972136Y-62265474D01*
X39787864Y-62265474D01*
X39607132Y-62229524D01*
X39436887Y-62159006D01*
X39283670Y-62056630D01*
X39153370Y-61926330D01*
X39050994Y-61773113D01*
X38980476Y-61602868D01*
X38944526Y-61422136D01*
X38944526Y-61237864D01*
X38980476Y-61057132D01*
X39050994Y-60886887D01*
X39153370Y-60733670D01*
X39283670Y-60603370D01*
X39436887Y-60500994D01*
X39607132Y-60430476D01*
X39787864Y-60394526D01*
X39972136Y-60394526D01*
X40152868Y-60430476D01*
G37*
G36*
X42692868Y-60430476D02*
G01*
X42863113Y-60500994D01*
X43016330Y-60603370D01*
X43146630Y-60733670D01*
X43249006Y-60886887D01*
X43319524Y-61057132D01*
X43355474Y-61237864D01*
X43355474Y-61422136D01*
X43319524Y-61602868D01*
X43249006Y-61773113D01*
X43146630Y-61926330D01*
X43016330Y-62056630D01*
X42863113Y-62159006D01*
X42692868Y-62229524D01*
X42512136Y-62265474D01*
X42327864Y-62265474D01*
X42147132Y-62229524D01*
X41976887Y-62159006D01*
X41823670Y-62056630D01*
X41693370Y-61926330D01*
X41590994Y-61773113D01*
X41520476Y-61602868D01*
X41484526Y-61422136D01*
X41484526Y-61237864D01*
X41520476Y-61057132D01*
X41590994Y-60886887D01*
X41693370Y-60733670D01*
X41823670Y-60603370D01*
X41976887Y-60500994D01*
X42147132Y-60430476D01*
X42327864Y-60394526D01*
X42512136Y-60394526D01*
X42692868Y-60430476D01*
G37*
G36*
X53772868Y-59940476D02*
G01*
X53943113Y-60010994D01*
X54096330Y-60113370D01*
X54226630Y-60243670D01*
X54329006Y-60396887D01*
X54399524Y-60567132D01*
X54435474Y-60747864D01*
X54435474Y-60932136D01*
X54399524Y-61112868D01*
X54329006Y-61283113D01*
X54226630Y-61436330D01*
X54096330Y-61566630D01*
X53943113Y-61669006D01*
X53772868Y-61739524D01*
X53592136Y-61775474D01*
X53407864Y-61775474D01*
X53227132Y-61739524D01*
X53056887Y-61669006D01*
X52903670Y-61566630D01*
X52773370Y-61436330D01*
X52670994Y-61283113D01*
X52600476Y-61112868D01*
X52564526Y-60932136D01*
X52564526Y-60747864D01*
X52600476Y-60567132D01*
X52670994Y-60396887D01*
X52773370Y-60243670D01*
X52903670Y-60113370D01*
X53056887Y-60010994D01*
X53227132Y-59940476D01*
X53407864Y-59904526D01*
X53592136Y-59904526D01*
X53772868Y-59940476D01*
G37*
G36*
X79172868Y-59940476D02*
G01*
X79343113Y-60010994D01*
X79496330Y-60113370D01*
X79626630Y-60243670D01*
X79729006Y-60396887D01*
X79799524Y-60567132D01*
X79835474Y-60747864D01*
X79835474Y-60932136D01*
X79799524Y-61112868D01*
X79729006Y-61283113D01*
X79626630Y-61436330D01*
X79496330Y-61566630D01*
X79343113Y-61669006D01*
X79172868Y-61739524D01*
X78992136Y-61775474D01*
X78807864Y-61775474D01*
X78627132Y-61739524D01*
X78456887Y-61669006D01*
X78303670Y-61566630D01*
X78173370Y-61436330D01*
X78070994Y-61283113D01*
X78000476Y-61112868D01*
X77964526Y-60932136D01*
X77964526Y-60747864D01*
X78000476Y-60567132D01*
X78070994Y-60396887D01*
X78173370Y-60243670D01*
X78303670Y-60113370D01*
X78456887Y-60010994D01*
X78627132Y-59940476D01*
X78807864Y-59904526D01*
X78992136Y-59904526D01*
X79172868Y-59940476D01*
G37*
G36*
X88928400Y-58153038D02*
G01*
X88999771Y-58159730D01*
X89023853Y-58168156D01*
X89051697Y-58172567D01*
X89085111Y-58189592D01*
X89116314Y-58200511D01*
X89138106Y-58216594D01*
X89165992Y-58230803D01*
X89190318Y-58255129D01*
X89214513Y-58272986D01*
X89232369Y-58297180D01*
X89256697Y-58321508D01*
X89270906Y-58349395D01*
X89286988Y-58371185D01*
X89297905Y-58402383D01*
X89314933Y-58435803D01*
X89319343Y-58463649D01*
X89327769Y-58487728D01*
X89334459Y-58559086D01*
X89335000Y-58562500D01*
X89335000Y-59287500D01*
X89334458Y-59290915D01*
X89327769Y-59362271D01*
X89319343Y-59386348D01*
X89314933Y-59414197D01*
X89297904Y-59447618D01*
X89286988Y-59478814D01*
X89270907Y-59500601D01*
X89256697Y-59528492D01*
X89232366Y-59552822D01*
X89214513Y-59577013D01*
X89190322Y-59594866D01*
X89165992Y-59619197D01*
X89138101Y-59633407D01*
X89116314Y-59649488D01*
X89085118Y-59660404D01*
X89051697Y-59677433D01*
X89023848Y-59681843D01*
X88999771Y-59690269D01*
X88928414Y-59696959D01*
X88925000Y-59697500D01*
X86075000Y-59697500D01*
X86071585Y-59696959D01*
X86000228Y-59690269D01*
X85976149Y-59681843D01*
X85948303Y-59677433D01*
X85914883Y-59660405D01*
X85883685Y-59649488D01*
X85861895Y-59633406D01*
X85834008Y-59619197D01*
X85809680Y-59594869D01*
X85785486Y-59577013D01*
X85767629Y-59552818D01*
X85743303Y-59528492D01*
X85729094Y-59500606D01*
X85713011Y-59478814D01*
X85702092Y-59447611D01*
X85685067Y-59414197D01*
X85680656Y-59386353D01*
X85672230Y-59362271D01*
X85665538Y-59290899D01*
X85665000Y-59287500D01*
X85665000Y-58562500D01*
X85665538Y-58559101D01*
X85672230Y-58487728D01*
X85680657Y-58463644D01*
X85685067Y-58435803D01*
X85702091Y-58402390D01*
X85713011Y-58371185D01*
X85729096Y-58349390D01*
X85743303Y-58321508D01*
X85767626Y-58297184D01*
X85785486Y-58272986D01*
X85809684Y-58255126D01*
X85834008Y-58230803D01*
X85861890Y-58216596D01*
X85883685Y-58200511D01*
X85914890Y-58189591D01*
X85948303Y-58172567D01*
X85976144Y-58168157D01*
X86000228Y-58159730D01*
X86071602Y-58153038D01*
X86075000Y-58152500D01*
X88925000Y-58152500D01*
X88928400Y-58153038D01*
G37*
G36*
X53772868Y-57400476D02*
G01*
X53943113Y-57470994D01*
X54096330Y-57573370D01*
X54226630Y-57703670D01*
X54329006Y-57856887D01*
X54399524Y-58027132D01*
X54435474Y-58207864D01*
X54435474Y-58392136D01*
X54399524Y-58572868D01*
X54329006Y-58743113D01*
X54226630Y-58896330D01*
X54096330Y-59026630D01*
X53943113Y-59129006D01*
X53772868Y-59199524D01*
X53592136Y-59235474D01*
X53407864Y-59235474D01*
X53227132Y-59199524D01*
X53056887Y-59129006D01*
X52903670Y-59026630D01*
X52773370Y-58896330D01*
X52670994Y-58743113D01*
X52600476Y-58572868D01*
X52564526Y-58392136D01*
X52564526Y-58207864D01*
X52600476Y-58027132D01*
X52670994Y-57856887D01*
X52773370Y-57703670D01*
X52903670Y-57573370D01*
X53056887Y-57470994D01*
X53227132Y-57400476D01*
X53407864Y-57364526D01*
X53592136Y-57364526D01*
X53772868Y-57400476D01*
G37*
G36*
X79172868Y-57400476D02*
G01*
X79343113Y-57470994D01*
X79496330Y-57573370D01*
X79626630Y-57703670D01*
X79729006Y-57856887D01*
X79799524Y-58027132D01*
X79835474Y-58207864D01*
X79835474Y-58392136D01*
X79799524Y-58572868D01*
X79729006Y-58743113D01*
X79626630Y-58896330D01*
X79496330Y-59026630D01*
X79343113Y-59129006D01*
X79172868Y-59199524D01*
X78992136Y-59235474D01*
X78807864Y-59235474D01*
X78627132Y-59199524D01*
X78456887Y-59129006D01*
X78303670Y-59026630D01*
X78173370Y-58896330D01*
X78070994Y-58743113D01*
X78000476Y-58572868D01*
X77964526Y-58392136D01*
X77964526Y-58207864D01*
X78000476Y-58027132D01*
X78070994Y-57856887D01*
X78173370Y-57703670D01*
X78303670Y-57573370D01*
X78456887Y-57470994D01*
X78627132Y-57400476D01*
X78807864Y-57364526D01*
X78992136Y-57364526D01*
X79172868Y-57400476D01*
G37*
G36*
X53772868Y-54860476D02*
G01*
X53943113Y-54930994D01*
X54096330Y-55033370D01*
X54226630Y-55163670D01*
X54329006Y-55316887D01*
X54399524Y-55487132D01*
X54435474Y-55667864D01*
X54435474Y-55852136D01*
X54399524Y-56032868D01*
X54329006Y-56203113D01*
X54226630Y-56356330D01*
X54096330Y-56486630D01*
X53943113Y-56589006D01*
X53772868Y-56659524D01*
X53592136Y-56695474D01*
X53407864Y-56695474D01*
X53227132Y-56659524D01*
X53056887Y-56589006D01*
X52903670Y-56486630D01*
X52773370Y-56356330D01*
X52670994Y-56203113D01*
X52600476Y-56032868D01*
X52564526Y-55852136D01*
X52564526Y-55667864D01*
X52600476Y-55487132D01*
X52670994Y-55316887D01*
X52773370Y-55163670D01*
X52903670Y-55033370D01*
X53056887Y-54930994D01*
X53227132Y-54860476D01*
X53407864Y-54824526D01*
X53592136Y-54824526D01*
X53772868Y-54860476D01*
G37*
G36*
X79172868Y-54860476D02*
G01*
X79343113Y-54930994D01*
X79496330Y-55033370D01*
X79626630Y-55163670D01*
X79729006Y-55316887D01*
X79799524Y-55487132D01*
X79835474Y-55667864D01*
X79835474Y-55852136D01*
X79799524Y-56032868D01*
X79729006Y-56203113D01*
X79626630Y-56356330D01*
X79496330Y-56486630D01*
X79343113Y-56589006D01*
X79172868Y-56659524D01*
X78992136Y-56695474D01*
X78807864Y-56695474D01*
X78627132Y-56659524D01*
X78456887Y-56589006D01*
X78303670Y-56486630D01*
X78173370Y-56356330D01*
X78070994Y-56203113D01*
X78000476Y-56032868D01*
X77964526Y-55852136D01*
X77964526Y-55667864D01*
X78000476Y-55487132D01*
X78070994Y-55316887D01*
X78173370Y-55163670D01*
X78303670Y-55033370D01*
X78456887Y-54930994D01*
X78627132Y-54860476D01*
X78807864Y-54824526D01*
X78992136Y-54824526D01*
X79172868Y-54860476D01*
G37*
G36*
X53772868Y-52320476D02*
G01*
X53943113Y-52390994D01*
X54096330Y-52493370D01*
X54226630Y-52623670D01*
X54329006Y-52776887D01*
X54399524Y-52947132D01*
X54435474Y-53127864D01*
X54435474Y-53312136D01*
X54399524Y-53492868D01*
X54329006Y-53663113D01*
X54226630Y-53816330D01*
X54096330Y-53946630D01*
X53943113Y-54049006D01*
X53772868Y-54119524D01*
X53592136Y-54155474D01*
X53407864Y-54155474D01*
X53227132Y-54119524D01*
X53056887Y-54049006D01*
X52903670Y-53946630D01*
X52773370Y-53816330D01*
X52670994Y-53663113D01*
X52600476Y-53492868D01*
X52564526Y-53312136D01*
X52564526Y-53127864D01*
X52600476Y-52947132D01*
X52670994Y-52776887D01*
X52773370Y-52623670D01*
X52903670Y-52493370D01*
X53056887Y-52390994D01*
X53227132Y-52320476D01*
X53407864Y-52284526D01*
X53592136Y-52284526D01*
X53772868Y-52320476D01*
G37*
G36*
X79172868Y-52320476D02*
G01*
X79343113Y-52390994D01*
X79496330Y-52493370D01*
X79626630Y-52623670D01*
X79729006Y-52776887D01*
X79799524Y-52947132D01*
X79835474Y-53127864D01*
X79835474Y-53312136D01*
X79799524Y-53492868D01*
X79729006Y-53663113D01*
X79626630Y-53816330D01*
X79496330Y-53946630D01*
X79343113Y-54049006D01*
X79172868Y-54119524D01*
X78992136Y-54155474D01*
X78807864Y-54155474D01*
X78627132Y-54119524D01*
X78456887Y-54049006D01*
X78303670Y-53946630D01*
X78173370Y-53816330D01*
X78070994Y-53663113D01*
X78000476Y-53492868D01*
X77964526Y-53312136D01*
X77964526Y-53127864D01*
X78000476Y-52947132D01*
X78070994Y-52776887D01*
X78173370Y-52623670D01*
X78303670Y-52493370D01*
X78456887Y-52390994D01*
X78627132Y-52320476D01*
X78807864Y-52284526D01*
X78992136Y-52284526D01*
X79172868Y-52320476D01*
G37*
G36*
X88928400Y-52228038D02*
G01*
X88999771Y-52234730D01*
X89023853Y-52243156D01*
X89051697Y-52247567D01*
X89085111Y-52264592D01*
X89116314Y-52275511D01*
X89138106Y-52291594D01*
X89165992Y-52305803D01*
X89190318Y-52330129D01*
X89214513Y-52347986D01*
X89232369Y-52372180D01*
X89256697Y-52396508D01*
X89270906Y-52424395D01*
X89286988Y-52446185D01*
X89297905Y-52477383D01*
X89314933Y-52510803D01*
X89319343Y-52538649D01*
X89327769Y-52562728D01*
X89334459Y-52634086D01*
X89335000Y-52637500D01*
X89335000Y-53362500D01*
X89334458Y-53365915D01*
X89327769Y-53437271D01*
X89319343Y-53461348D01*
X89314933Y-53489197D01*
X89297904Y-53522618D01*
X89286988Y-53553814D01*
X89270907Y-53575601D01*
X89256697Y-53603492D01*
X89232366Y-53627822D01*
X89214513Y-53652013D01*
X89190322Y-53669866D01*
X89165992Y-53694197D01*
X89138101Y-53708407D01*
X89116314Y-53724488D01*
X89085118Y-53735404D01*
X89051697Y-53752433D01*
X89023848Y-53756843D01*
X88999771Y-53765269D01*
X88928414Y-53771959D01*
X88925000Y-53772500D01*
X86075000Y-53772500D01*
X86071585Y-53771959D01*
X86000228Y-53765269D01*
X85976149Y-53756843D01*
X85948303Y-53752433D01*
X85914883Y-53735405D01*
X85883685Y-53724488D01*
X85861895Y-53708406D01*
X85834008Y-53694197D01*
X85809680Y-53669869D01*
X85785486Y-53652013D01*
X85767629Y-53627818D01*
X85743303Y-53603492D01*
X85729094Y-53575606D01*
X85713011Y-53553814D01*
X85702092Y-53522611D01*
X85685067Y-53489197D01*
X85680656Y-53461353D01*
X85672230Y-53437271D01*
X85665538Y-53365899D01*
X85665000Y-53362500D01*
X85665000Y-52637500D01*
X85665538Y-52634101D01*
X85672230Y-52562728D01*
X85680657Y-52538644D01*
X85685067Y-52510803D01*
X85702091Y-52477390D01*
X85713011Y-52446185D01*
X85729096Y-52424390D01*
X85743303Y-52396508D01*
X85767626Y-52372184D01*
X85785486Y-52347986D01*
X85809684Y-52330126D01*
X85834008Y-52305803D01*
X85861890Y-52291596D01*
X85883685Y-52275511D01*
X85914890Y-52264591D01*
X85948303Y-52247567D01*
X85976144Y-52243157D01*
X86000228Y-52234730D01*
X86071602Y-52228038D01*
X86075000Y-52227500D01*
X88925000Y-52227500D01*
X88928400Y-52228038D01*
G37*
G36*
X53772868Y-49780476D02*
G01*
X53943113Y-49850994D01*
X54096330Y-49953370D01*
X54226630Y-50083670D01*
X54329006Y-50236887D01*
X54399524Y-50407132D01*
X54435474Y-50587864D01*
X54435474Y-50772136D01*
X54399524Y-50952868D01*
X54329006Y-51123113D01*
X54226630Y-51276330D01*
X54096330Y-51406630D01*
X53943113Y-51509006D01*
X53772868Y-51579524D01*
X53592136Y-51615474D01*
X53407864Y-51615474D01*
X53227132Y-51579524D01*
X53056887Y-51509006D01*
X52903670Y-51406630D01*
X52773370Y-51276330D01*
X52670994Y-51123113D01*
X52600476Y-50952868D01*
X52564526Y-50772136D01*
X52564526Y-50587864D01*
X52600476Y-50407132D01*
X52670994Y-50236887D01*
X52773370Y-50083670D01*
X52903670Y-49953370D01*
X53056887Y-49850994D01*
X53227132Y-49780476D01*
X53407864Y-49744526D01*
X53592136Y-49744526D01*
X53772868Y-49780476D01*
G37*
G36*
X79172868Y-49780476D02*
G01*
X79343113Y-49850994D01*
X79496330Y-49953370D01*
X79626630Y-50083670D01*
X79729006Y-50236887D01*
X79799524Y-50407132D01*
X79835474Y-50587864D01*
X79835474Y-50772136D01*
X79799524Y-50952868D01*
X79729006Y-51123113D01*
X79626630Y-51276330D01*
X79496330Y-51406630D01*
X79343113Y-51509006D01*
X79172868Y-51579524D01*
X78992136Y-51615474D01*
X78807864Y-51615474D01*
X78627132Y-51579524D01*
X78456887Y-51509006D01*
X78303670Y-51406630D01*
X78173370Y-51276330D01*
X78070994Y-51123113D01*
X78000476Y-50952868D01*
X77964526Y-50772136D01*
X77964526Y-50587864D01*
X78000476Y-50407132D01*
X78070994Y-50236887D01*
X78173370Y-50083670D01*
X78303670Y-49953370D01*
X78456887Y-49850994D01*
X78627132Y-49780476D01*
X78807864Y-49744526D01*
X78992136Y-49744526D01*
X79172868Y-49780476D01*
G37*
G36*
X53772868Y-47240476D02*
G01*
X53943113Y-47310994D01*
X54096330Y-47413370D01*
X54226630Y-47543670D01*
X54329006Y-47696887D01*
X54399524Y-47867132D01*
X54435474Y-48047864D01*
X54435474Y-48232136D01*
X54399524Y-48412868D01*
X54329006Y-48583113D01*
X54226630Y-48736330D01*
X54096330Y-48866630D01*
X53943113Y-48969006D01*
X53772868Y-49039524D01*
X53592136Y-49075474D01*
X53407864Y-49075474D01*
X53227132Y-49039524D01*
X53056887Y-48969006D01*
X52903670Y-48866630D01*
X52773370Y-48736330D01*
X52670994Y-48583113D01*
X52600476Y-48412868D01*
X52564526Y-48232136D01*
X52564526Y-48047864D01*
X52600476Y-47867132D01*
X52670994Y-47696887D01*
X52773370Y-47543670D01*
X52903670Y-47413370D01*
X53056887Y-47310994D01*
X53227132Y-47240476D01*
X53407864Y-47204526D01*
X53592136Y-47204526D01*
X53772868Y-47240476D01*
G37*
G36*
X79172868Y-47240476D02*
G01*
X79343113Y-47310994D01*
X79496330Y-47413370D01*
X79626630Y-47543670D01*
X79729006Y-47696887D01*
X79799524Y-47867132D01*
X79835474Y-48047864D01*
X79835474Y-48232136D01*
X79799524Y-48412868D01*
X79729006Y-48583113D01*
X79626630Y-48736330D01*
X79496330Y-48866630D01*
X79343113Y-48969006D01*
X79172868Y-49039524D01*
X78992136Y-49075474D01*
X78807864Y-49075474D01*
X78627132Y-49039524D01*
X78456887Y-48969006D01*
X78303670Y-48866630D01*
X78173370Y-48736330D01*
X78070994Y-48583113D01*
X78000476Y-48412868D01*
X77964526Y-48232136D01*
X77964526Y-48047864D01*
X78000476Y-47867132D01*
X78070994Y-47696887D01*
X78173370Y-47543670D01*
X78303670Y-47413370D01*
X78456887Y-47310994D01*
X78627132Y-47240476D01*
X78807864Y-47204526D01*
X78992136Y-47204526D01*
X79172868Y-47240476D01*
G37*
G36*
X88116229Y-47072179D02*
G01*
X88168137Y-47106863D01*
X88202821Y-47158771D01*
X88215000Y-47220000D01*
X88215000Y-48780000D01*
X88202821Y-48841229D01*
X88168137Y-48893137D01*
X88116229Y-48927821D01*
X88055000Y-48940000D01*
X86495000Y-48940000D01*
X86433771Y-48927821D01*
X86381863Y-48893137D01*
X86347179Y-48841229D01*
X86335000Y-48780000D01*
X86335000Y-47220000D01*
X86347179Y-47158771D01*
X86381863Y-47106863D01*
X86433771Y-47072179D01*
X86495000Y-47060000D01*
X88055000Y-47060000D01*
X88116229Y-47072179D01*
G37*
G36*
X85007868Y-47100476D02*
G01*
X85178113Y-47170994D01*
X85331330Y-47273370D01*
X85461630Y-47403670D01*
X85564006Y-47556887D01*
X85634524Y-47727132D01*
X85670474Y-47907864D01*
X85670474Y-48092136D01*
X85634524Y-48272868D01*
X85564006Y-48443113D01*
X85461630Y-48596330D01*
X85331330Y-48726630D01*
X85178113Y-48829006D01*
X85007868Y-48899524D01*
X84827136Y-48935474D01*
X84642864Y-48935474D01*
X84462132Y-48899524D01*
X84291887Y-48829006D01*
X84138670Y-48726630D01*
X84008370Y-48596330D01*
X83905994Y-48443113D01*
X83835476Y-48272868D01*
X83799526Y-48092136D01*
X83799526Y-47907864D01*
X83835476Y-47727132D01*
X83905994Y-47556887D01*
X84008370Y-47403670D01*
X84138670Y-47273370D01*
X84291887Y-47170994D01*
X84462132Y-47100476D01*
X84642864Y-47064526D01*
X84827136Y-47064526D01*
X85007868Y-47100476D01*
G37*
G36*
X53772868Y-44700476D02*
G01*
X53943113Y-44770994D01*
X54096330Y-44873370D01*
X54226630Y-45003670D01*
X54329006Y-45156887D01*
X54399524Y-45327132D01*
X54435474Y-45507864D01*
X54435474Y-45692136D01*
X54399524Y-45872868D01*
X54329006Y-46043113D01*
X54226630Y-46196330D01*
X54096330Y-46326630D01*
X53943113Y-46429006D01*
X53772868Y-46499524D01*
X53592136Y-46535474D01*
X53407864Y-46535474D01*
X53227132Y-46499524D01*
X53056887Y-46429006D01*
X52903670Y-46326630D01*
X52773370Y-46196330D01*
X52670994Y-46043113D01*
X52600476Y-45872868D01*
X52564526Y-45692136D01*
X52564526Y-45507864D01*
X52600476Y-45327132D01*
X52670994Y-45156887D01*
X52773370Y-45003670D01*
X52903670Y-44873370D01*
X53056887Y-44770994D01*
X53227132Y-44700476D01*
X53407864Y-44664526D01*
X53592136Y-44664526D01*
X53772868Y-44700476D01*
G37*
G36*
X79172868Y-44700476D02*
G01*
X79343113Y-44770994D01*
X79496330Y-44873370D01*
X79626630Y-45003670D01*
X79729006Y-45156887D01*
X79799524Y-45327132D01*
X79835474Y-45507864D01*
X79835474Y-45692136D01*
X79799524Y-45872868D01*
X79729006Y-46043113D01*
X79626630Y-46196330D01*
X79496330Y-46326630D01*
X79343113Y-46429006D01*
X79172868Y-46499524D01*
X78992136Y-46535474D01*
X78807864Y-46535474D01*
X78627132Y-46499524D01*
X78456887Y-46429006D01*
X78303670Y-46326630D01*
X78173370Y-46196330D01*
X78070994Y-46043113D01*
X78000476Y-45872868D01*
X77964526Y-45692136D01*
X77964526Y-45507864D01*
X78000476Y-45327132D01*
X78070994Y-45156887D01*
X78173370Y-45003670D01*
X78303670Y-44873370D01*
X78456887Y-44770994D01*
X78627132Y-44700476D01*
X78807864Y-44664526D01*
X78992136Y-44664526D01*
X79172868Y-44700476D01*
G37*
G36*
X94300830Y-42710340D02*
G01*
X94518718Y-42781136D01*
X94722848Y-42885145D01*
X94908194Y-43019807D01*
X95070193Y-43181806D01*
X95204855Y-43367152D01*
X95308864Y-43571282D01*
X95379660Y-43789170D01*
X95415499Y-44015450D01*
X95415499Y-44244550D01*
X95379660Y-44470830D01*
X95308864Y-44688718D01*
X95204855Y-44892848D01*
X95070193Y-45078194D01*
X94908194Y-45240193D01*
X94722848Y-45374855D01*
X94518718Y-45478864D01*
X94300830Y-45549660D01*
X94074550Y-45585499D01*
X93845450Y-45585499D01*
X93619170Y-45549660D01*
X93401282Y-45478864D01*
X93197152Y-45374855D01*
X93011806Y-45240193D01*
X92849807Y-45078194D01*
X92715145Y-44892848D01*
X92611136Y-44688718D01*
X92540340Y-44470830D01*
X92504501Y-44244550D01*
X92504501Y-44015450D01*
X92540340Y-43789170D01*
X92611136Y-43571282D01*
X92715145Y-43367152D01*
X92849807Y-43181806D01*
X93011806Y-43019807D01*
X93197152Y-42885145D01*
X93401282Y-42781136D01*
X93619170Y-42710340D01*
X93845450Y-42674501D01*
X94074550Y-42674501D01*
X94300830Y-42710340D01*
G37*
G36*
X114380830Y-42710340D02*
G01*
X114598718Y-42781136D01*
X114802848Y-42885145D01*
X114988194Y-43019807D01*
X115150193Y-43181806D01*
X115284855Y-43367152D01*
X115388864Y-43571282D01*
X115459660Y-43789170D01*
X115495499Y-44015450D01*
X115495499Y-44244550D01*
X115459660Y-44470830D01*
X115388864Y-44688718D01*
X115284855Y-44892848D01*
X115150193Y-45078194D01*
X114988194Y-45240193D01*
X114802848Y-45374855D01*
X114598718Y-45478864D01*
X114380830Y-45549660D01*
X114154550Y-45585499D01*
X113925450Y-45585499D01*
X113699170Y-45549660D01*
X113481282Y-45478864D01*
X113277152Y-45374855D01*
X113091806Y-45240193D01*
X112929807Y-45078194D01*
X112795145Y-44892848D01*
X112691136Y-44688718D01*
X112620340Y-44470830D01*
X112584501Y-44244550D01*
X112584501Y-44015450D01*
X112620340Y-43789170D01*
X112691136Y-43571282D01*
X112795145Y-43367152D01*
X112929807Y-43181806D01*
X113091806Y-43019807D01*
X113277152Y-42885145D01*
X113481282Y-42781136D01*
X113699170Y-42710340D01*
X113925450Y-42674501D01*
X114154550Y-42674501D01*
X114380830Y-42710340D01*
G37*
G36*
X121890181Y-41538429D02*
G01*
X122142879Y-41606140D01*
X122384577Y-41706255D01*
X122611140Y-41837061D01*
X122818692Y-41996320D01*
X123003680Y-42181308D01*
X123162939Y-42388860D01*
X123293745Y-42615423D01*
X123393860Y-42857121D01*
X123461571Y-43109819D01*
X123495718Y-43369194D01*
X123495718Y-43630806D01*
X123461571Y-43890181D01*
X123393860Y-44142879D01*
X123293745Y-44384577D01*
X123162939Y-44611140D01*
X123003680Y-44818692D01*
X122818692Y-45003680D01*
X122611140Y-45162939D01*
X122384577Y-45293745D01*
X122142879Y-45393860D01*
X121890181Y-45461571D01*
X121630806Y-45495718D01*
X121369194Y-45495718D01*
X121109819Y-45461571D01*
X120857121Y-45393860D01*
X120615423Y-45293745D01*
X120388860Y-45162939D01*
X120181308Y-45003680D01*
X119996320Y-44818692D01*
X119837061Y-44611140D01*
X119706255Y-44384577D01*
X119606140Y-44142879D01*
X119538429Y-43890181D01*
X119504282Y-43630806D01*
X119504282Y-43369194D01*
X119538429Y-43109819D01*
X119606140Y-42857121D01*
X119706255Y-42615423D01*
X119837061Y-42388860D01*
X119996320Y-42181308D01*
X120181308Y-41996320D01*
X120388860Y-41837061D01*
X120615423Y-41706255D01*
X120857121Y-41606140D01*
X121109819Y-41538429D01*
X121369194Y-41504282D01*
X121630806Y-41504282D01*
X121890181Y-41538429D01*
G37*
G36*
X27531163Y-41784586D02*
G01*
X27758591Y-41845526D01*
X27976120Y-41935629D01*
X28180026Y-42053355D01*
X28366822Y-42196688D01*
X28533312Y-42363178D01*
X28676645Y-42549974D01*
X28794371Y-42753880D01*
X28884474Y-42971409D01*
X28945414Y-43198837D01*
X28976146Y-43432274D01*
X28976146Y-43667726D01*
X28945414Y-43901163D01*
X28884474Y-44128591D01*
X28794371Y-44346120D01*
X28676645Y-44550026D01*
X28533312Y-44736822D01*
X28366822Y-44903312D01*
X28180026Y-45046645D01*
X27976120Y-45164371D01*
X27758591Y-45254474D01*
X27531163Y-45315414D01*
X27297726Y-45346146D01*
X27062274Y-45346146D01*
X26828837Y-45315414D01*
X26601409Y-45254474D01*
X26383880Y-45164371D01*
X26179974Y-45046645D01*
X25993178Y-44903312D01*
X25826688Y-44736822D01*
X25683355Y-44550026D01*
X25565629Y-44346120D01*
X25475526Y-44128591D01*
X25414586Y-43901163D01*
X25383854Y-43667726D01*
X25383854Y-43432274D01*
X25414586Y-43198837D01*
X25475526Y-42971409D01*
X25565629Y-42753880D01*
X25683355Y-42549974D01*
X25826688Y-42363178D01*
X25993178Y-42196688D01*
X26179974Y-42053355D01*
X26383880Y-41935629D01*
X26601409Y-41845526D01*
X26828837Y-41784586D01*
X27062274Y-41753854D01*
X27297726Y-41753854D01*
X27531163Y-41784586D01*
G37*
G36*
X47851163Y-41784586D02*
G01*
X48078591Y-41845526D01*
X48296120Y-41935629D01*
X48500026Y-42053355D01*
X48686822Y-42196688D01*
X48853312Y-42363178D01*
X48996645Y-42549974D01*
X49114371Y-42753880D01*
X49204474Y-42971409D01*
X49265414Y-43198837D01*
X49296146Y-43432274D01*
X49296146Y-43667726D01*
X49265414Y-43901163D01*
X49204474Y-44128591D01*
X49114371Y-44346120D01*
X48996645Y-44550026D01*
X48853312Y-44736822D01*
X48686822Y-44903312D01*
X48500026Y-45046645D01*
X48296120Y-45164371D01*
X48078591Y-45254474D01*
X47851163Y-45315414D01*
X47617726Y-45346146D01*
X47382274Y-45346146D01*
X47148837Y-45315414D01*
X46921409Y-45254474D01*
X46703880Y-45164371D01*
X46499974Y-45046645D01*
X46313178Y-44903312D01*
X46146688Y-44736822D01*
X46003355Y-44550026D01*
X45885629Y-44346120D01*
X45795526Y-44128591D01*
X45734586Y-43901163D01*
X45703854Y-43667726D01*
X45703854Y-43432274D01*
X45734586Y-43198837D01*
X45795526Y-42971409D01*
X45885629Y-42753880D01*
X46003355Y-42549974D01*
X46146688Y-42363178D01*
X46313178Y-42196688D01*
X46499974Y-42053355D01*
X46703880Y-41935629D01*
X46921409Y-41845526D01*
X47148837Y-41784586D01*
X47382274Y-41753854D01*
X47617726Y-41753854D01*
X47851163Y-41784586D01*
G37*
%LPD*%
M02*
