%TF.GenerationSoftware,KiCad,Pcbnew,9.0.1*%
%TF.CreationDate,2025-07-20T02:37:13-05:00*%
%TF.ProjectId,Modulo CO2 de bus TM,4d6f6475-6c6f-4204-934f-322064652062,rev?*%
%TF.SameCoordinates,Original*%
%TF.FileFunction,Legend,Top*%
%TF.FilePolarity,Positive*%
%FSLAX46Y46*%
G04 Gerber Fmt 4.6, Leading zero omitted, Abs format (unit mm)*
G04 Created by KiCad (PCBNEW 9.0.1) date 2025-07-20 02:37:13*
%MOMM*%
%LPD*%
G01*
G04 APERTURE LIST*
%ADD10C,0.100000*%
%ADD11C,0.250000*%
%ADD12C,0.150000*%
%ADD13C,0.200000*%
%ADD14C,0.120000*%
%ADD15C,0.127000*%
%ADD16C,0.050000*%
G04 APERTURE END LIST*
D10*
X124000000Y-43500000D02*
G75*
G02*
X119000000Y-43500000I-2500000J0D01*
G01*
X119000000Y-43500000D02*
G75*
G02*
X124000000Y-43500000I2500000J0D01*
G01*
X29680000Y-101500000D02*
G75*
G02*
X24680000Y-101500000I-2500000J0D01*
G01*
X24680000Y-101500000D02*
G75*
G02*
X29680000Y-101500000I2500000J0D01*
G01*
X124000000Y-101500000D02*
G75*
G02*
X119000000Y-101500000I-2500000J0D01*
G01*
X119000000Y-101500000D02*
G75*
G02*
X124000000Y-101500000I2500000J0D01*
G01*
X119200200Y-94416667D02*
X119152580Y-94559524D01*
X119152580Y-94559524D02*
X119152580Y-94797619D01*
X119152580Y-94797619D02*
X119200200Y-94892857D01*
X119200200Y-94892857D02*
X119247819Y-94940476D01*
X119247819Y-94940476D02*
X119343057Y-94988095D01*
X119343057Y-94988095D02*
X119438295Y-94988095D01*
X119438295Y-94988095D02*
X119533533Y-94940476D01*
X119533533Y-94940476D02*
X119581152Y-94892857D01*
X119581152Y-94892857D02*
X119628771Y-94797619D01*
X119628771Y-94797619D02*
X119676390Y-94607143D01*
X119676390Y-94607143D02*
X119724009Y-94511905D01*
X119724009Y-94511905D02*
X119771628Y-94464286D01*
X119771628Y-94464286D02*
X119866866Y-94416667D01*
X119866866Y-94416667D02*
X119962104Y-94416667D01*
X119962104Y-94416667D02*
X120057342Y-94464286D01*
X120057342Y-94464286D02*
X120104961Y-94511905D01*
X120104961Y-94511905D02*
X120152580Y-94607143D01*
X120152580Y-94607143D02*
X120152580Y-94845238D01*
X120152580Y-94845238D02*
X120104961Y-94988095D01*
X120152580Y-95321429D02*
X119152580Y-95559524D01*
X119152580Y-95559524D02*
X119866866Y-95750000D01*
X119866866Y-95750000D02*
X119152580Y-95940476D01*
X119152580Y-95940476D02*
X120152580Y-96178572D01*
X119152580Y-97083333D02*
X119152580Y-96511905D01*
X119152580Y-96797619D02*
X120152580Y-96797619D01*
X120152580Y-96797619D02*
X120009723Y-96702381D01*
X120009723Y-96702381D02*
X119914485Y-96607143D01*
X119914485Y-96607143D02*
X119866866Y-96511905D01*
D11*
X43100000Y-85535836D02*
X43100000Y-86800122D01*
X43100000Y-86800122D02*
X43042857Y-87052979D01*
X43042857Y-87052979D02*
X42928571Y-87221551D01*
X42928571Y-87221551D02*
X42757143Y-87305836D01*
X42757143Y-87305836D02*
X42642857Y-87305836D01*
X43557143Y-85535836D02*
X44300000Y-85535836D01*
X44300000Y-85535836D02*
X43900000Y-86210122D01*
X43900000Y-86210122D02*
X44071429Y-86210122D01*
X44071429Y-86210122D02*
X44185715Y-86294408D01*
X44185715Y-86294408D02*
X44242857Y-86378693D01*
X44242857Y-86378693D02*
X44300000Y-86547265D01*
X44300000Y-86547265D02*
X44300000Y-86968693D01*
X44300000Y-86968693D02*
X44242857Y-87137265D01*
X44242857Y-87137265D02*
X44185715Y-87221551D01*
X44185715Y-87221551D02*
X44071429Y-87305836D01*
X44071429Y-87305836D02*
X43728572Y-87305836D01*
X43728572Y-87305836D02*
X43614286Y-87221551D01*
X43614286Y-87221551D02*
X43557143Y-87137265D01*
X76085714Y-97535836D02*
X76085714Y-98968693D01*
X76085714Y-98968693D02*
X76142857Y-99137265D01*
X76142857Y-99137265D02*
X76200000Y-99221551D01*
X76200000Y-99221551D02*
X76314285Y-99305836D01*
X76314285Y-99305836D02*
X76542857Y-99305836D01*
X76542857Y-99305836D02*
X76657142Y-99221551D01*
X76657142Y-99221551D02*
X76714285Y-99137265D01*
X76714285Y-99137265D02*
X76771428Y-98968693D01*
X76771428Y-98968693D02*
X76771428Y-97535836D01*
X77971428Y-99305836D02*
X77285714Y-99305836D01*
X77628571Y-99305836D02*
X77628571Y-97535836D01*
X77628571Y-97535836D02*
X77514285Y-97788693D01*
X77514285Y-97788693D02*
X77400000Y-97957265D01*
X77400000Y-97957265D02*
X77285714Y-98041551D01*
X48085714Y-74535836D02*
X48085714Y-75968693D01*
X48085714Y-75968693D02*
X48142857Y-76137265D01*
X48142857Y-76137265D02*
X48200000Y-76221551D01*
X48200000Y-76221551D02*
X48314285Y-76305836D01*
X48314285Y-76305836D02*
X48542857Y-76305836D01*
X48542857Y-76305836D02*
X48657142Y-76221551D01*
X48657142Y-76221551D02*
X48714285Y-76137265D01*
X48714285Y-76137265D02*
X48771428Y-75968693D01*
X48771428Y-75968693D02*
X48771428Y-74535836D01*
X49285714Y-74704408D02*
X49342857Y-74620122D01*
X49342857Y-74620122D02*
X49457143Y-74535836D01*
X49457143Y-74535836D02*
X49742857Y-74535836D01*
X49742857Y-74535836D02*
X49857143Y-74620122D01*
X49857143Y-74620122D02*
X49914285Y-74704408D01*
X49914285Y-74704408D02*
X49971428Y-74872979D01*
X49971428Y-74872979D02*
X49971428Y-75041551D01*
X49971428Y-75041551D02*
X49914285Y-75294408D01*
X49914285Y-75294408D02*
X49228571Y-76305836D01*
X49228571Y-76305836D02*
X49971428Y-76305836D01*
D12*
X28499048Y-69573866D02*
X29260953Y-69573866D01*
X40499048Y-81573866D02*
X41260953Y-81573866D01*
X40880000Y-81954819D02*
X40880000Y-81192914D01*
X28499048Y-81573866D02*
X29260953Y-81573866D01*
X28880000Y-81954819D02*
X28880000Y-81192914D01*
X40499048Y-69510366D02*
X41260953Y-69510366D01*
D13*
X85236905Y-44026238D02*
X85236905Y-42866238D01*
X85236905Y-42866238D02*
X85475000Y-42866238D01*
X85475000Y-42866238D02*
X85617857Y-42921476D01*
X85617857Y-42921476D02*
X85713095Y-43031952D01*
X85713095Y-43031952D02*
X85760714Y-43142428D01*
X85760714Y-43142428D02*
X85808333Y-43363380D01*
X85808333Y-43363380D02*
X85808333Y-43529095D01*
X85808333Y-43529095D02*
X85760714Y-43750047D01*
X85760714Y-43750047D02*
X85713095Y-43860523D01*
X85713095Y-43860523D02*
X85617857Y-43971000D01*
X85617857Y-43971000D02*
X85475000Y-44026238D01*
X85475000Y-44026238D02*
X85236905Y-44026238D01*
X86141667Y-42866238D02*
X86760714Y-42866238D01*
X86760714Y-42866238D02*
X86427381Y-43308142D01*
X86427381Y-43308142D02*
X86570238Y-43308142D01*
X86570238Y-43308142D02*
X86665476Y-43363380D01*
X86665476Y-43363380D02*
X86713095Y-43418619D01*
X86713095Y-43418619D02*
X86760714Y-43529095D01*
X86760714Y-43529095D02*
X86760714Y-43805285D01*
X86760714Y-43805285D02*
X86713095Y-43915761D01*
X86713095Y-43915761D02*
X86665476Y-43971000D01*
X86665476Y-43971000D02*
X86570238Y-44026238D01*
X86570238Y-44026238D02*
X86284524Y-44026238D01*
X86284524Y-44026238D02*
X86189286Y-43971000D01*
X86189286Y-43971000D02*
X86141667Y-43915761D01*
D11*
X92100000Y-97035836D02*
X92100000Y-98300122D01*
X92100000Y-98300122D02*
X92042857Y-98552979D01*
X92042857Y-98552979D02*
X91928571Y-98721551D01*
X91928571Y-98721551D02*
X91757143Y-98805836D01*
X91757143Y-98805836D02*
X91642857Y-98805836D01*
X92614286Y-97204408D02*
X92671429Y-97120122D01*
X92671429Y-97120122D02*
X92785715Y-97035836D01*
X92785715Y-97035836D02*
X93071429Y-97035836D01*
X93071429Y-97035836D02*
X93185715Y-97120122D01*
X93185715Y-97120122D02*
X93242857Y-97204408D01*
X93242857Y-97204408D02*
X93300000Y-97372979D01*
X93300000Y-97372979D02*
X93300000Y-97541551D01*
X93300000Y-97541551D02*
X93242857Y-97794408D01*
X93242857Y-97794408D02*
X92557143Y-98805836D01*
X92557143Y-98805836D02*
X93300000Y-98805836D01*
X82100000Y-97035836D02*
X82100000Y-98300122D01*
X82100000Y-98300122D02*
X82042857Y-98552979D01*
X82042857Y-98552979D02*
X81928571Y-98721551D01*
X81928571Y-98721551D02*
X81757143Y-98805836D01*
X81757143Y-98805836D02*
X81642857Y-98805836D01*
X83300000Y-98805836D02*
X82614286Y-98805836D01*
X82957143Y-98805836D02*
X82957143Y-97035836D01*
X82957143Y-97035836D02*
X82842857Y-97288693D01*
X82842857Y-97288693D02*
X82728572Y-97457265D01*
X82728572Y-97457265D02*
X82614286Y-97541551D01*
X117035836Y-48414285D02*
X118468693Y-48414285D01*
X118468693Y-48414285D02*
X118637265Y-48357142D01*
X118637265Y-48357142D02*
X118721551Y-48300000D01*
X118721551Y-48300000D02*
X118805836Y-48185714D01*
X118805836Y-48185714D02*
X118805836Y-47957142D01*
X118805836Y-47957142D02*
X118721551Y-47842857D01*
X118721551Y-47842857D02*
X118637265Y-47785714D01*
X118637265Y-47785714D02*
X118468693Y-47728571D01*
X118468693Y-47728571D02*
X117035836Y-47728571D01*
X117625836Y-46642857D02*
X118805836Y-46642857D01*
X116951551Y-46928571D02*
X118215836Y-47214285D01*
X118215836Y-47214285D02*
X118215836Y-46471428D01*
X31075734Y-98950000D02*
X30991449Y-98892857D01*
X30991449Y-98892857D02*
X30907163Y-98721429D01*
X30907163Y-98721429D02*
X30907163Y-98607143D01*
X30907163Y-98607143D02*
X30991449Y-98435714D01*
X30991449Y-98435714D02*
X31160020Y-98321429D01*
X31160020Y-98321429D02*
X31328591Y-98264286D01*
X31328591Y-98264286D02*
X31665734Y-98207143D01*
X31665734Y-98207143D02*
X31918591Y-98207143D01*
X31918591Y-98207143D02*
X32255734Y-98264286D01*
X32255734Y-98264286D02*
X32424306Y-98321429D01*
X32424306Y-98321429D02*
X32592877Y-98435714D01*
X32592877Y-98435714D02*
X32677163Y-98607143D01*
X32677163Y-98607143D02*
X32677163Y-98721429D01*
X32677163Y-98721429D02*
X32592877Y-98892857D01*
X32592877Y-98892857D02*
X32508591Y-98950000D01*
X30907163Y-100092857D02*
X30907163Y-99407143D01*
X30907163Y-99750000D02*
X32677163Y-99750000D01*
X32677163Y-99750000D02*
X32424306Y-99635714D01*
X32424306Y-99635714D02*
X32255734Y-99521429D01*
X32255734Y-99521429D02*
X32171449Y-99407143D01*
D13*
X24238095Y-64866238D02*
X24238095Y-65805285D01*
X24238095Y-65805285D02*
X24285714Y-65915761D01*
X24285714Y-65915761D02*
X24333333Y-65971000D01*
X24333333Y-65971000D02*
X24428571Y-66026238D01*
X24428571Y-66026238D02*
X24619047Y-66026238D01*
X24619047Y-66026238D02*
X24714285Y-65971000D01*
X24714285Y-65971000D02*
X24761904Y-65915761D01*
X24761904Y-65915761D02*
X24809523Y-65805285D01*
X24809523Y-65805285D02*
X24809523Y-64866238D01*
X25190476Y-64866238D02*
X25809523Y-64866238D01*
X25809523Y-64866238D02*
X25476190Y-65308142D01*
X25476190Y-65308142D02*
X25619047Y-65308142D01*
X25619047Y-65308142D02*
X25714285Y-65363380D01*
X25714285Y-65363380D02*
X25761904Y-65418619D01*
X25761904Y-65418619D02*
X25809523Y-65529095D01*
X25809523Y-65529095D02*
X25809523Y-65805285D01*
X25809523Y-65805285D02*
X25761904Y-65915761D01*
X25761904Y-65915761D02*
X25714285Y-65971000D01*
X25714285Y-65971000D02*
X25619047Y-66026238D01*
X25619047Y-66026238D02*
X25333333Y-66026238D01*
X25333333Y-66026238D02*
X25238095Y-65971000D01*
X25238095Y-65971000D02*
X25190476Y-65915761D01*
D14*
%TO.C,SW1*%
X117110000Y-89640000D02*
X115110000Y-89640000D01*
X117110000Y-89640000D02*
X117110000Y-101860000D01*
X112110000Y-89640000D02*
X110110000Y-89640000D01*
X107110000Y-89640000D02*
X104890000Y-89640000D01*
X117110000Y-101860000D02*
X115110000Y-101860000D01*
X112110000Y-101860000D02*
X110110000Y-101860000D01*
X107110000Y-101860000D02*
X104890000Y-101860000D01*
X104890000Y-101860000D02*
X104890000Y-89640000D01*
%TO.C,J3*%
X34800000Y-88600000D02*
X34800000Y-89900000D01*
X35100000Y-88900000D02*
X37100000Y-88900000D01*
X35100000Y-103400000D02*
X35100000Y-88900000D01*
X36500000Y-88600000D02*
X34800000Y-88600000D01*
X42300000Y-88900000D02*
X44300000Y-88900000D01*
X44300000Y-88900000D02*
X44300000Y-90200000D01*
X44300000Y-94800000D02*
X44300000Y-103400000D01*
X44300000Y-103400000D02*
X35100000Y-103400000D01*
D15*
%TO.C,U1*%
X52250000Y-41760000D02*
X80150000Y-41760000D01*
X52250000Y-96160000D02*
X52250000Y-41760000D01*
X62700000Y-96160000D02*
X52250000Y-96160000D01*
X62700000Y-96210000D02*
X62700000Y-97060000D01*
X62700000Y-97060000D02*
X69700000Y-97060000D01*
X69700000Y-97060000D02*
X69700000Y-96210000D01*
X80150000Y-41760000D02*
X80150000Y-96160000D01*
X80150000Y-96160000D02*
X69700000Y-96160000D01*
D13*
X51700000Y-49150000D02*
G75*
G02*
X51500000Y-49150000I-100000J0D01*
G01*
X51500000Y-49150000D02*
G75*
G02*
X51700000Y-49150000I100000J0D01*
G01*
%TO.C,U2*%
D10*
X23480000Y-66750000D02*
X46280000Y-66750000D01*
X46280000Y-84250000D01*
X23480000Y-84250000D01*
X23480000Y-66750000D01*
D14*
X29644641Y-69500000D02*
G75*
G02*
X28115359Y-69500000I-764641J0D01*
G01*
X28115359Y-69500000D02*
G75*
G02*
X29644641Y-69500000I764641J0D01*
G01*
X29644641Y-81500000D02*
G75*
G02*
X28115359Y-81500000I-764641J0D01*
G01*
X28115359Y-81500000D02*
G75*
G02*
X29644641Y-81500000I764641J0D01*
G01*
X41644641Y-69500000D02*
G75*
G02*
X40115359Y-69500000I-764641J0D01*
G01*
X40115359Y-69500000D02*
G75*
G02*
X41644641Y-69500000I764641J0D01*
G01*
X41644641Y-81500000D02*
G75*
G02*
X40115359Y-81500000I-764641J0D01*
G01*
X40115359Y-81500000D02*
G75*
G02*
X41644641Y-81500000I764641J0D01*
G01*
%TO.C,D3*%
X88565000Y-49545000D02*
X88565000Y-46455000D01*
X83015000Y-47999952D02*
G75*
G02*
X88565000Y-46455170I2990000J-48D01*
G01*
X88565000Y-49544830D02*
G75*
G02*
X83015000Y-48000048I-2560000J1544830D01*
G01*
X88505000Y-48000000D02*
G75*
G02*
X83505000Y-48000000I-2500000J0D01*
G01*
X83505000Y-48000000D02*
G75*
G02*
X88505000Y-48000000I2500000J0D01*
G01*
%TO.C,J2*%
D10*
X94050000Y-95125000D02*
X101450000Y-95125000D01*
X101450000Y-100875000D01*
X94050000Y-100875000D01*
X94050000Y-95125000D01*
%TO.C,J1*%
X83800000Y-95125000D02*
X91200000Y-95125000D01*
X91200000Y-100875000D01*
X83800000Y-100875000D01*
X83800000Y-95125000D01*
D14*
%TO.C,U4*%
X92000000Y-42000000D02*
X92000000Y-84000000D01*
X92000000Y-42000000D02*
X116000000Y-42000000D01*
X92000000Y-84000000D02*
X116000000Y-84000000D01*
X116000000Y-42000000D02*
X116000000Y-84000000D01*
D16*
X95460000Y-44130000D02*
G75*
G02*
X92460000Y-44130000I-1500000J0D01*
G01*
X92460000Y-44130000D02*
G75*
G02*
X95460000Y-44130000I1500000J0D01*
G01*
X95460000Y-81870000D02*
G75*
G02*
X92460000Y-81870000I-1500000J0D01*
G01*
X92460000Y-81870000D02*
G75*
G02*
X95460000Y-81870000I1500000J0D01*
G01*
X115540000Y-44130000D02*
G75*
G02*
X112540000Y-44130000I-1500000J0D01*
G01*
X112540000Y-44130000D02*
G75*
G02*
X115540000Y-44130000I1500000J0D01*
G01*
X115540000Y-81870000D02*
G75*
G02*
X112540000Y-81870000I-1500000J0D01*
G01*
X112540000Y-81870000D02*
G75*
G02*
X115540000Y-81870000I1500000J0D01*
G01*
D14*
%TO.C,C1*%
X27960000Y-92970000D02*
X24983000Y-92970000D01*
X27960000Y-93010000D02*
X24991000Y-93010000D01*
X27960000Y-93050000D02*
X24998000Y-93050000D01*
X27960000Y-93090000D02*
X25007000Y-93090000D01*
X27960000Y-93130000D02*
X25015000Y-93130000D01*
X27960000Y-93170000D02*
X25024000Y-93170000D01*
X27960000Y-93210000D02*
X25033000Y-93210000D01*
X27960000Y-93250000D02*
X25043000Y-93250000D01*
X27960000Y-93290000D02*
X25053000Y-93290000D01*
X27960000Y-93330000D02*
X25064000Y-93330000D01*
X27960000Y-93370000D02*
X25075000Y-93370000D01*
X27960000Y-93410000D02*
X25087000Y-93410000D01*
X27960000Y-93450000D02*
X25099000Y-93450000D01*
X27960000Y-93490000D02*
X25111000Y-93490000D01*
X27960000Y-93530000D02*
X25124000Y-93530000D01*
X27960000Y-93570000D02*
X25137000Y-93570000D01*
X27960000Y-93610000D02*
X25151000Y-93610000D01*
X27960000Y-93650000D02*
X25165000Y-93650000D01*
X27960000Y-93690000D02*
X25180000Y-93690000D01*
X27960000Y-93730000D02*
X25195000Y-93730000D01*
X27960000Y-93770000D02*
X25211000Y-93770000D01*
X27960000Y-93810000D02*
X25227000Y-93810000D01*
X27960000Y-93850000D02*
X25243000Y-93850000D01*
X27960000Y-93890000D02*
X25260000Y-93890000D01*
X27960000Y-93930000D02*
X25278000Y-93930000D01*
X27960000Y-93970000D02*
X25296000Y-93970000D01*
X27960000Y-94010000D02*
X25315000Y-94010000D01*
X27960000Y-94050000D02*
X25334000Y-94050000D01*
X27960000Y-94090000D02*
X25354000Y-94090000D01*
X27960000Y-94130000D02*
X25374000Y-94130000D01*
X27960000Y-94170000D02*
X25395000Y-94170000D01*
X27960000Y-94210000D02*
X25416000Y-94210000D01*
X27960000Y-94250000D02*
X25438000Y-94250000D01*
X27960000Y-94290000D02*
X25461000Y-94290000D01*
X27960000Y-94330000D02*
X25484000Y-94330000D01*
X27960000Y-94370000D02*
X25507000Y-94370000D01*
X27960000Y-94410000D02*
X25532000Y-94410000D01*
X27960000Y-94450000D02*
X25557000Y-94450000D01*
X27960000Y-94490000D02*
X25582000Y-94490000D01*
X27960000Y-94530000D02*
X25608000Y-94530000D01*
X27960000Y-94570000D02*
X25635000Y-94570000D01*
X27960000Y-94610000D02*
X25663000Y-94610000D01*
X27960000Y-94650000D02*
X25691000Y-94650000D01*
X27960000Y-94690000D02*
X25720000Y-94690000D01*
X27960000Y-94730000D02*
X25750000Y-94730000D01*
X27960000Y-94770000D02*
X25781000Y-94770000D01*
X27960000Y-94810000D02*
X25812000Y-94810000D01*
X27960000Y-94850000D02*
X25844000Y-94850000D01*
X27960000Y-94890000D02*
X25877000Y-94890000D01*
X27960000Y-94930000D02*
X25911000Y-94930000D01*
X27960000Y-94970000D02*
X25945000Y-94970000D01*
X27960000Y-95010000D02*
X25981000Y-95010000D01*
X29533000Y-96330000D02*
X28467000Y-96330000D01*
X29768000Y-96290000D02*
X28232000Y-96290000D01*
X29947000Y-96250000D02*
X28053000Y-96250000D01*
X30097000Y-96210000D02*
X27903000Y-96210000D01*
X30228000Y-96170000D02*
X27772000Y-96170000D01*
X30346000Y-96130000D02*
X27654000Y-96130000D01*
X30453000Y-96090000D02*
X27547000Y-96090000D01*
X30552000Y-96050000D02*
X27448000Y-96050000D01*
X30644000Y-96010000D02*
X27356000Y-96010000D01*
X30731000Y-95970000D02*
X27269000Y-95970000D01*
X30813000Y-95930000D02*
X27187000Y-95930000D01*
X30890000Y-95890000D02*
X27110000Y-95890000D01*
X30964000Y-95850000D02*
X27036000Y-95850000D01*
X31034000Y-95810000D02*
X26966000Y-95810000D01*
X31101000Y-95770000D02*
X26899000Y-95770000D01*
X31165000Y-95730000D02*
X26835000Y-95730000D01*
X31227000Y-95690000D02*
X26773000Y-95690000D01*
X31287000Y-95650000D02*
X26713000Y-95650000D01*
X31315000Y-87840302D02*
X31315000Y-88640302D01*
X31344000Y-95610000D02*
X26656000Y-95610000D01*
X31400000Y-95570000D02*
X26600000Y-95570000D01*
X31453000Y-95530000D02*
X26547000Y-95530000D01*
X31505000Y-95490000D02*
X26495000Y-95490000D01*
X31555000Y-95450000D02*
X26445000Y-95450000D01*
X31604000Y-95410000D02*
X26396000Y-95410000D01*
X31651000Y-95370000D02*
X26349000Y-95370000D01*
X31696000Y-95330000D02*
X26304000Y-95330000D01*
X31715000Y-88240302D02*
X30915000Y-88240302D01*
X31741000Y-95290000D02*
X26259000Y-95290000D01*
X31784000Y-95250000D02*
X26216000Y-95250000D01*
X31826000Y-95210000D02*
X26174000Y-95210000D01*
X31867000Y-95170000D02*
X26133000Y-95170000D01*
X31906000Y-95130000D02*
X26094000Y-95130000D01*
X31945000Y-95090000D02*
X26055000Y-95090000D01*
X31982000Y-95050000D02*
X26018000Y-95050000D01*
X32019000Y-95010000D02*
X30040000Y-95010000D01*
X32055000Y-94970000D02*
X30040000Y-94970000D01*
X32089000Y-94930000D02*
X30040000Y-94930000D01*
X32123000Y-94890000D02*
X30040000Y-94890000D01*
X32156000Y-94850000D02*
X30040000Y-94850000D01*
X32188000Y-94810000D02*
X30040000Y-94810000D01*
X32219000Y-94770000D02*
X30040000Y-94770000D01*
X32250000Y-94730000D02*
X30040000Y-94730000D01*
X32280000Y-94690000D02*
X30040000Y-94690000D01*
X32309000Y-94650000D02*
X30040000Y-94650000D01*
X32337000Y-94610000D02*
X30040000Y-94610000D01*
X32365000Y-94570000D02*
X30040000Y-94570000D01*
X32392000Y-94530000D02*
X30040000Y-94530000D01*
X32418000Y-94490000D02*
X30040000Y-94490000D01*
X32443000Y-94450000D02*
X30040000Y-94450000D01*
X32468000Y-94410000D02*
X30040000Y-94410000D01*
X32493000Y-94370000D02*
X30040000Y-94370000D01*
X32516000Y-94330000D02*
X30040000Y-94330000D01*
X32539000Y-94290000D02*
X30040000Y-94290000D01*
X32562000Y-94250000D02*
X30040000Y-94250000D01*
X32584000Y-94210000D02*
X30040000Y-94210000D01*
X32605000Y-94170000D02*
X30040000Y-94170000D01*
X32626000Y-94130000D02*
X30040000Y-94130000D01*
X32646000Y-94090000D02*
X30040000Y-94090000D01*
X32666000Y-94050000D02*
X30040000Y-94050000D01*
X32685000Y-94010000D02*
X30040000Y-94010000D01*
X32704000Y-93970000D02*
X30040000Y-93970000D01*
X32722000Y-93930000D02*
X30040000Y-93930000D01*
X32740000Y-93890000D02*
X30040000Y-93890000D01*
X32757000Y-93850000D02*
X30040000Y-93850000D01*
X32773000Y-93810000D02*
X30040000Y-93810000D01*
X32789000Y-93770000D02*
X30040000Y-93770000D01*
X32805000Y-93730000D02*
X30040000Y-93730000D01*
X32820000Y-93690000D02*
X30040000Y-93690000D01*
X32835000Y-93650000D02*
X30040000Y-93650000D01*
X32849000Y-93610000D02*
X30040000Y-93610000D01*
X32863000Y-93570000D02*
X30040000Y-93570000D01*
X32876000Y-93530000D02*
X30040000Y-93530000D01*
X32889000Y-93490000D02*
X30040000Y-93490000D01*
X32901000Y-93450000D02*
X30040000Y-93450000D01*
X32913000Y-93410000D02*
X30040000Y-93410000D01*
X32925000Y-93370000D02*
X30040000Y-93370000D01*
X32936000Y-93330000D02*
X30040000Y-93330000D01*
X32947000Y-93290000D02*
X30040000Y-93290000D01*
X32957000Y-93250000D02*
X30040000Y-93250000D01*
X32967000Y-93210000D02*
X30040000Y-93210000D01*
X32976000Y-93170000D02*
X30040000Y-93170000D01*
X32985000Y-93130000D02*
X30040000Y-93130000D01*
X32993000Y-93090000D02*
X30040000Y-93090000D01*
X33002000Y-93050000D02*
X30040000Y-93050000D01*
X33009000Y-93010000D02*
X30040000Y-93010000D01*
X33017000Y-92970000D02*
X30040000Y-92970000D01*
X33023000Y-92930000D02*
X24977000Y-92930000D01*
X33030000Y-92890000D02*
X24970000Y-92890000D01*
X33036000Y-92850000D02*
X24964000Y-92850000D01*
X33042000Y-92810000D02*
X24958000Y-92810000D01*
X33047000Y-92770000D02*
X24953000Y-92770000D01*
X33052000Y-92730000D02*
X24948000Y-92730000D01*
X33056000Y-92690000D02*
X24944000Y-92690000D01*
X33061000Y-92650000D02*
X24939000Y-92650000D01*
X33064000Y-92610000D02*
X24936000Y-92610000D01*
X33068000Y-92570000D02*
X24932000Y-92570000D01*
X33070000Y-92530000D02*
X24930000Y-92530000D01*
X33073000Y-92490000D02*
X24927000Y-92490000D01*
X33075000Y-92450000D02*
X24925000Y-92450000D01*
X33077000Y-92410000D02*
X24923000Y-92410000D01*
X33078000Y-92370000D02*
X24922000Y-92370000D01*
X33079000Y-92330000D02*
X24921000Y-92330000D01*
X33080000Y-92250000D02*
X24920000Y-92250000D01*
X33080000Y-92290000D02*
X24920000Y-92290000D01*
X33120000Y-92250000D02*
G75*
G02*
X24880000Y-92250000I-4120000J0D01*
G01*
X24880000Y-92250000D02*
G75*
G02*
X33120000Y-92250000I4120000J0D01*
G01*
D10*
%TO.C,U3*%
X24140000Y-61320000D02*
X24140000Y-43540000D01*
X27180000Y-40500000D02*
X47500000Y-40500000D01*
X27180000Y-64360000D02*
X47500000Y-64360000D01*
X50549612Y-61320000D02*
X50549612Y-43540000D01*
X24130016Y-43539967D02*
G75*
G02*
X27190033Y-40500016I3049984J-10033D01*
G01*
X27180000Y-64370016D02*
G75*
G02*
X24139984Y-61330000I0J3040016D01*
G01*
X47500000Y-40500372D02*
G75*
G02*
X50549628Y-43550000I0J-3049628D01*
G01*
X50549612Y-61320000D02*
G75*
G02*
X47510000Y-64379612I-3049612J-10000D01*
G01*
D13*
X29380000Y-43550000D02*
G75*
G02*
X24980000Y-43550000I-2200000J0D01*
G01*
X24980000Y-43550000D02*
G75*
G02*
X29380000Y-43550000I2200000J0D01*
G01*
X29380000Y-61330000D02*
G75*
G02*
X24980000Y-61330000I-2200000J0D01*
G01*
X24980000Y-61330000D02*
G75*
G02*
X29380000Y-61330000I2200000J0D01*
G01*
X49700000Y-43550000D02*
G75*
G02*
X45300000Y-43550000I-2200000J0D01*
G01*
X45300000Y-43550000D02*
G75*
G02*
X49700000Y-43550000I2200000J0D01*
G01*
X49700000Y-61330000D02*
G75*
G02*
X45300000Y-61330000I-2200000J0D01*
G01*
X45300000Y-61330000D02*
G75*
G02*
X49700000Y-61330000I2200000J0D01*
G01*
%TD*%
%LPC*%
G36*
X108770797Y-100422051D02*
G01*
X108943913Y-100478300D01*
X109106098Y-100560937D01*
X109253360Y-100667929D01*
X109382071Y-100796640D01*
X109489063Y-100943902D01*
X109571700Y-101106087D01*
X109627949Y-101279203D01*
X109656424Y-101458987D01*
X109660000Y-101550000D01*
X109660000Y-102450000D01*
X109656424Y-102541013D01*
X109627949Y-102720797D01*
X109571700Y-102893913D01*
X109489063Y-103056098D01*
X109382071Y-103203360D01*
X109253360Y-103332071D01*
X109106098Y-103439063D01*
X108943913Y-103521700D01*
X108770797Y-103577949D01*
X108591013Y-103606424D01*
X108408987Y-103606424D01*
X108229203Y-103577949D01*
X108056087Y-103521700D01*
X107893902Y-103439063D01*
X107746640Y-103332071D01*
X107617929Y-103203360D01*
X107510937Y-103056098D01*
X107428300Y-102893913D01*
X107372051Y-102720797D01*
X107343576Y-102541013D01*
X107340000Y-102450000D01*
X107340000Y-101550000D01*
X107343576Y-101458987D01*
X107372051Y-101279203D01*
X107428300Y-101106087D01*
X107510937Y-100943902D01*
X107617929Y-100796640D01*
X107746640Y-100667929D01*
X107893902Y-100560937D01*
X108056087Y-100478300D01*
X108229203Y-100422051D01*
X108408987Y-100393576D01*
X108591013Y-100393576D01*
X108770797Y-100422051D01*
G37*
G36*
X113770797Y-100422051D02*
G01*
X113943913Y-100478300D01*
X114106098Y-100560937D01*
X114253360Y-100667929D01*
X114382071Y-100796640D01*
X114489063Y-100943902D01*
X114571700Y-101106087D01*
X114627949Y-101279203D01*
X114656424Y-101458987D01*
X114660000Y-101550000D01*
X114660000Y-102450000D01*
X114656424Y-102541013D01*
X114627949Y-102720797D01*
X114571700Y-102893913D01*
X114489063Y-103056098D01*
X114382071Y-103203360D01*
X114253360Y-103332071D01*
X114106098Y-103439063D01*
X113943913Y-103521700D01*
X113770797Y-103577949D01*
X113591013Y-103606424D01*
X113408987Y-103606424D01*
X113229203Y-103577949D01*
X113056087Y-103521700D01*
X112893902Y-103439063D01*
X112746640Y-103332071D01*
X112617929Y-103203360D01*
X112510937Y-103056098D01*
X112428300Y-102893913D01*
X112372051Y-102720797D01*
X112343576Y-102541013D01*
X112340000Y-102450000D01*
X112340000Y-101550000D01*
X112343576Y-101458987D01*
X112372051Y-101279203D01*
X112428300Y-101106087D01*
X112510937Y-100943902D01*
X112617929Y-100796640D01*
X112746640Y-100667929D01*
X112893902Y-100560937D01*
X113056087Y-100478300D01*
X113229203Y-100422051D01*
X113408987Y-100393576D01*
X113591013Y-100393576D01*
X113770797Y-100422051D01*
G37*
G36*
X27570181Y-99538429D02*
G01*
X27822879Y-99606140D01*
X28064577Y-99706255D01*
X28291140Y-99837061D01*
X28498692Y-99996320D01*
X28683680Y-100181308D01*
X28842939Y-100388860D01*
X28973745Y-100615423D01*
X29073860Y-100857121D01*
X29141571Y-101109819D01*
X29175718Y-101369194D01*
X29175718Y-101630806D01*
X29141571Y-101890181D01*
X29073860Y-102142879D01*
X28973745Y-102384577D01*
X28842939Y-102611140D01*
X28683680Y-102818692D01*
X28498692Y-103003680D01*
X28291140Y-103162939D01*
X28064577Y-103293745D01*
X27822879Y-103393860D01*
X27570181Y-103461571D01*
X27310806Y-103495718D01*
X27049194Y-103495718D01*
X26789819Y-103461571D01*
X26537121Y-103393860D01*
X26295423Y-103293745D01*
X26068860Y-103162939D01*
X25861308Y-103003680D01*
X25676320Y-102818692D01*
X25517061Y-102611140D01*
X25386255Y-102384577D01*
X25286140Y-102142879D01*
X25218429Y-101890181D01*
X25184282Y-101630806D01*
X25184282Y-101369194D01*
X25218429Y-101109819D01*
X25286140Y-100857121D01*
X25386255Y-100615423D01*
X25517061Y-100388860D01*
X25676320Y-100181308D01*
X25861308Y-99996320D01*
X26068860Y-99837061D01*
X26295423Y-99706255D01*
X26537121Y-99606140D01*
X26789819Y-99538429D01*
X27049194Y-99504282D01*
X27310806Y-99504282D01*
X27570181Y-99538429D01*
G37*
G36*
X121890181Y-99538429D02*
G01*
X122142879Y-99606140D01*
X122384577Y-99706255D01*
X122611140Y-99837061D01*
X122818692Y-99996320D01*
X123003680Y-100181308D01*
X123162939Y-100388860D01*
X123293745Y-100615423D01*
X123393860Y-100857121D01*
X123461571Y-101109819D01*
X123495718Y-101369194D01*
X123495718Y-101630806D01*
X123461571Y-101890181D01*
X123393860Y-102142879D01*
X123293745Y-102384577D01*
X123162939Y-102611140D01*
X123003680Y-102818692D01*
X122818692Y-103003680D01*
X122611140Y-103162939D01*
X122384577Y-103293745D01*
X122142879Y-103393860D01*
X121890181Y-103461571D01*
X121630806Y-103495718D01*
X121369194Y-103495718D01*
X121109819Y-103461571D01*
X120857121Y-103393860D01*
X120615423Y-103293745D01*
X120388860Y-103162939D01*
X120181308Y-103003680D01*
X119996320Y-102818692D01*
X119837061Y-102611140D01*
X119706255Y-102384577D01*
X119606140Y-102142879D01*
X119538429Y-101890181D01*
X119504282Y-101630806D01*
X119504282Y-101369194D01*
X119538429Y-101109819D01*
X119606140Y-100857121D01*
X119706255Y-100615423D01*
X119837061Y-100388860D01*
X119996320Y-100181308D01*
X120181308Y-99996320D01*
X120388860Y-99837061D01*
X120615423Y-99706255D01*
X120857121Y-99606140D01*
X121109819Y-99538429D01*
X121369194Y-99504282D01*
X121630806Y-99504282D01*
X121890181Y-99538429D01*
G37*
G36*
X86779232Y-97615616D02*
G01*
X86845123Y-97621795D01*
X86861876Y-97627657D01*
X86884854Y-97631005D01*
X86918624Y-97647514D01*
X86954635Y-97660115D01*
X86974717Y-97674936D01*
X86998715Y-97686668D01*
X87021537Y-97709490D01*
X87046837Y-97728162D01*
X87065508Y-97753461D01*
X87088332Y-97776285D01*
X87100063Y-97800283D01*
X87114884Y-97820364D01*
X87127482Y-97856369D01*
X87143995Y-97890146D01*
X87147343Y-97913129D01*
X87153203Y-97929875D01*
X87159380Y-97995746D01*
X87160000Y-98000000D01*
X87160000Y-99050000D01*
X87159380Y-99054251D01*
X87153204Y-99120123D01*
X87147343Y-99136871D01*
X87143995Y-99159854D01*
X87127482Y-99193631D01*
X87114884Y-99229635D01*
X87100065Y-99249713D01*
X87088332Y-99273715D01*
X87065505Y-99296541D01*
X87046837Y-99321837D01*
X87021541Y-99340505D01*
X86998715Y-99363332D01*
X86974713Y-99375065D01*
X86954635Y-99389884D01*
X86918633Y-99402481D01*
X86884854Y-99418995D01*
X86861868Y-99422343D01*
X86845124Y-99428203D01*
X86779255Y-99434380D01*
X86775000Y-99435000D01*
X85725000Y-99435000D01*
X85720749Y-99434380D01*
X85654876Y-99428204D01*
X85638126Y-99422343D01*
X85615146Y-99418995D01*
X85581370Y-99402483D01*
X85545364Y-99389884D01*
X85525283Y-99375063D01*
X85501285Y-99363332D01*
X85478461Y-99340508D01*
X85453162Y-99321837D01*
X85434490Y-99296537D01*
X85411668Y-99273715D01*
X85399936Y-99249717D01*
X85385115Y-99229635D01*
X85372515Y-99193626D01*
X85356005Y-99159854D01*
X85352656Y-99136873D01*
X85346796Y-99120124D01*
X85340617Y-99054235D01*
X85340000Y-99050000D01*
X85340000Y-98000000D01*
X85340616Y-97995769D01*
X85346795Y-97929876D01*
X85352657Y-97913121D01*
X85356005Y-97890146D01*
X85372513Y-97856377D01*
X85385115Y-97820364D01*
X85399938Y-97800279D01*
X85411668Y-97776285D01*
X85434487Y-97753465D01*
X85453162Y-97728162D01*
X85478465Y-97709487D01*
X85501285Y-97686668D01*
X85525279Y-97674938D01*
X85545364Y-97660115D01*
X85581376Y-97647513D01*
X85615146Y-97631005D01*
X85638124Y-97627657D01*
X85654875Y-97621796D01*
X85720765Y-97615616D01*
X85725000Y-97615000D01*
X86775000Y-97615000D01*
X86779232Y-97615616D01*
G37*
G36*
X97029232Y-97615616D02*
G01*
X97095123Y-97621795D01*
X97111876Y-97627657D01*
X97134854Y-97631005D01*
X97168624Y-97647514D01*
X97204635Y-97660115D01*
X97224717Y-97674936D01*
X97248715Y-97686668D01*
X97271537Y-97709490D01*
X97296837Y-97728162D01*
X97315508Y-97753461D01*
X97338332Y-97776285D01*
X97350063Y-97800283D01*
X97364884Y-97820364D01*
X97377482Y-97856369D01*
X97393995Y-97890146D01*
X97397343Y-97913129D01*
X97403203Y-97929875D01*
X97409380Y-97995746D01*
X97410000Y-98000000D01*
X97410000Y-99050000D01*
X97409380Y-99054251D01*
X97403204Y-99120123D01*
X97397343Y-99136871D01*
X97393995Y-99159854D01*
X97377482Y-99193631D01*
X97364884Y-99229635D01*
X97350065Y-99249713D01*
X97338332Y-99273715D01*
X97315505Y-99296541D01*
X97296837Y-99321837D01*
X97271541Y-99340505D01*
X97248715Y-99363332D01*
X97224713Y-99375065D01*
X97204635Y-99389884D01*
X97168633Y-99402481D01*
X97134854Y-99418995D01*
X97111868Y-99422343D01*
X97095124Y-99428203D01*
X97029255Y-99434380D01*
X97025000Y-99435000D01*
X95975000Y-99435000D01*
X95970749Y-99434380D01*
X95904876Y-99428204D01*
X95888126Y-99422343D01*
X95865146Y-99418995D01*
X95831370Y-99402483D01*
X95795364Y-99389884D01*
X95775283Y-99375063D01*
X95751285Y-99363332D01*
X95728461Y-99340508D01*
X95703162Y-99321837D01*
X95684490Y-99296537D01*
X95661668Y-99273715D01*
X95649936Y-99249717D01*
X95635115Y-99229635D01*
X95622515Y-99193626D01*
X95606005Y-99159854D01*
X95602656Y-99136873D01*
X95596796Y-99120124D01*
X95590617Y-99054235D01*
X95590000Y-99050000D01*
X95590000Y-98000000D01*
X95590616Y-97995769D01*
X95596795Y-97929876D01*
X95602657Y-97913121D01*
X95606005Y-97890146D01*
X95622513Y-97856377D01*
X95635115Y-97820364D01*
X95649938Y-97800279D01*
X95661668Y-97776285D01*
X95684487Y-97753465D01*
X95703162Y-97728162D01*
X95728465Y-97709487D01*
X95751285Y-97686668D01*
X95775279Y-97674938D01*
X95795364Y-97660115D01*
X95831376Y-97647513D01*
X95865146Y-97631005D01*
X95888124Y-97627657D01*
X95904875Y-97621796D01*
X95970765Y-97615616D01*
X95975000Y-97615000D01*
X97025000Y-97615000D01*
X97029232Y-97615616D01*
G37*
G36*
X89014159Y-97654184D02*
G01*
X89178971Y-97722452D01*
X89327298Y-97821560D01*
X89453440Y-97947702D01*
X89552548Y-98096029D01*
X89620816Y-98260841D01*
X89655618Y-98435804D01*
X89655618Y-98614196D01*
X89620816Y-98789159D01*
X89552548Y-98953971D01*
X89453440Y-99102298D01*
X89327298Y-99228440D01*
X89178971Y-99327548D01*
X89014159Y-99395816D01*
X88839196Y-99430618D01*
X88660804Y-99430618D01*
X88485841Y-99395816D01*
X88321029Y-99327548D01*
X88172702Y-99228440D01*
X88046560Y-99102298D01*
X87947452Y-98953971D01*
X87879184Y-98789159D01*
X87844382Y-98614196D01*
X87844382Y-98435804D01*
X87879184Y-98260841D01*
X87947452Y-98096029D01*
X88046560Y-97947702D01*
X88172702Y-97821560D01*
X88321029Y-97722452D01*
X88485841Y-97654184D01*
X88660804Y-97619382D01*
X88839196Y-97619382D01*
X89014159Y-97654184D01*
G37*
G36*
X99264159Y-97654184D02*
G01*
X99428971Y-97722452D01*
X99577298Y-97821560D01*
X99703440Y-97947702D01*
X99802548Y-98096029D01*
X99870816Y-98260841D01*
X99905618Y-98435804D01*
X99905618Y-98614196D01*
X99870816Y-98789159D01*
X99802548Y-98953971D01*
X99703440Y-99102298D01*
X99577298Y-99228440D01*
X99428971Y-99327548D01*
X99264159Y-99395816D01*
X99089196Y-99430618D01*
X98910804Y-99430618D01*
X98735841Y-99395816D01*
X98571029Y-99327548D01*
X98422702Y-99228440D01*
X98296560Y-99102298D01*
X98197452Y-98953971D01*
X98129184Y-98789159D01*
X98094382Y-98614196D01*
X98094382Y-98435804D01*
X98129184Y-98260841D01*
X98197452Y-98096029D01*
X98296560Y-97947702D01*
X98422702Y-97821560D01*
X98571029Y-97722452D01*
X98735841Y-97654184D01*
X98910804Y-97619382D01*
X99089196Y-97619382D01*
X99264159Y-97654184D01*
G37*
G36*
X40891013Y-94743576D02*
G01*
X41070797Y-94772051D01*
X41243913Y-94828300D01*
X41406098Y-94910937D01*
X41553360Y-95017929D01*
X41682071Y-95146640D01*
X41789063Y-95293902D01*
X41871700Y-95456087D01*
X41927949Y-95629203D01*
X41956424Y-95808987D01*
X41956424Y-95991013D01*
X41927949Y-96170797D01*
X41871700Y-96343913D01*
X41789063Y-96506098D01*
X41682071Y-96653360D01*
X41553360Y-96782071D01*
X41406098Y-96889063D01*
X41243913Y-96971700D01*
X41070797Y-97027949D01*
X40891013Y-97056424D01*
X40800000Y-97060000D01*
X40799030Y-97060000D01*
X38600970Y-97060000D01*
X38600000Y-97060000D01*
X38508987Y-97056424D01*
X38329203Y-97027949D01*
X38156087Y-96971700D01*
X37993902Y-96889063D01*
X37846640Y-96782071D01*
X37717929Y-96653360D01*
X37610937Y-96506098D01*
X37528300Y-96343913D01*
X37472051Y-96170797D01*
X37443576Y-95991013D01*
X37443576Y-95808987D01*
X37472051Y-95629203D01*
X37528300Y-95456087D01*
X37610937Y-95293902D01*
X37717929Y-95146640D01*
X37846640Y-95017929D01*
X37993902Y-94910937D01*
X38156087Y-94828300D01*
X38329203Y-94772051D01*
X38508987Y-94743576D01*
X38600000Y-94740000D01*
X40800000Y-94740000D01*
X40891013Y-94743576D01*
G37*
G36*
X106593778Y-94695104D02*
G01*
X106603898Y-94695104D01*
X106643438Y-94702969D01*
X106747411Y-94719436D01*
X106780855Y-94730302D01*
X106807702Y-94735643D01*
X106845591Y-94751337D01*
X106905583Y-94770830D01*
X106961783Y-94799465D01*
X106999681Y-94815163D01*
X107022446Y-94830374D01*
X107053769Y-94846334D01*
X107138927Y-94908205D01*
X107172457Y-94930609D01*
X107179612Y-94937764D01*
X107188312Y-94944085D01*
X107305914Y-95061687D01*
X107312234Y-95070386D01*
X107319391Y-95077543D01*
X107341797Y-95111076D01*
X107403665Y-95196230D01*
X107419623Y-95227550D01*
X107434837Y-95250319D01*
X107450536Y-95288221D01*
X107479169Y-95344416D01*
X107498659Y-95404401D01*
X107514357Y-95442298D01*
X107519698Y-95469150D01*
X107530563Y-95502588D01*
X107547029Y-95606555D01*
X107554896Y-95646102D01*
X107554896Y-95656221D01*
X107556578Y-95666841D01*
X107556578Y-95833158D01*
X107554896Y-95843777D01*
X107554896Y-95853898D01*
X107547029Y-95893447D01*
X107530563Y-95997411D01*
X107519698Y-96030847D01*
X107514357Y-96057702D01*
X107498658Y-96095602D01*
X107479169Y-96155583D01*
X107450538Y-96211773D01*
X107434837Y-96249681D01*
X107419621Y-96272452D01*
X107403665Y-96303769D01*
X107341806Y-96388910D01*
X107319391Y-96422457D01*
X107312232Y-96429615D01*
X107305914Y-96438312D01*
X107188312Y-96555914D01*
X107179615Y-96562232D01*
X107172457Y-96569391D01*
X107138910Y-96591806D01*
X107053769Y-96653665D01*
X107022452Y-96669621D01*
X106999681Y-96684837D01*
X106961773Y-96700538D01*
X106905583Y-96729169D01*
X106845602Y-96748658D01*
X106807702Y-96764357D01*
X106780847Y-96769698D01*
X106747411Y-96780563D01*
X106643447Y-96797029D01*
X106603898Y-96804896D01*
X106593778Y-96804896D01*
X106583158Y-96806578D01*
X106416842Y-96806578D01*
X106406222Y-96804896D01*
X106396102Y-96804896D01*
X106356553Y-96797029D01*
X106252588Y-96780563D01*
X106219150Y-96769698D01*
X106192298Y-96764357D01*
X106154401Y-96748659D01*
X106094416Y-96729169D01*
X106038221Y-96700536D01*
X106000319Y-96684837D01*
X105977550Y-96669623D01*
X105946230Y-96653665D01*
X105861076Y-96591797D01*
X105827543Y-96569391D01*
X105820386Y-96562234D01*
X105811687Y-96555914D01*
X105694085Y-96438312D01*
X105687764Y-96429612D01*
X105680609Y-96422457D01*
X105658205Y-96388927D01*
X105596334Y-96303769D01*
X105580374Y-96272446D01*
X105565163Y-96249681D01*
X105549465Y-96211783D01*
X105520830Y-96155583D01*
X105501337Y-96095591D01*
X105485643Y-96057702D01*
X105480302Y-96030855D01*
X105469436Y-95997411D01*
X105452969Y-95893438D01*
X105445104Y-95853898D01*
X105445104Y-95843778D01*
X105443422Y-95833158D01*
X105443422Y-95666841D01*
X105445104Y-95656220D01*
X105445104Y-95646102D01*
X105452968Y-95606565D01*
X105469436Y-95502588D01*
X105480303Y-95469142D01*
X105485643Y-95442298D01*
X105501335Y-95404412D01*
X105520830Y-95344416D01*
X105549467Y-95288210D01*
X105565163Y-95250319D01*
X105580372Y-95227556D01*
X105596334Y-95196230D01*
X105658213Y-95111059D01*
X105680609Y-95077543D01*
X105687761Y-95070390D01*
X105694085Y-95061687D01*
X105811687Y-94944085D01*
X105820390Y-94937761D01*
X105827543Y-94930609D01*
X105861059Y-94908213D01*
X105946230Y-94846334D01*
X105977556Y-94830372D01*
X106000319Y-94815163D01*
X106038210Y-94799467D01*
X106094416Y-94770830D01*
X106154412Y-94751335D01*
X106192298Y-94735643D01*
X106219142Y-94730303D01*
X106252588Y-94719436D01*
X106356562Y-94702968D01*
X106396102Y-94695104D01*
X106406222Y-94695104D01*
X106416842Y-94693422D01*
X106583158Y-94693422D01*
X106593778Y-94695104D01*
G37*
G36*
X115593778Y-94695104D02*
G01*
X115603898Y-94695104D01*
X115643438Y-94702969D01*
X115747411Y-94719436D01*
X115780855Y-94730302D01*
X115807702Y-94735643D01*
X115845591Y-94751337D01*
X115905583Y-94770830D01*
X115961783Y-94799465D01*
X115999681Y-94815163D01*
X116022446Y-94830374D01*
X116053769Y-94846334D01*
X116138927Y-94908205D01*
X116172457Y-94930609D01*
X116179612Y-94937764D01*
X116188312Y-94944085D01*
X116305914Y-95061687D01*
X116312234Y-95070386D01*
X116319391Y-95077543D01*
X116341797Y-95111076D01*
X116403665Y-95196230D01*
X116419623Y-95227550D01*
X116434837Y-95250319D01*
X116450536Y-95288221D01*
X116479169Y-95344416D01*
X116498659Y-95404401D01*
X116514357Y-95442298D01*
X116519698Y-95469150D01*
X116530563Y-95502588D01*
X116547029Y-95606555D01*
X116554896Y-95646102D01*
X116554896Y-95656221D01*
X116556578Y-95666841D01*
X116556578Y-95833158D01*
X116554896Y-95843777D01*
X116554896Y-95853898D01*
X116547029Y-95893447D01*
X116530563Y-95997411D01*
X116519698Y-96030847D01*
X116514357Y-96057702D01*
X116498658Y-96095602D01*
X116479169Y-96155583D01*
X116450538Y-96211773D01*
X116434837Y-96249681D01*
X116419621Y-96272452D01*
X116403665Y-96303769D01*
X116341806Y-96388910D01*
X116319391Y-96422457D01*
X116312232Y-96429615D01*
X116305914Y-96438312D01*
X116188312Y-96555914D01*
X116179615Y-96562232D01*
X116172457Y-96569391D01*
X116138910Y-96591806D01*
X116053769Y-96653665D01*
X116022452Y-96669621D01*
X115999681Y-96684837D01*
X115961773Y-96700538D01*
X115905583Y-96729169D01*
X115845602Y-96748658D01*
X115807702Y-96764357D01*
X115780847Y-96769698D01*
X115747411Y-96780563D01*
X115643447Y-96797029D01*
X115603898Y-96804896D01*
X115593778Y-96804896D01*
X115583158Y-96806578D01*
X115416842Y-96806578D01*
X115406222Y-96804896D01*
X115396102Y-96804896D01*
X115356553Y-96797029D01*
X115252588Y-96780563D01*
X115219150Y-96769698D01*
X115192298Y-96764357D01*
X115154401Y-96748659D01*
X115094416Y-96729169D01*
X115038221Y-96700536D01*
X115000319Y-96684837D01*
X114977550Y-96669623D01*
X114946230Y-96653665D01*
X114861076Y-96591797D01*
X114827543Y-96569391D01*
X114820386Y-96562234D01*
X114811687Y-96555914D01*
X114694085Y-96438312D01*
X114687764Y-96429612D01*
X114680609Y-96422457D01*
X114658205Y-96388927D01*
X114596334Y-96303769D01*
X114580374Y-96272446D01*
X114565163Y-96249681D01*
X114549465Y-96211783D01*
X114520830Y-96155583D01*
X114501337Y-96095591D01*
X114485643Y-96057702D01*
X114480302Y-96030855D01*
X114469436Y-95997411D01*
X114452969Y-95893438D01*
X114445104Y-95853898D01*
X114445104Y-95843778D01*
X114443422Y-95833158D01*
X114443422Y-95666841D01*
X114445104Y-95656220D01*
X114445104Y-95646102D01*
X114452968Y-95606565D01*
X114469436Y-95502588D01*
X114480303Y-95469142D01*
X114485643Y-95442298D01*
X114501335Y-95404412D01*
X114520830Y-95344416D01*
X114549467Y-95288210D01*
X114565163Y-95250319D01*
X114580372Y-95227556D01*
X114596334Y-95196230D01*
X114658213Y-95111059D01*
X114680609Y-95077543D01*
X114687761Y-95070390D01*
X114694085Y-95061687D01*
X114811687Y-94944085D01*
X114820390Y-94937761D01*
X114827543Y-94930609D01*
X114861059Y-94908213D01*
X114946230Y-94846334D01*
X114977556Y-94830372D01*
X115000319Y-94815163D01*
X115038210Y-94799467D01*
X115094416Y-94770830D01*
X115154412Y-94751335D01*
X115192298Y-94735643D01*
X115219142Y-94730303D01*
X115252588Y-94719436D01*
X115356562Y-94702968D01*
X115396102Y-94695104D01*
X115406222Y-94695104D01*
X115416842Y-94693422D01*
X115583158Y-94693422D01*
X115593778Y-94695104D01*
G37*
G36*
X29278673Y-93081337D02*
G01*
X29452541Y-93153356D01*
X29609018Y-93257910D01*
X29742090Y-93390982D01*
X29846644Y-93547459D01*
X29918663Y-93721327D01*
X29955377Y-93905904D01*
X29955377Y-94094096D01*
X29918663Y-94278673D01*
X29846644Y-94452541D01*
X29742090Y-94609018D01*
X29609018Y-94742090D01*
X29452541Y-94846644D01*
X29278673Y-94918663D01*
X29094096Y-94955377D01*
X28905904Y-94955377D01*
X28721327Y-94918663D01*
X28547459Y-94846644D01*
X28390982Y-94742090D01*
X28257910Y-94609018D01*
X28153356Y-94452541D01*
X28081337Y-94278673D01*
X28044623Y-94094096D01*
X28044623Y-93905904D01*
X28081337Y-93721327D01*
X28153356Y-93547459D01*
X28257910Y-93390982D01*
X28390982Y-93257910D01*
X28547459Y-93153356D01*
X28721327Y-93081337D01*
X28905904Y-93044623D01*
X29094096Y-93044623D01*
X29278673Y-93081337D01*
G37*
G36*
X44768462Y-90281775D02*
G01*
X44940086Y-90337539D01*
X45100873Y-90419464D01*
X45246865Y-90525533D01*
X45374467Y-90653135D01*
X45480536Y-90799127D01*
X45562461Y-90959914D01*
X45618225Y-91131538D01*
X45646455Y-91309772D01*
X45650000Y-91400000D01*
X45650000Y-93600000D01*
X45646455Y-93690228D01*
X45618225Y-93868462D01*
X45562461Y-94040086D01*
X45480536Y-94200873D01*
X45374467Y-94346865D01*
X45246865Y-94474467D01*
X45100873Y-94580536D01*
X44940086Y-94662461D01*
X44768462Y-94718225D01*
X44590228Y-94746455D01*
X44409772Y-94746455D01*
X44231538Y-94718225D01*
X44059914Y-94662461D01*
X43899127Y-94580536D01*
X43753135Y-94474467D01*
X43625533Y-94346865D01*
X43519464Y-94200873D01*
X43437539Y-94040086D01*
X43381775Y-93868462D01*
X43353545Y-93690228D01*
X43350000Y-93600000D01*
X43350000Y-91400000D01*
X43353545Y-91309772D01*
X43381775Y-91131538D01*
X43437539Y-90959914D01*
X43519464Y-90799127D01*
X43625533Y-90653135D01*
X43753135Y-90525533D01*
X43899127Y-90419464D01*
X44059914Y-90337539D01*
X44231538Y-90281775D01*
X44409772Y-90253545D01*
X44590228Y-90253545D01*
X44768462Y-90281775D01*
G37*
G36*
X53772868Y-90420476D02*
G01*
X53943113Y-90490994D01*
X54096330Y-90593370D01*
X54226630Y-90723670D01*
X54329006Y-90876887D01*
X54399524Y-91047132D01*
X54435474Y-91227864D01*
X54435474Y-91412136D01*
X54399524Y-91592868D01*
X54329006Y-91763113D01*
X54226630Y-91916330D01*
X54096330Y-92046630D01*
X53943113Y-92149006D01*
X53772868Y-92219524D01*
X53592136Y-92255474D01*
X53407864Y-92255474D01*
X53227132Y-92219524D01*
X53056887Y-92149006D01*
X52903670Y-92046630D01*
X52773370Y-91916330D01*
X52670994Y-91763113D01*
X52600476Y-91592868D01*
X52564526Y-91412136D01*
X52564526Y-91227864D01*
X52600476Y-91047132D01*
X52670994Y-90876887D01*
X52773370Y-90723670D01*
X52903670Y-90593370D01*
X53056887Y-90490994D01*
X53227132Y-90420476D01*
X53407864Y-90384526D01*
X53592136Y-90384526D01*
X53772868Y-90420476D01*
G37*
G36*
X79172868Y-90420476D02*
G01*
X79343113Y-90490994D01*
X79496330Y-90593370D01*
X79626630Y-90723670D01*
X79729006Y-90876887D01*
X79799524Y-91047132D01*
X79835474Y-91227864D01*
X79835474Y-91412136D01*
X79799524Y-91592868D01*
X79729006Y-91763113D01*
X79626630Y-91916330D01*
X79496330Y-92046630D01*
X79343113Y-92149006D01*
X79172868Y-92219524D01*
X78992136Y-92255474D01*
X78807864Y-92255474D01*
X78627132Y-92219524D01*
X78456887Y-92149006D01*
X78303670Y-92046630D01*
X78173370Y-91916330D01*
X78070994Y-91763113D01*
X78000476Y-91592868D01*
X77964526Y-91412136D01*
X77964526Y-91227864D01*
X78000476Y-91047132D01*
X78070994Y-90876887D01*
X78173370Y-90723670D01*
X78303670Y-90593370D01*
X78456887Y-90490994D01*
X78627132Y-90420476D01*
X78807864Y-90384526D01*
X78992136Y-90384526D01*
X79172868Y-90420476D01*
G37*
G36*
X29861229Y-89552179D02*
G01*
X29913137Y-89586863D01*
X29947821Y-89638771D01*
X29960000Y-89700000D01*
X29960000Y-91300000D01*
X29947821Y-91361229D01*
X29913137Y-91413137D01*
X29861229Y-91447821D01*
X29800000Y-91460000D01*
X28200000Y-91460000D01*
X28138771Y-91447821D01*
X28086863Y-91413137D01*
X28052179Y-91361229D01*
X28040000Y-91300000D01*
X28040000Y-89700000D01*
X28052179Y-89638771D01*
X28086863Y-89586863D01*
X28138771Y-89552179D01*
X28200000Y-89540000D01*
X29800000Y-89540000D01*
X29861229Y-89552179D01*
G37*
G36*
X108770797Y-87922051D02*
G01*
X108943913Y-87978300D01*
X109106098Y-88060937D01*
X109253360Y-88167929D01*
X109382071Y-88296640D01*
X109489063Y-88443902D01*
X109571700Y-88606087D01*
X109627949Y-88779203D01*
X109656424Y-88958987D01*
X109660000Y-89050000D01*
X109660000Y-89950000D01*
X109656424Y-90041013D01*
X109627949Y-90220797D01*
X109571700Y-90393913D01*
X109489063Y-90556098D01*
X109382071Y-90703360D01*
X109253360Y-90832071D01*
X109106098Y-90939063D01*
X108943913Y-91021700D01*
X108770797Y-91077949D01*
X108591013Y-91106424D01*
X108408987Y-91106424D01*
X108229203Y-91077949D01*
X108056087Y-91021700D01*
X107893902Y-90939063D01*
X107746640Y-90832071D01*
X107617929Y-90703360D01*
X107510937Y-90556098D01*
X107428300Y-90393913D01*
X107372051Y-90220797D01*
X107343576Y-90041013D01*
X107340000Y-89950000D01*
X107340000Y-89050000D01*
X107343576Y-88958987D01*
X107372051Y-88779203D01*
X107428300Y-88606087D01*
X107510937Y-88443902D01*
X107617929Y-88296640D01*
X107746640Y-88167929D01*
X107893902Y-88060937D01*
X108056087Y-87978300D01*
X108229203Y-87922051D01*
X108408987Y-87893576D01*
X108591013Y-87893576D01*
X108770797Y-87922051D01*
G37*
G36*
X113770797Y-87922051D02*
G01*
X113943913Y-87978300D01*
X114106098Y-88060937D01*
X114253360Y-88167929D01*
X114382071Y-88296640D01*
X114489063Y-88443902D01*
X114571700Y-88606087D01*
X114627949Y-88779203D01*
X114656424Y-88958987D01*
X114660000Y-89050000D01*
X114660000Y-89950000D01*
X114656424Y-90041013D01*
X114627949Y-90220797D01*
X114571700Y-90393913D01*
X114489063Y-90556098D01*
X114382071Y-90703360D01*
X114253360Y-90832071D01*
X114106098Y-90939063D01*
X113943913Y-91021700D01*
X113770797Y-91077949D01*
X113591013Y-91106424D01*
X113408987Y-91106424D01*
X113229203Y-91077949D01*
X113056087Y-91021700D01*
X112893902Y-90939063D01*
X112746640Y-90832071D01*
X112617929Y-90703360D01*
X112510937Y-90556098D01*
X112428300Y-90393913D01*
X112372051Y-90220797D01*
X112343576Y-90041013D01*
X112340000Y-89950000D01*
X112340000Y-89050000D01*
X112343576Y-88958987D01*
X112372051Y-88779203D01*
X112428300Y-88606087D01*
X112510937Y-88443902D01*
X112617929Y-88296640D01*
X112746640Y-88167929D01*
X112893902Y-88060937D01*
X113056087Y-87978300D01*
X113229203Y-87922051D01*
X113408987Y-87893576D01*
X113591013Y-87893576D01*
X113770797Y-87922051D01*
G37*
G36*
X42057403Y-88461418D02*
G01*
X42106066Y-88493934D01*
X42138582Y-88542597D01*
X42150000Y-88600000D01*
X42150000Y-90600000D01*
X42138582Y-90657403D01*
X42106066Y-90706066D01*
X42057403Y-90738582D01*
X42000000Y-90750000D01*
X37400000Y-90750000D01*
X37342597Y-90738582D01*
X37293934Y-90706066D01*
X37261418Y-90657403D01*
X37250000Y-90600000D01*
X37250000Y-88600000D01*
X37261418Y-88542597D01*
X37293934Y-88493934D01*
X37342597Y-88461418D01*
X37400000Y-88450000D01*
X42000000Y-88450000D01*
X42057403Y-88461418D01*
G37*
G36*
X53772868Y-87880476D02*
G01*
X53943113Y-87950994D01*
X54096330Y-88053370D01*
X54226630Y-88183670D01*
X54329006Y-88336887D01*
X54399524Y-88507132D01*
X54435474Y-88687864D01*
X54435474Y-88872136D01*
X54399524Y-89052868D01*
X54329006Y-89223113D01*
X54226630Y-89376330D01*
X54096330Y-89506630D01*
X53943113Y-89609006D01*
X53772868Y-89679524D01*
X53592136Y-89715474D01*
X53407864Y-89715474D01*
X53227132Y-89679524D01*
X53056887Y-89609006D01*
X52903670Y-89506630D01*
X52773370Y-89376330D01*
X52670994Y-89223113D01*
X52600476Y-89052868D01*
X52564526Y-88872136D01*
X52564526Y-88687864D01*
X52600476Y-88507132D01*
X52670994Y-88336887D01*
X52773370Y-88183670D01*
X52903670Y-88053370D01*
X53056887Y-87950994D01*
X53227132Y-87880476D01*
X53407864Y-87844526D01*
X53592136Y-87844526D01*
X53772868Y-87880476D01*
G37*
G36*
X79172868Y-87880476D02*
G01*
X79343113Y-87950994D01*
X79496330Y-88053370D01*
X79626630Y-88183670D01*
X79729006Y-88336887D01*
X79799524Y-88507132D01*
X79835474Y-88687864D01*
X79835474Y-88872136D01*
X79799524Y-89052868D01*
X79729006Y-89223113D01*
X79626630Y-89376330D01*
X79496330Y-89506630D01*
X79343113Y-89609006D01*
X79172868Y-89679524D01*
X78992136Y-89715474D01*
X78807864Y-89715474D01*
X78627132Y-89679524D01*
X78456887Y-89609006D01*
X78303670Y-89506630D01*
X78173370Y-89376330D01*
X78070994Y-89223113D01*
X78000476Y-89052868D01*
X77964526Y-88872136D01*
X77964526Y-88687864D01*
X78000476Y-88507132D01*
X78070994Y-88336887D01*
X78173370Y-88183670D01*
X78303670Y-88053370D01*
X78456887Y-87950994D01*
X78627132Y-87880476D01*
X78807864Y-87844526D01*
X78992136Y-87844526D01*
X79172868Y-87880476D01*
G37*
G36*
X53772868Y-85340476D02*
G01*
X53943113Y-85410994D01*
X54096330Y-85513370D01*
X54226630Y-85643670D01*
X54329006Y-85796887D01*
X54399524Y-85967132D01*
X54435474Y-86147864D01*
X54435474Y-86332136D01*
X54399524Y-86512868D01*
X54329006Y-86683113D01*
X54226630Y-86836330D01*
X54096330Y-86966630D01*
X53943113Y-87069006D01*
X53772868Y-87139524D01*
X53592136Y-87175474D01*
X53407864Y-87175474D01*
X53227132Y-87139524D01*
X53056887Y-87069006D01*
X52903670Y-86966630D01*
X52773370Y-86836330D01*
X52670994Y-86683113D01*
X52600476Y-86512868D01*
X52564526Y-86332136D01*
X52564526Y-86147864D01*
X52600476Y-85967132D01*
X52670994Y-85796887D01*
X52773370Y-85643670D01*
X52903670Y-85513370D01*
X53056887Y-85410994D01*
X53227132Y-85340476D01*
X53407864Y-85304526D01*
X53592136Y-85304526D01*
X53772868Y-85340476D01*
G37*
G36*
X79172868Y-85340476D02*
G01*
X79343113Y-85410994D01*
X79496330Y-85513370D01*
X79626630Y-85643670D01*
X79729006Y-85796887D01*
X79799524Y-85967132D01*
X79835474Y-86147864D01*
X79835474Y-86332136D01*
X79799524Y-86512868D01*
X79729006Y-86683113D01*
X79626630Y-86836330D01*
X79496330Y-86966630D01*
X79343113Y-87069006D01*
X79172868Y-87139524D01*
X78992136Y-87175474D01*
X78807864Y-87175474D01*
X78627132Y-87139524D01*
X78456887Y-87069006D01*
X78303670Y-86966630D01*
X78173370Y-86836330D01*
X78070994Y-86683113D01*
X78000476Y-86512868D01*
X77964526Y-86332136D01*
X77964526Y-86147864D01*
X78000476Y-85967132D01*
X78070994Y-85796887D01*
X78173370Y-85643670D01*
X78303670Y-85513370D01*
X78456887Y-85410994D01*
X78627132Y-85340476D01*
X78807864Y-85304526D01*
X78992136Y-85304526D01*
X79172868Y-85340476D01*
G37*
G36*
X53772868Y-82800476D02*
G01*
X53943113Y-82870994D01*
X54096330Y-82973370D01*
X54226630Y-83103670D01*
X54329006Y-83256887D01*
X54399524Y-83427132D01*
X54435474Y-83607864D01*
X54435474Y-83792136D01*
X54399524Y-83972868D01*
X54329006Y-84143113D01*
X54226630Y-84296330D01*
X54096330Y-84426630D01*
X53943113Y-84529006D01*
X53772868Y-84599524D01*
X53592136Y-84635474D01*
X53407864Y-84635474D01*
X53227132Y-84599524D01*
X53056887Y-84529006D01*
X52903670Y-84426630D01*
X52773370Y-84296330D01*
X52670994Y-84143113D01*
X52600476Y-83972868D01*
X52564526Y-83792136D01*
X52564526Y-83607864D01*
X52600476Y-83427132D01*
X52670994Y-83256887D01*
X52773370Y-83103670D01*
X52903670Y-82973370D01*
X53056887Y-82870994D01*
X53227132Y-82800476D01*
X53407864Y-82764526D01*
X53592136Y-82764526D01*
X53772868Y-82800476D01*
G37*
G36*
X79172868Y-82800476D02*
G01*
X79343113Y-82870994D01*
X79496330Y-82973370D01*
X79626630Y-83103670D01*
X79729006Y-83256887D01*
X79799524Y-83427132D01*
X79835474Y-83607864D01*
X79835474Y-83792136D01*
X79799524Y-83972868D01*
X79729006Y-84143113D01*
X79626630Y-84296330D01*
X79496330Y-84426630D01*
X79343113Y-84529006D01*
X79172868Y-84599524D01*
X78992136Y-84635474D01*
X78807864Y-84635474D01*
X78627132Y-84599524D01*
X78456887Y-84529006D01*
X78303670Y-84426630D01*
X78173370Y-84296330D01*
X78070994Y-84143113D01*
X78000476Y-83972868D01*
X77964526Y-83792136D01*
X77964526Y-83607864D01*
X78000476Y-83427132D01*
X78070994Y-83256887D01*
X78173370Y-83103670D01*
X78303670Y-82973370D01*
X78456887Y-82870994D01*
X78627132Y-82800476D01*
X78807864Y-82764526D01*
X78992136Y-82764526D01*
X79172868Y-82800476D01*
G37*
G36*
X26002868Y-81600476D02*
G01*
X26173113Y-81670994D01*
X26326330Y-81773370D01*
X26456630Y-81903670D01*
X26559006Y-82056887D01*
X26629524Y-82227132D01*
X26665474Y-82407864D01*
X26665474Y-82592136D01*
X26629524Y-82772868D01*
X26559006Y-82943113D01*
X26456630Y-83096330D01*
X26326330Y-83226630D01*
X26173113Y-83329006D01*
X26002868Y-83399524D01*
X25822136Y-83435474D01*
X25637864Y-83435474D01*
X25457132Y-83399524D01*
X25286887Y-83329006D01*
X25133670Y-83226630D01*
X25003370Y-83096330D01*
X24900994Y-82943113D01*
X24830476Y-82772868D01*
X24794526Y-82592136D01*
X24794526Y-82407864D01*
X24830476Y-82227132D01*
X24900994Y-82056887D01*
X25003370Y-81903670D01*
X25133670Y-81773370D01*
X25286887Y-81670994D01*
X25457132Y-81600476D01*
X25637864Y-81564526D01*
X25822136Y-81564526D01*
X26002868Y-81600476D01*
G37*
G36*
X44302868Y-81600476D02*
G01*
X44473113Y-81670994D01*
X44626330Y-81773370D01*
X44756630Y-81903670D01*
X44859006Y-82056887D01*
X44929524Y-82227132D01*
X44965474Y-82407864D01*
X44965474Y-82592136D01*
X44929524Y-82772868D01*
X44859006Y-82943113D01*
X44756630Y-83096330D01*
X44626330Y-83226630D01*
X44473113Y-83329006D01*
X44302868Y-83399524D01*
X44122136Y-83435474D01*
X43937864Y-83435474D01*
X43757132Y-83399524D01*
X43586887Y-83329006D01*
X43433670Y-83226630D01*
X43303370Y-83096330D01*
X43200994Y-82943113D01*
X43130476Y-82772868D01*
X43094526Y-82592136D01*
X43094526Y-82407864D01*
X43130476Y-82227132D01*
X43200994Y-82056887D01*
X43303370Y-81903670D01*
X43433670Y-81773370D01*
X43586887Y-81670994D01*
X43757132Y-81600476D01*
X43937864Y-81564526D01*
X44122136Y-81564526D01*
X44302868Y-81600476D01*
G37*
G36*
X94300830Y-80450340D02*
G01*
X94518718Y-80521136D01*
X94722848Y-80625145D01*
X94908194Y-80759807D01*
X95070193Y-80921806D01*
X95204855Y-81107152D01*
X95308864Y-81311282D01*
X95379660Y-81529170D01*
X95415499Y-81755450D01*
X95415499Y-81984550D01*
X95379660Y-82210830D01*
X95308864Y-82428718D01*
X95204855Y-82632848D01*
X95070193Y-82818194D01*
X94908194Y-82980193D01*
X94722848Y-83114855D01*
X94518718Y-83218864D01*
X94300830Y-83289660D01*
X94074550Y-83325499D01*
X93845450Y-83325499D01*
X93619170Y-83289660D01*
X93401282Y-83218864D01*
X93197152Y-83114855D01*
X93011806Y-82980193D01*
X92849807Y-82818194D01*
X92715145Y-82632848D01*
X92611136Y-82428718D01*
X92540340Y-82210830D01*
X92504501Y-81984550D01*
X92504501Y-81755450D01*
X92540340Y-81529170D01*
X92611136Y-81311282D01*
X92715145Y-81107152D01*
X92849807Y-80921806D01*
X93011806Y-80759807D01*
X93197152Y-80625145D01*
X93401282Y-80521136D01*
X93619170Y-80450340D01*
X93845450Y-80414501D01*
X94074550Y-80414501D01*
X94300830Y-80450340D01*
G37*
G36*
X114380830Y-80450340D02*
G01*
X114598718Y-80521136D01*
X114802848Y-80625145D01*
X114988194Y-80759807D01*
X115150193Y-80921806D01*
X115284855Y-81107152D01*
X115388864Y-81311282D01*
X115459660Y-81529170D01*
X115495499Y-81755450D01*
X115495499Y-81984550D01*
X115459660Y-82210830D01*
X115388864Y-82428718D01*
X115284855Y-82632848D01*
X115150193Y-82818194D01*
X114988194Y-82980193D01*
X114802848Y-83114855D01*
X114598718Y-83218864D01*
X114380830Y-83289660D01*
X114154550Y-83325499D01*
X113925450Y-83325499D01*
X113699170Y-83289660D01*
X113481282Y-83218864D01*
X113277152Y-83114855D01*
X113091806Y-82980193D01*
X112929807Y-82818194D01*
X112795145Y-82632848D01*
X112691136Y-82428718D01*
X112620340Y-82210830D01*
X112584501Y-81984550D01*
X112584501Y-81755450D01*
X112620340Y-81529170D01*
X112691136Y-81311282D01*
X112795145Y-81107152D01*
X112929807Y-80921806D01*
X113091806Y-80759807D01*
X113277152Y-80625145D01*
X113481282Y-80521136D01*
X113699170Y-80450340D01*
X113925450Y-80414501D01*
X114154550Y-80414501D01*
X114380830Y-80450340D01*
G37*
G36*
X53772868Y-80260476D02*
G01*
X53943113Y-80330994D01*
X54096330Y-80433370D01*
X54226630Y-80563670D01*
X54329006Y-80716887D01*
X54399524Y-80887132D01*
X54435474Y-81067864D01*
X54435474Y-81252136D01*
X54399524Y-81432868D01*
X54329006Y-81603113D01*
X54226630Y-81756330D01*
X54096330Y-81886630D01*
X53943113Y-81989006D01*
X53772868Y-82059524D01*
X53592136Y-82095474D01*
X53407864Y-82095474D01*
X53227132Y-82059524D01*
X53056887Y-81989006D01*
X52903670Y-81886630D01*
X52773370Y-81756330D01*
X52670994Y-81603113D01*
X52600476Y-81432868D01*
X52564526Y-81252136D01*
X52564526Y-81067864D01*
X52600476Y-80887132D01*
X52670994Y-80716887D01*
X52773370Y-80563670D01*
X52903670Y-80433370D01*
X53056887Y-80330994D01*
X53227132Y-80260476D01*
X53407864Y-80224526D01*
X53592136Y-80224526D01*
X53772868Y-80260476D01*
G37*
G36*
X79172868Y-80260476D02*
G01*
X79343113Y-80330994D01*
X79496330Y-80433370D01*
X79626630Y-80563670D01*
X79729006Y-80716887D01*
X79799524Y-80887132D01*
X79835474Y-81067864D01*
X79835474Y-81252136D01*
X79799524Y-81432868D01*
X79729006Y-81603113D01*
X79626630Y-81756330D01*
X79496330Y-81886630D01*
X79343113Y-81989006D01*
X79172868Y-82059524D01*
X78992136Y-82095474D01*
X78807864Y-82095474D01*
X78627132Y-82059524D01*
X78456887Y-81989006D01*
X78303670Y-81886630D01*
X78173370Y-81756330D01*
X78070994Y-81603113D01*
X78000476Y-81432868D01*
X77964526Y-81252136D01*
X77964526Y-81067864D01*
X78000476Y-80887132D01*
X78070994Y-80716887D01*
X78173370Y-80563670D01*
X78303670Y-80433370D01*
X78456887Y-80330994D01*
X78627132Y-80260476D01*
X78807864Y-80224526D01*
X78992136Y-80224526D01*
X79172868Y-80260476D01*
G37*
G36*
X97882868Y-79720476D02*
G01*
X98053113Y-79790994D01*
X98206330Y-79893370D01*
X98336630Y-80023670D01*
X98439006Y-80176887D01*
X98509524Y-80347132D01*
X98545474Y-80527864D01*
X98545474Y-80712136D01*
X98509524Y-80892868D01*
X98439006Y-81063113D01*
X98336630Y-81216330D01*
X98206330Y-81346630D01*
X98053113Y-81449006D01*
X97882868Y-81519524D01*
X97702136Y-81555474D01*
X97517864Y-81555474D01*
X97337132Y-81519524D01*
X97166887Y-81449006D01*
X97013670Y-81346630D01*
X96883370Y-81216330D01*
X96780994Y-81063113D01*
X96710476Y-80892868D01*
X96674526Y-80712136D01*
X96674526Y-80527864D01*
X96710476Y-80347132D01*
X96780994Y-80176887D01*
X96883370Y-80023670D01*
X97013670Y-79893370D01*
X97166887Y-79790994D01*
X97337132Y-79720476D01*
X97517864Y-79684526D01*
X97702136Y-79684526D01*
X97882868Y-79720476D01*
G37*
G36*
X100422868Y-79720476D02*
G01*
X100593113Y-79790994D01*
X100746330Y-79893370D01*
X100876630Y-80023670D01*
X100979006Y-80176887D01*
X101049524Y-80347132D01*
X101085474Y-80527864D01*
X101085474Y-80712136D01*
X101049524Y-80892868D01*
X100979006Y-81063113D01*
X100876630Y-81216330D01*
X100746330Y-81346630D01*
X100593113Y-81449006D01*
X100422868Y-81519524D01*
X100242136Y-81555474D01*
X100057864Y-81555474D01*
X99877132Y-81519524D01*
X99706887Y-81449006D01*
X99553670Y-81346630D01*
X99423370Y-81216330D01*
X99320994Y-81063113D01*
X99250476Y-80892868D01*
X99214526Y-80712136D01*
X99214526Y-80527864D01*
X99250476Y-80347132D01*
X99320994Y-80176887D01*
X99423370Y-80023670D01*
X99553670Y-79893370D01*
X99706887Y-79790994D01*
X99877132Y-79720476D01*
X100057864Y-79684526D01*
X100242136Y-79684526D01*
X100422868Y-79720476D01*
G37*
G36*
X102962868Y-79720476D02*
G01*
X103133113Y-79790994D01*
X103286330Y-79893370D01*
X103416630Y-80023670D01*
X103519006Y-80176887D01*
X103589524Y-80347132D01*
X103625474Y-80527864D01*
X103625474Y-80712136D01*
X103589524Y-80892868D01*
X103519006Y-81063113D01*
X103416630Y-81216330D01*
X103286330Y-81346630D01*
X103133113Y-81449006D01*
X102962868Y-81519524D01*
X102782136Y-81555474D01*
X102597864Y-81555474D01*
X102417132Y-81519524D01*
X102246887Y-81449006D01*
X102093670Y-81346630D01*
X101963370Y-81216330D01*
X101860994Y-81063113D01*
X101790476Y-80892868D01*
X101754526Y-80712136D01*
X101754526Y-80527864D01*
X101790476Y-80347132D01*
X101860994Y-80176887D01*
X101963370Y-80023670D01*
X102093670Y-79893370D01*
X102246887Y-79790994D01*
X102417132Y-79720476D01*
X102597864Y-79684526D01*
X102782136Y-79684526D01*
X102962868Y-79720476D01*
G37*
G36*
X105502868Y-79720476D02*
G01*
X105673113Y-79790994D01*
X105826330Y-79893370D01*
X105956630Y-80023670D01*
X106059006Y-80176887D01*
X106129524Y-80347132D01*
X106165474Y-80527864D01*
X106165474Y-80712136D01*
X106129524Y-80892868D01*
X106059006Y-81063113D01*
X105956630Y-81216330D01*
X105826330Y-81346630D01*
X105673113Y-81449006D01*
X105502868Y-81519524D01*
X105322136Y-81555474D01*
X105137864Y-81555474D01*
X104957132Y-81519524D01*
X104786887Y-81449006D01*
X104633670Y-81346630D01*
X104503370Y-81216330D01*
X104400994Y-81063113D01*
X104330476Y-80892868D01*
X104294526Y-80712136D01*
X104294526Y-80527864D01*
X104330476Y-80347132D01*
X104400994Y-80176887D01*
X104503370Y-80023670D01*
X104633670Y-79893370D01*
X104786887Y-79790994D01*
X104957132Y-79720476D01*
X105137864Y-79684526D01*
X105322136Y-79684526D01*
X105502868Y-79720476D01*
G37*
G36*
X108042868Y-79720476D02*
G01*
X108213113Y-79790994D01*
X108366330Y-79893370D01*
X108496630Y-80023670D01*
X108599006Y-80176887D01*
X108669524Y-80347132D01*
X108705474Y-80527864D01*
X108705474Y-80712136D01*
X108669524Y-80892868D01*
X108599006Y-81063113D01*
X108496630Y-81216330D01*
X108366330Y-81346630D01*
X108213113Y-81449006D01*
X108042868Y-81519524D01*
X107862136Y-81555474D01*
X107677864Y-81555474D01*
X107497132Y-81519524D01*
X107326887Y-81449006D01*
X107173670Y-81346630D01*
X107043370Y-81216330D01*
X106940994Y-81063113D01*
X106870476Y-80892868D01*
X106834526Y-80712136D01*
X106834526Y-80527864D01*
X106870476Y-80347132D01*
X106940994Y-80176887D01*
X107043370Y-80023670D01*
X107173670Y-79893370D01*
X107326887Y-79790994D01*
X107497132Y-79720476D01*
X107677864Y-79684526D01*
X107862136Y-79684526D01*
X108042868Y-79720476D01*
G37*
G36*
X110582868Y-79720476D02*
G01*
X110753113Y-79790994D01*
X110906330Y-79893370D01*
X111036630Y-80023670D01*
X111139006Y-80176887D01*
X111209524Y-80347132D01*
X111245474Y-80527864D01*
X111245474Y-80712136D01*
X111209524Y-80892868D01*
X111139006Y-81063113D01*
X111036630Y-81216330D01*
X110906330Y-81346630D01*
X110753113Y-81449006D01*
X110582868Y-81519524D01*
X110402136Y-81555474D01*
X110217864Y-81555474D01*
X110037132Y-81519524D01*
X109866887Y-81449006D01*
X109713670Y-81346630D01*
X109583370Y-81216330D01*
X109480994Y-81063113D01*
X109410476Y-80892868D01*
X109374526Y-80712136D01*
X109374526Y-80527864D01*
X109410476Y-80347132D01*
X109480994Y-80176887D01*
X109583370Y-80023670D01*
X109713670Y-79893370D01*
X109866887Y-79790994D01*
X110037132Y-79720476D01*
X110217864Y-79684526D01*
X110402136Y-79684526D01*
X110582868Y-79720476D01*
G37*
G36*
X26002868Y-79060476D02*
G01*
X26173113Y-79130994D01*
X26326330Y-79233370D01*
X26456630Y-79363670D01*
X26559006Y-79516887D01*
X26629524Y-79687132D01*
X26665474Y-79867864D01*
X26665474Y-80052136D01*
X26629524Y-80232868D01*
X26559006Y-80403113D01*
X26456630Y-80556330D01*
X26326330Y-80686630D01*
X26173113Y-80789006D01*
X26002868Y-80859524D01*
X25822136Y-80895474D01*
X25637864Y-80895474D01*
X25457132Y-80859524D01*
X25286887Y-80789006D01*
X25133670Y-80686630D01*
X25003370Y-80556330D01*
X24900994Y-80403113D01*
X24830476Y-80232868D01*
X24794526Y-80052136D01*
X24794526Y-79867864D01*
X24830476Y-79687132D01*
X24900994Y-79516887D01*
X25003370Y-79363670D01*
X25133670Y-79233370D01*
X25286887Y-79130994D01*
X25457132Y-79060476D01*
X25637864Y-79024526D01*
X25822136Y-79024526D01*
X26002868Y-79060476D01*
G37*
G36*
X44302868Y-79060476D02*
G01*
X44473113Y-79130994D01*
X44626330Y-79233370D01*
X44756630Y-79363670D01*
X44859006Y-79516887D01*
X44929524Y-79687132D01*
X44965474Y-79867864D01*
X44965474Y-80052136D01*
X44929524Y-80232868D01*
X44859006Y-80403113D01*
X44756630Y-80556330D01*
X44626330Y-80686630D01*
X44473113Y-80789006D01*
X44302868Y-80859524D01*
X44122136Y-80895474D01*
X43937864Y-80895474D01*
X43757132Y-80859524D01*
X43586887Y-80789006D01*
X43433670Y-80686630D01*
X43303370Y-80556330D01*
X43200994Y-80403113D01*
X43130476Y-80232868D01*
X43094526Y-80052136D01*
X43094526Y-79867864D01*
X43130476Y-79687132D01*
X43200994Y-79516887D01*
X43303370Y-79363670D01*
X43433670Y-79233370D01*
X43586887Y-79130994D01*
X43757132Y-79060476D01*
X43937864Y-79024526D01*
X44122136Y-79024526D01*
X44302868Y-79060476D01*
G37*
G36*
X53772868Y-77720476D02*
G01*
X53943113Y-77790994D01*
X54096330Y-77893370D01*
X54226630Y-78023670D01*
X54329006Y-78176887D01*
X54399524Y-78347132D01*
X54435474Y-78527864D01*
X54435474Y-78712136D01*
X54399524Y-78892868D01*
X54329006Y-79063113D01*
X54226630Y-79216330D01*
X54096330Y-79346630D01*
X53943113Y-79449006D01*
X53772868Y-79519524D01*
X53592136Y-79555474D01*
X53407864Y-79555474D01*
X53227132Y-79519524D01*
X53056887Y-79449006D01*
X52903670Y-79346630D01*
X52773370Y-79216330D01*
X52670994Y-79063113D01*
X52600476Y-78892868D01*
X52564526Y-78712136D01*
X52564526Y-78527864D01*
X52600476Y-78347132D01*
X52670994Y-78176887D01*
X52773370Y-78023670D01*
X52903670Y-77893370D01*
X53056887Y-77790994D01*
X53227132Y-77720476D01*
X53407864Y-77684526D01*
X53592136Y-77684526D01*
X53772868Y-77720476D01*
G37*
G36*
X79172868Y-77720476D02*
G01*
X79343113Y-77790994D01*
X79496330Y-77893370D01*
X79626630Y-78023670D01*
X79729006Y-78176887D01*
X79799524Y-78347132D01*
X79835474Y-78527864D01*
X79835474Y-78712136D01*
X79799524Y-78892868D01*
X79729006Y-79063113D01*
X79626630Y-79216330D01*
X79496330Y-79346630D01*
X79343113Y-79449006D01*
X79172868Y-79519524D01*
X78992136Y-79555474D01*
X78807864Y-79555474D01*
X78627132Y-79519524D01*
X78456887Y-79449006D01*
X78303670Y-79346630D01*
X78173370Y-79216330D01*
X78070994Y-79063113D01*
X78000476Y-78892868D01*
X77964526Y-78712136D01*
X77964526Y-78527864D01*
X78000476Y-78347132D01*
X78070994Y-78176887D01*
X78173370Y-78023670D01*
X78303670Y-77893370D01*
X78456887Y-77790994D01*
X78627132Y-77720476D01*
X78807864Y-77684526D01*
X78992136Y-77684526D01*
X79172868Y-77720476D01*
G37*
G36*
X53772868Y-75180476D02*
G01*
X53943113Y-75250994D01*
X54096330Y-75353370D01*
X54226630Y-75483670D01*
X54329006Y-75636887D01*
X54399524Y-75807132D01*
X54435474Y-75987864D01*
X54435474Y-76172136D01*
X54399524Y-76352868D01*
X54329006Y-76523113D01*
X54226630Y-76676330D01*
X54096330Y-76806630D01*
X53943113Y-76909006D01*
X53772868Y-76979524D01*
X53592136Y-77015474D01*
X53407864Y-77015474D01*
X53227132Y-76979524D01*
X53056887Y-76909006D01*
X52903670Y-76806630D01*
X52773370Y-76676330D01*
X52670994Y-76523113D01*
X52600476Y-76352868D01*
X52564526Y-76172136D01*
X52564526Y-75987864D01*
X52600476Y-75807132D01*
X52670994Y-75636887D01*
X52773370Y-75483670D01*
X52903670Y-75353370D01*
X53056887Y-75250994D01*
X53227132Y-75180476D01*
X53407864Y-75144526D01*
X53592136Y-75144526D01*
X53772868Y-75180476D01*
G37*
G36*
X79172868Y-75180476D02*
G01*
X79343113Y-75250994D01*
X79496330Y-75353370D01*
X79626630Y-75483670D01*
X79729006Y-75636887D01*
X79799524Y-75807132D01*
X79835474Y-75987864D01*
X79835474Y-76172136D01*
X79799524Y-76352868D01*
X79729006Y-76523113D01*
X79626630Y-76676330D01*
X79496330Y-76806630D01*
X79343113Y-76909006D01*
X79172868Y-76979524D01*
X78992136Y-77015474D01*
X78807864Y-77015474D01*
X78627132Y-76979524D01*
X78456887Y-76909006D01*
X78303670Y-76806630D01*
X78173370Y-76676330D01*
X78070994Y-76523113D01*
X78000476Y-76352868D01*
X77964526Y-76172136D01*
X77964526Y-75987864D01*
X78000476Y-75807132D01*
X78070994Y-75636887D01*
X78173370Y-75483670D01*
X78303670Y-75353370D01*
X78456887Y-75250994D01*
X78627132Y-75180476D01*
X78807864Y-75144526D01*
X78992136Y-75144526D01*
X79172868Y-75180476D01*
G37*
G36*
X53772868Y-72640476D02*
G01*
X53943113Y-72710994D01*
X54096330Y-72813370D01*
X54226630Y-72943670D01*
X54329006Y-73096887D01*
X54399524Y-73267132D01*
X54435474Y-73447864D01*
X54435474Y-73632136D01*
X54399524Y-73812868D01*
X54329006Y-73983113D01*
X54226630Y-74136330D01*
X54096330Y-74266630D01*
X53943113Y-74369006D01*
X53772868Y-74439524D01*
X53592136Y-74475474D01*
X53407864Y-74475474D01*
X53227132Y-74439524D01*
X53056887Y-74369006D01*
X52903670Y-74266630D01*
X52773370Y-74136330D01*
X52670994Y-73983113D01*
X52600476Y-73812868D01*
X52564526Y-73632136D01*
X52564526Y-73447864D01*
X52600476Y-73267132D01*
X52670994Y-73096887D01*
X52773370Y-72943670D01*
X52903670Y-72813370D01*
X53056887Y-72710994D01*
X53227132Y-72640476D01*
X53407864Y-72604526D01*
X53592136Y-72604526D01*
X53772868Y-72640476D01*
G37*
G36*
X79172868Y-72640476D02*
G01*
X79343113Y-72710994D01*
X79496330Y-72813370D01*
X79626630Y-72943670D01*
X79729006Y-73096887D01*
X79799524Y-73267132D01*
X79835474Y-73447864D01*
X79835474Y-73632136D01*
X79799524Y-73812868D01*
X79729006Y-73983113D01*
X79626630Y-74136330D01*
X79496330Y-74266630D01*
X79343113Y-74369006D01*
X79172868Y-74439524D01*
X78992136Y-74475474D01*
X78807864Y-74475474D01*
X78627132Y-74439524D01*
X78456887Y-74369006D01*
X78303670Y-74266630D01*
X78173370Y-74136330D01*
X78070994Y-73983113D01*
X78000476Y-73812868D01*
X77964526Y-73632136D01*
X77964526Y-73447864D01*
X78000476Y-73267132D01*
X78070994Y-73096887D01*
X78173370Y-72943670D01*
X78303670Y-72813370D01*
X78456887Y-72710994D01*
X78627132Y-72640476D01*
X78807864Y-72604526D01*
X78992136Y-72604526D01*
X79172868Y-72640476D01*
G37*
G36*
X26002868Y-70140476D02*
G01*
X26173113Y-70210994D01*
X26326330Y-70313370D01*
X26456630Y-70443670D01*
X26559006Y-70596887D01*
X26629524Y-70767132D01*
X26665474Y-70947864D01*
X26665474Y-71132136D01*
X26629524Y-71312868D01*
X26559006Y-71483113D01*
X26456630Y-71636330D01*
X26326330Y-71766630D01*
X26173113Y-71869006D01*
X26002868Y-71939524D01*
X25822136Y-71975474D01*
X25637864Y-71975474D01*
X25457132Y-71939524D01*
X25286887Y-71869006D01*
X25133670Y-71766630D01*
X25003370Y-71636330D01*
X24900994Y-71483113D01*
X24830476Y-71312868D01*
X24794526Y-71132136D01*
X24794526Y-70947864D01*
X24830476Y-70767132D01*
X24900994Y-70596887D01*
X25003370Y-70443670D01*
X25133670Y-70313370D01*
X25286887Y-70210994D01*
X25457132Y-70140476D01*
X25637864Y-70104526D01*
X25822136Y-70104526D01*
X26002868Y-70140476D01*
G37*
G36*
X44302868Y-70140476D02*
G01*
X44473113Y-70210994D01*
X44626330Y-70313370D01*
X44756630Y-70443670D01*
X44859006Y-70596887D01*
X44929524Y-70767132D01*
X44965474Y-70947864D01*
X44965474Y-71132136D01*
X44929524Y-71312868D01*
X44859006Y-71483113D01*
X44756630Y-71636330D01*
X44626330Y-71766630D01*
X44473113Y-71869006D01*
X44302868Y-71939524D01*
X44122136Y-71975474D01*
X43937864Y-71975474D01*
X43757132Y-71939524D01*
X43586887Y-71869006D01*
X43433670Y-71766630D01*
X43303370Y-71636330D01*
X43200994Y-71483113D01*
X43130476Y-71312868D01*
X43094526Y-71132136D01*
X43094526Y-70947864D01*
X43130476Y-70767132D01*
X43200994Y-70596887D01*
X43303370Y-70443670D01*
X43433670Y-70313370D01*
X43586887Y-70210994D01*
X43757132Y-70140476D01*
X43937864Y-70104526D01*
X44122136Y-70104526D01*
X44302868Y-70140476D01*
G37*
G36*
X53772868Y-70100476D02*
G01*
X53943113Y-70170994D01*
X54096330Y-70273370D01*
X54226630Y-70403670D01*
X54329006Y-70556887D01*
X54399524Y-70727132D01*
X54435474Y-70907864D01*
X54435474Y-71092136D01*
X54399524Y-71272868D01*
X54329006Y-71443113D01*
X54226630Y-71596330D01*
X54096330Y-71726630D01*
X53943113Y-71829006D01*
X53772868Y-71899524D01*
X53592136Y-71935474D01*
X53407864Y-71935474D01*
X53227132Y-71899524D01*
X53056887Y-71829006D01*
X52903670Y-71726630D01*
X52773370Y-71596330D01*
X52670994Y-71443113D01*
X52600476Y-71272868D01*
X52564526Y-71092136D01*
X52564526Y-70907864D01*
X52600476Y-70727132D01*
X52670994Y-70556887D01*
X52773370Y-70403670D01*
X52903670Y-70273370D01*
X53056887Y-70170994D01*
X53227132Y-70100476D01*
X53407864Y-70064526D01*
X53592136Y-70064526D01*
X53772868Y-70100476D01*
G37*
G36*
X79172868Y-70100476D02*
G01*
X79343113Y-70170994D01*
X79496330Y-70273370D01*
X79626630Y-70403670D01*
X79729006Y-70556887D01*
X79799524Y-70727132D01*
X79835474Y-70907864D01*
X79835474Y-71092136D01*
X79799524Y-71272868D01*
X79729006Y-71443113D01*
X79626630Y-71596330D01*
X79496330Y-71726630D01*
X79343113Y-71829006D01*
X79172868Y-71899524D01*
X78992136Y-71935474D01*
X78807864Y-71935474D01*
X78627132Y-71899524D01*
X78456887Y-71829006D01*
X78303670Y-71726630D01*
X78173370Y-71596330D01*
X78070994Y-71443113D01*
X78000476Y-71272868D01*
X77964526Y-71092136D01*
X77964526Y-70907864D01*
X78000476Y-70727132D01*
X78070994Y-70556887D01*
X78173370Y-70403670D01*
X78303670Y-70273370D01*
X78456887Y-70170994D01*
X78627132Y-70100476D01*
X78807864Y-70064526D01*
X78992136Y-70064526D01*
X79172868Y-70100476D01*
G37*
G36*
X26002868Y-67600476D02*
G01*
X26173113Y-67670994D01*
X26326330Y-67773370D01*
X26456630Y-67903670D01*
X26559006Y-68056887D01*
X26629524Y-68227132D01*
X26665474Y-68407864D01*
X26665474Y-68592136D01*
X26629524Y-68772868D01*
X26559006Y-68943113D01*
X26456630Y-69096330D01*
X26326330Y-69226630D01*
X26173113Y-69329006D01*
X26002868Y-69399524D01*
X25822136Y-69435474D01*
X25637864Y-69435474D01*
X25457132Y-69399524D01*
X25286887Y-69329006D01*
X25133670Y-69226630D01*
X25003370Y-69096330D01*
X24900994Y-68943113D01*
X24830476Y-68772868D01*
X24794526Y-68592136D01*
X24794526Y-68407864D01*
X24830476Y-68227132D01*
X24900994Y-68056887D01*
X25003370Y-67903670D01*
X25133670Y-67773370D01*
X25286887Y-67670994D01*
X25457132Y-67600476D01*
X25637864Y-67564526D01*
X25822136Y-67564526D01*
X26002868Y-67600476D01*
G37*
G36*
X44302868Y-67600476D02*
G01*
X44473113Y-67670994D01*
X44626330Y-67773370D01*
X44756630Y-67903670D01*
X44859006Y-68056887D01*
X44929524Y-68227132D01*
X44965474Y-68407864D01*
X44965474Y-68592136D01*
X44929524Y-68772868D01*
X44859006Y-68943113D01*
X44756630Y-69096330D01*
X44626330Y-69226630D01*
X44473113Y-69329006D01*
X44302868Y-69399524D01*
X44122136Y-69435474D01*
X43937864Y-69435474D01*
X43757132Y-69399524D01*
X43586887Y-69329006D01*
X43433670Y-69226630D01*
X43303370Y-69096330D01*
X43200994Y-68943113D01*
X43130476Y-68772868D01*
X43094526Y-68592136D01*
X43094526Y-68407864D01*
X43130476Y-68227132D01*
X43200994Y-68056887D01*
X43303370Y-67903670D01*
X43433670Y-67773370D01*
X43586887Y-67670994D01*
X43757132Y-67600476D01*
X43937864Y-67564526D01*
X44122136Y-67564526D01*
X44302868Y-67600476D01*
G37*
G36*
X53772868Y-67560476D02*
G01*
X53943113Y-67630994D01*
X54096330Y-67733370D01*
X54226630Y-67863670D01*
X54329006Y-68016887D01*
X54399524Y-68187132D01*
X54435474Y-68367864D01*
X54435474Y-68552136D01*
X54399524Y-68732868D01*
X54329006Y-68903113D01*
X54226630Y-69056330D01*
X54096330Y-69186630D01*
X53943113Y-69289006D01*
X53772868Y-69359524D01*
X53592136Y-69395474D01*
X53407864Y-69395474D01*
X53227132Y-69359524D01*
X53056887Y-69289006D01*
X52903670Y-69186630D01*
X52773370Y-69056330D01*
X52670994Y-68903113D01*
X52600476Y-68732868D01*
X52564526Y-68552136D01*
X52564526Y-68367864D01*
X52600476Y-68187132D01*
X52670994Y-68016887D01*
X52773370Y-67863670D01*
X52903670Y-67733370D01*
X53056887Y-67630994D01*
X53227132Y-67560476D01*
X53407864Y-67524526D01*
X53592136Y-67524526D01*
X53772868Y-67560476D01*
G37*
G36*
X79172868Y-67560476D02*
G01*
X79343113Y-67630994D01*
X79496330Y-67733370D01*
X79626630Y-67863670D01*
X79729006Y-68016887D01*
X79799524Y-68187132D01*
X79835474Y-68367864D01*
X79835474Y-68552136D01*
X79799524Y-68732868D01*
X79729006Y-68903113D01*
X79626630Y-69056330D01*
X79496330Y-69186630D01*
X79343113Y-69289006D01*
X79172868Y-69359524D01*
X78992136Y-69395474D01*
X78807864Y-69395474D01*
X78627132Y-69359524D01*
X78456887Y-69289006D01*
X78303670Y-69186630D01*
X78173370Y-69056330D01*
X78070994Y-68903113D01*
X78000476Y-68732868D01*
X77964526Y-68552136D01*
X77964526Y-68367864D01*
X78000476Y-68187132D01*
X78070994Y-68016887D01*
X78173370Y-67863670D01*
X78303670Y-67733370D01*
X78456887Y-67630994D01*
X78627132Y-67560476D01*
X78807864Y-67524526D01*
X78992136Y-67524526D01*
X79172868Y-67560476D01*
G37*
G36*
X53772868Y-65020476D02*
G01*
X53943113Y-65090994D01*
X54096330Y-65193370D01*
X54226630Y-65323670D01*
X54329006Y-65476887D01*
X54399524Y-65647132D01*
X54435474Y-65827864D01*
X54435474Y-66012136D01*
X54399524Y-66192868D01*
X54329006Y-66363113D01*
X54226630Y-66516330D01*
X54096330Y-66646630D01*
X53943113Y-66749006D01*
X53772868Y-66819524D01*
X53592136Y-66855474D01*
X53407864Y-66855474D01*
X53227132Y-66819524D01*
X53056887Y-66749006D01*
X52903670Y-66646630D01*
X52773370Y-66516330D01*
X52670994Y-66363113D01*
X52600476Y-66192868D01*
X52564526Y-66012136D01*
X52564526Y-65827864D01*
X52600476Y-65647132D01*
X52670994Y-65476887D01*
X52773370Y-65323670D01*
X52903670Y-65193370D01*
X53056887Y-65090994D01*
X53227132Y-65020476D01*
X53407864Y-64984526D01*
X53592136Y-64984526D01*
X53772868Y-65020476D01*
G37*
G36*
X79172868Y-65020476D02*
G01*
X79343113Y-65090994D01*
X79496330Y-65193370D01*
X79626630Y-65323670D01*
X79729006Y-65476887D01*
X79799524Y-65647132D01*
X79835474Y-65827864D01*
X79835474Y-66012136D01*
X79799524Y-66192868D01*
X79729006Y-66363113D01*
X79626630Y-66516330D01*
X79496330Y-66646630D01*
X79343113Y-66749006D01*
X79172868Y-66819524D01*
X78992136Y-66855474D01*
X78807864Y-66855474D01*
X78627132Y-66819524D01*
X78456887Y-66749006D01*
X78303670Y-66646630D01*
X78173370Y-66516330D01*
X78070994Y-66363113D01*
X78000476Y-66192868D01*
X77964526Y-66012136D01*
X77964526Y-65827864D01*
X78000476Y-65647132D01*
X78070994Y-65476887D01*
X78173370Y-65323670D01*
X78303670Y-65193370D01*
X78456887Y-65090994D01*
X78627132Y-65020476D01*
X78807864Y-64984526D01*
X78992136Y-64984526D01*
X79172868Y-65020476D01*
G37*
G36*
X53772868Y-62480476D02*
G01*
X53943113Y-62550994D01*
X54096330Y-62653370D01*
X54226630Y-62783670D01*
X54329006Y-62936887D01*
X54399524Y-63107132D01*
X54435474Y-63287864D01*
X54435474Y-63472136D01*
X54399524Y-63652868D01*
X54329006Y-63823113D01*
X54226630Y-63976330D01*
X54096330Y-64106630D01*
X53943113Y-64209006D01*
X53772868Y-64279524D01*
X53592136Y-64315474D01*
X53407864Y-64315474D01*
X53227132Y-64279524D01*
X53056887Y-64209006D01*
X52903670Y-64106630D01*
X52773370Y-63976330D01*
X52670994Y-63823113D01*
X52600476Y-63652868D01*
X52564526Y-63472136D01*
X52564526Y-63287864D01*
X52600476Y-63107132D01*
X52670994Y-62936887D01*
X52773370Y-62783670D01*
X52903670Y-62653370D01*
X53056887Y-62550994D01*
X53227132Y-62480476D01*
X53407864Y-62444526D01*
X53592136Y-62444526D01*
X53772868Y-62480476D01*
G37*
G36*
X79172868Y-62480476D02*
G01*
X79343113Y-62550994D01*
X79496330Y-62653370D01*
X79626630Y-62783670D01*
X79729006Y-62936887D01*
X79799524Y-63107132D01*
X79835474Y-63287864D01*
X79835474Y-63472136D01*
X79799524Y-63652868D01*
X79729006Y-63823113D01*
X79626630Y-63976330D01*
X79496330Y-64106630D01*
X79343113Y-64209006D01*
X79172868Y-64279524D01*
X78992136Y-64315474D01*
X78807864Y-64315474D01*
X78627132Y-64279524D01*
X78456887Y-64209006D01*
X78303670Y-64106630D01*
X78173370Y-63976330D01*
X78070994Y-63823113D01*
X78000476Y-63652868D01*
X77964526Y-63472136D01*
X77964526Y-63287864D01*
X78000476Y-63107132D01*
X78070994Y-62936887D01*
X78173370Y-62783670D01*
X78303670Y-62653370D01*
X78456887Y-62550994D01*
X78627132Y-62480476D01*
X78807864Y-62444526D01*
X78992136Y-62444526D01*
X79172868Y-62480476D01*
G37*
G36*
X27531163Y-59564586D02*
G01*
X27758591Y-59625526D01*
X27976120Y-59715629D01*
X28180026Y-59833355D01*
X28366822Y-59976688D01*
X28533312Y-60143178D01*
X28676645Y-60329974D01*
X28794371Y-60533880D01*
X28884474Y-60751409D01*
X28945414Y-60978837D01*
X28976146Y-61212274D01*
X28976146Y-61447726D01*
X28945414Y-61681163D01*
X28884474Y-61908591D01*
X28794371Y-62126120D01*
X28676645Y-62330026D01*
X28533312Y-62516822D01*
X28366822Y-62683312D01*
X28180026Y-62826645D01*
X27976120Y-62944371D01*
X27758591Y-63034474D01*
X27531163Y-63095414D01*
X27297726Y-63126146D01*
X27062274Y-63126146D01*
X26828837Y-63095414D01*
X26601409Y-63034474D01*
X26383880Y-62944371D01*
X26179974Y-62826645D01*
X25993178Y-62683312D01*
X25826688Y-62516822D01*
X25683355Y-62330026D01*
X25565629Y-62126120D01*
X25475526Y-61908591D01*
X25414586Y-61681163D01*
X25383854Y-61447726D01*
X25383854Y-61212274D01*
X25414586Y-60978837D01*
X25475526Y-60751409D01*
X25565629Y-60533880D01*
X25683355Y-60329974D01*
X25826688Y-60143178D01*
X25993178Y-59976688D01*
X26179974Y-59833355D01*
X26383880Y-59715629D01*
X26601409Y-59625526D01*
X26828837Y-59564586D01*
X27062274Y-59533854D01*
X27297726Y-59533854D01*
X27531163Y-59564586D01*
G37*
G36*
X47851163Y-59564586D02*
G01*
X48078591Y-59625526D01*
X48296120Y-59715629D01*
X48500026Y-59833355D01*
X48686822Y-59976688D01*
X48853312Y-60143178D01*
X48996645Y-60329974D01*
X49114371Y-60533880D01*
X49204474Y-60751409D01*
X49265414Y-60978837D01*
X49296146Y-61212274D01*
X49296146Y-61447726D01*
X49265414Y-61681163D01*
X49204474Y-61908591D01*
X49114371Y-62126120D01*
X48996645Y-62330026D01*
X48853312Y-62516822D01*
X48686822Y-62683312D01*
X48500026Y-62826645D01*
X48296120Y-62944371D01*
X48078591Y-63034474D01*
X47851163Y-63095414D01*
X47617726Y-63126146D01*
X47382274Y-63126146D01*
X47148837Y-63095414D01*
X46921409Y-63034474D01*
X46703880Y-62944371D01*
X46499974Y-62826645D01*
X46313178Y-62683312D01*
X46146688Y-62516822D01*
X46003355Y-62330026D01*
X45885629Y-62126120D01*
X45795526Y-61908591D01*
X45734586Y-61681163D01*
X45703854Y-61447726D01*
X45703854Y-61212274D01*
X45734586Y-60978837D01*
X45795526Y-60751409D01*
X45885629Y-60533880D01*
X46003355Y-60329974D01*
X46146688Y-60143178D01*
X46313178Y-59976688D01*
X46499974Y-59833355D01*
X46703880Y-59715629D01*
X46921409Y-59625526D01*
X47148837Y-59564586D01*
X47382274Y-59533854D01*
X47617726Y-59533854D01*
X47851163Y-59564586D01*
G37*
G36*
X32532868Y-60430476D02*
G01*
X32703113Y-60500994D01*
X32856330Y-60603370D01*
X32986630Y-60733670D01*
X33089006Y-60886887D01*
X33159524Y-61057132D01*
X33195474Y-61237864D01*
X33195474Y-61422136D01*
X33159524Y-61602868D01*
X33089006Y-61773113D01*
X32986630Y-61926330D01*
X32856330Y-62056630D01*
X32703113Y-62159006D01*
X32532868Y-62229524D01*
X32352136Y-62265474D01*
X32167864Y-62265474D01*
X31987132Y-62229524D01*
X31816887Y-62159006D01*
X31663670Y-62056630D01*
X31533370Y-61926330D01*
X31430994Y-61773113D01*
X31360476Y-61602868D01*
X31324526Y-61422136D01*
X31324526Y-61237864D01*
X31360476Y-61057132D01*
X31430994Y-60886887D01*
X31533370Y-60733670D01*
X31663670Y-60603370D01*
X31816887Y-60500994D01*
X31987132Y-60430476D01*
X32167864Y-60394526D01*
X32352136Y-60394526D01*
X32532868Y-60430476D01*
G37*
G36*
X35072868Y-60430476D02*
G01*
X35243113Y-60500994D01*
X35396330Y-60603370D01*
X35526630Y-60733670D01*
X35629006Y-60886887D01*
X35699524Y-61057132D01*
X35735474Y-61237864D01*
X35735474Y-61422136D01*
X35699524Y-61602868D01*
X35629006Y-61773113D01*
X35526630Y-61926330D01*
X35396330Y-62056630D01*
X35243113Y-62159006D01*
X35072868Y-62229524D01*
X34892136Y-62265474D01*
X34707864Y-62265474D01*
X34527132Y-62229524D01*
X34356887Y-62159006D01*
X34203670Y-62056630D01*
X34073370Y-61926330D01*
X33970994Y-61773113D01*
X33900476Y-61602868D01*
X33864526Y-61422136D01*
X33864526Y-61237864D01*
X33900476Y-61057132D01*
X33970994Y-60886887D01*
X34073370Y-60733670D01*
X34203670Y-60603370D01*
X34356887Y-60500994D01*
X34527132Y-60430476D01*
X34707864Y-60394526D01*
X34892136Y-60394526D01*
X35072868Y-60430476D01*
G37*
G36*
X37612868Y-60430476D02*
G01*
X37783113Y-60500994D01*
X37936330Y-60603370D01*
X38066630Y-60733670D01*
X38169006Y-60886887D01*
X38239524Y-61057132D01*
X38275474Y-61237864D01*
X38275474Y-61422136D01*
X38239524Y-61602868D01*
X38169006Y-61773113D01*
X38066630Y-61926330D01*
X37936330Y-62056630D01*
X37783113Y-62159006D01*
X37612868Y-62229524D01*
X37432136Y-62265474D01*
X37247864Y-62265474D01*
X37067132Y-62229524D01*
X36896887Y-62159006D01*
X36743670Y-62056630D01*
X36613370Y-61926330D01*
X36510994Y-61773113D01*
X36440476Y-61602868D01*
X36404526Y-61422136D01*
X36404526Y-61237864D01*
X36440476Y-61057132D01*
X36510994Y-60886887D01*
X36613370Y-60733670D01*
X36743670Y-60603370D01*
X36896887Y-60500994D01*
X37067132Y-60430476D01*
X37247864Y-60394526D01*
X37432136Y-60394526D01*
X37612868Y-60430476D01*
G37*
G36*
X40152868Y-60430476D02*
G01*
X40323113Y-60500994D01*
X40476330Y-60603370D01*
X40606630Y-60733670D01*
X40709006Y-60886887D01*
X40779524Y-61057132D01*
X40815474Y-61237864D01*
X40815474Y-61422136D01*
X40779524Y-61602868D01*
X40709006Y-61773113D01*
X40606630Y-61926330D01*
X40476330Y-62056630D01*
X40323113Y-62159006D01*
X40152868Y-62229524D01*
X39972136Y-62265474D01*
X39787864Y-62265474D01*
X39607132Y-62229524D01*
X39436887Y-62159006D01*
X39283670Y-62056630D01*
X39153370Y-61926330D01*
X39050994Y-61773113D01*
X38980476Y-61602868D01*
X38944526Y-61422136D01*
X38944526Y-61237864D01*
X38980476Y-61057132D01*
X39050994Y-60886887D01*
X39153370Y-60733670D01*
X39283670Y-60603370D01*
X39436887Y-60500994D01*
X39607132Y-60430476D01*
X39787864Y-60394526D01*
X39972136Y-60394526D01*
X40152868Y-60430476D01*
G37*
G36*
X42692868Y-60430476D02*
G01*
X42863113Y-60500994D01*
X43016330Y-60603370D01*
X43146630Y-60733670D01*
X43249006Y-60886887D01*
X43319524Y-61057132D01*
X43355474Y-61237864D01*
X43355474Y-61422136D01*
X43319524Y-61602868D01*
X43249006Y-61773113D01*
X43146630Y-61926330D01*
X43016330Y-62056630D01*
X42863113Y-62159006D01*
X42692868Y-62229524D01*
X42512136Y-62265474D01*
X42327864Y-62265474D01*
X42147132Y-62229524D01*
X41976887Y-62159006D01*
X41823670Y-62056630D01*
X41693370Y-61926330D01*
X41590994Y-61773113D01*
X41520476Y-61602868D01*
X41484526Y-61422136D01*
X41484526Y-61237864D01*
X41520476Y-61057132D01*
X41590994Y-60886887D01*
X41693370Y-60733670D01*
X41823670Y-60603370D01*
X41976887Y-60500994D01*
X42147132Y-60430476D01*
X42327864Y-60394526D01*
X42512136Y-60394526D01*
X42692868Y-60430476D01*
G37*
G36*
X53772868Y-59940476D02*
G01*
X53943113Y-60010994D01*
X54096330Y-60113370D01*
X54226630Y-60243670D01*
X54329006Y-60396887D01*
X54399524Y-60567132D01*
X54435474Y-60747864D01*
X54435474Y-60932136D01*
X54399524Y-61112868D01*
X54329006Y-61283113D01*
X54226630Y-61436330D01*
X54096330Y-61566630D01*
X53943113Y-61669006D01*
X53772868Y-61739524D01*
X53592136Y-61775474D01*
X53407864Y-61775474D01*
X53227132Y-61739524D01*
X53056887Y-61669006D01*
X52903670Y-61566630D01*
X52773370Y-61436330D01*
X52670994Y-61283113D01*
X52600476Y-61112868D01*
X52564526Y-60932136D01*
X52564526Y-60747864D01*
X52600476Y-60567132D01*
X52670994Y-60396887D01*
X52773370Y-60243670D01*
X52903670Y-60113370D01*
X53056887Y-60010994D01*
X53227132Y-59940476D01*
X53407864Y-59904526D01*
X53592136Y-59904526D01*
X53772868Y-59940476D01*
G37*
G36*
X79172868Y-59940476D02*
G01*
X79343113Y-60010994D01*
X79496330Y-60113370D01*
X79626630Y-60243670D01*
X79729006Y-60396887D01*
X79799524Y-60567132D01*
X79835474Y-60747864D01*
X79835474Y-60932136D01*
X79799524Y-61112868D01*
X79729006Y-61283113D01*
X79626630Y-61436330D01*
X79496330Y-61566630D01*
X79343113Y-61669006D01*
X79172868Y-61739524D01*
X78992136Y-61775474D01*
X78807864Y-61775474D01*
X78627132Y-61739524D01*
X78456887Y-61669006D01*
X78303670Y-61566630D01*
X78173370Y-61436330D01*
X78070994Y-61283113D01*
X78000476Y-61112868D01*
X77964526Y-60932136D01*
X77964526Y-60747864D01*
X78000476Y-60567132D01*
X78070994Y-60396887D01*
X78173370Y-60243670D01*
X78303670Y-60113370D01*
X78456887Y-60010994D01*
X78627132Y-59940476D01*
X78807864Y-59904526D01*
X78992136Y-59904526D01*
X79172868Y-59940476D01*
G37*
G36*
X53772868Y-57400476D02*
G01*
X53943113Y-57470994D01*
X54096330Y-57573370D01*
X54226630Y-57703670D01*
X54329006Y-57856887D01*
X54399524Y-58027132D01*
X54435474Y-58207864D01*
X54435474Y-58392136D01*
X54399524Y-58572868D01*
X54329006Y-58743113D01*
X54226630Y-58896330D01*
X54096330Y-59026630D01*
X53943113Y-59129006D01*
X53772868Y-59199524D01*
X53592136Y-59235474D01*
X53407864Y-59235474D01*
X53227132Y-59199524D01*
X53056887Y-59129006D01*
X52903670Y-59026630D01*
X52773370Y-58896330D01*
X52670994Y-58743113D01*
X52600476Y-58572868D01*
X52564526Y-58392136D01*
X52564526Y-58207864D01*
X52600476Y-58027132D01*
X52670994Y-57856887D01*
X52773370Y-57703670D01*
X52903670Y-57573370D01*
X53056887Y-57470994D01*
X53227132Y-57400476D01*
X53407864Y-57364526D01*
X53592136Y-57364526D01*
X53772868Y-57400476D01*
G37*
G36*
X79172868Y-57400476D02*
G01*
X79343113Y-57470994D01*
X79496330Y-57573370D01*
X79626630Y-57703670D01*
X79729006Y-57856887D01*
X79799524Y-58027132D01*
X79835474Y-58207864D01*
X79835474Y-58392136D01*
X79799524Y-58572868D01*
X79729006Y-58743113D01*
X79626630Y-58896330D01*
X79496330Y-59026630D01*
X79343113Y-59129006D01*
X79172868Y-59199524D01*
X78992136Y-59235474D01*
X78807864Y-59235474D01*
X78627132Y-59199524D01*
X78456887Y-59129006D01*
X78303670Y-59026630D01*
X78173370Y-58896330D01*
X78070994Y-58743113D01*
X78000476Y-58572868D01*
X77964526Y-58392136D01*
X77964526Y-58207864D01*
X78000476Y-58027132D01*
X78070994Y-57856887D01*
X78173370Y-57703670D01*
X78303670Y-57573370D01*
X78456887Y-57470994D01*
X78627132Y-57400476D01*
X78807864Y-57364526D01*
X78992136Y-57364526D01*
X79172868Y-57400476D01*
G37*
G36*
X53772868Y-54860476D02*
G01*
X53943113Y-54930994D01*
X54096330Y-55033370D01*
X54226630Y-55163670D01*
X54329006Y-55316887D01*
X54399524Y-55487132D01*
X54435474Y-55667864D01*
X54435474Y-55852136D01*
X54399524Y-56032868D01*
X54329006Y-56203113D01*
X54226630Y-56356330D01*
X54096330Y-56486630D01*
X53943113Y-56589006D01*
X53772868Y-56659524D01*
X53592136Y-56695474D01*
X53407864Y-56695474D01*
X53227132Y-56659524D01*
X53056887Y-56589006D01*
X52903670Y-56486630D01*
X52773370Y-56356330D01*
X52670994Y-56203113D01*
X52600476Y-56032868D01*
X52564526Y-55852136D01*
X52564526Y-55667864D01*
X52600476Y-55487132D01*
X52670994Y-55316887D01*
X52773370Y-55163670D01*
X52903670Y-55033370D01*
X53056887Y-54930994D01*
X53227132Y-54860476D01*
X53407864Y-54824526D01*
X53592136Y-54824526D01*
X53772868Y-54860476D01*
G37*
G36*
X79172868Y-54860476D02*
G01*
X79343113Y-54930994D01*
X79496330Y-55033370D01*
X79626630Y-55163670D01*
X79729006Y-55316887D01*
X79799524Y-55487132D01*
X79835474Y-55667864D01*
X79835474Y-55852136D01*
X79799524Y-56032868D01*
X79729006Y-56203113D01*
X79626630Y-56356330D01*
X79496330Y-56486630D01*
X79343113Y-56589006D01*
X79172868Y-56659524D01*
X78992136Y-56695474D01*
X78807864Y-56695474D01*
X78627132Y-56659524D01*
X78456887Y-56589006D01*
X78303670Y-56486630D01*
X78173370Y-56356330D01*
X78070994Y-56203113D01*
X78000476Y-56032868D01*
X77964526Y-55852136D01*
X77964526Y-55667864D01*
X78000476Y-55487132D01*
X78070994Y-55316887D01*
X78173370Y-55163670D01*
X78303670Y-55033370D01*
X78456887Y-54930994D01*
X78627132Y-54860476D01*
X78807864Y-54824526D01*
X78992136Y-54824526D01*
X79172868Y-54860476D01*
G37*
G36*
X53772868Y-52320476D02*
G01*
X53943113Y-52390994D01*
X54096330Y-52493370D01*
X54226630Y-52623670D01*
X54329006Y-52776887D01*
X54399524Y-52947132D01*
X54435474Y-53127864D01*
X54435474Y-53312136D01*
X54399524Y-53492868D01*
X54329006Y-53663113D01*
X54226630Y-53816330D01*
X54096330Y-53946630D01*
X53943113Y-54049006D01*
X53772868Y-54119524D01*
X53592136Y-54155474D01*
X53407864Y-54155474D01*
X53227132Y-54119524D01*
X53056887Y-54049006D01*
X52903670Y-53946630D01*
X52773370Y-53816330D01*
X52670994Y-53663113D01*
X52600476Y-53492868D01*
X52564526Y-53312136D01*
X52564526Y-53127864D01*
X52600476Y-52947132D01*
X52670994Y-52776887D01*
X52773370Y-52623670D01*
X52903670Y-52493370D01*
X53056887Y-52390994D01*
X53227132Y-52320476D01*
X53407864Y-52284526D01*
X53592136Y-52284526D01*
X53772868Y-52320476D01*
G37*
G36*
X79172868Y-52320476D02*
G01*
X79343113Y-52390994D01*
X79496330Y-52493370D01*
X79626630Y-52623670D01*
X79729006Y-52776887D01*
X79799524Y-52947132D01*
X79835474Y-53127864D01*
X79835474Y-53312136D01*
X79799524Y-53492868D01*
X79729006Y-53663113D01*
X79626630Y-53816330D01*
X79496330Y-53946630D01*
X79343113Y-54049006D01*
X79172868Y-54119524D01*
X78992136Y-54155474D01*
X78807864Y-54155474D01*
X78627132Y-54119524D01*
X78456887Y-54049006D01*
X78303670Y-53946630D01*
X78173370Y-53816330D01*
X78070994Y-53663113D01*
X78000476Y-53492868D01*
X77964526Y-53312136D01*
X77964526Y-53127864D01*
X78000476Y-52947132D01*
X78070994Y-52776887D01*
X78173370Y-52623670D01*
X78303670Y-52493370D01*
X78456887Y-52390994D01*
X78627132Y-52320476D01*
X78807864Y-52284526D01*
X78992136Y-52284526D01*
X79172868Y-52320476D01*
G37*
G36*
X53772868Y-49780476D02*
G01*
X53943113Y-49850994D01*
X54096330Y-49953370D01*
X54226630Y-50083670D01*
X54329006Y-50236887D01*
X54399524Y-50407132D01*
X54435474Y-50587864D01*
X54435474Y-50772136D01*
X54399524Y-50952868D01*
X54329006Y-51123113D01*
X54226630Y-51276330D01*
X54096330Y-51406630D01*
X53943113Y-51509006D01*
X53772868Y-51579524D01*
X53592136Y-51615474D01*
X53407864Y-51615474D01*
X53227132Y-51579524D01*
X53056887Y-51509006D01*
X52903670Y-51406630D01*
X52773370Y-51276330D01*
X52670994Y-51123113D01*
X52600476Y-50952868D01*
X52564526Y-50772136D01*
X52564526Y-50587864D01*
X52600476Y-50407132D01*
X52670994Y-50236887D01*
X52773370Y-50083670D01*
X52903670Y-49953370D01*
X53056887Y-49850994D01*
X53227132Y-49780476D01*
X53407864Y-49744526D01*
X53592136Y-49744526D01*
X53772868Y-49780476D01*
G37*
G36*
X79172868Y-49780476D02*
G01*
X79343113Y-49850994D01*
X79496330Y-49953370D01*
X79626630Y-50083670D01*
X79729006Y-50236887D01*
X79799524Y-50407132D01*
X79835474Y-50587864D01*
X79835474Y-50772136D01*
X79799524Y-50952868D01*
X79729006Y-51123113D01*
X79626630Y-51276330D01*
X79496330Y-51406630D01*
X79343113Y-51509006D01*
X79172868Y-51579524D01*
X78992136Y-51615474D01*
X78807864Y-51615474D01*
X78627132Y-51579524D01*
X78456887Y-51509006D01*
X78303670Y-51406630D01*
X78173370Y-51276330D01*
X78070994Y-51123113D01*
X78000476Y-50952868D01*
X77964526Y-50772136D01*
X77964526Y-50587864D01*
X78000476Y-50407132D01*
X78070994Y-50236887D01*
X78173370Y-50083670D01*
X78303670Y-49953370D01*
X78456887Y-49850994D01*
X78627132Y-49780476D01*
X78807864Y-49744526D01*
X78992136Y-49744526D01*
X79172868Y-49780476D01*
G37*
G36*
X53772868Y-47240476D02*
G01*
X53943113Y-47310994D01*
X54096330Y-47413370D01*
X54226630Y-47543670D01*
X54329006Y-47696887D01*
X54399524Y-47867132D01*
X54435474Y-48047864D01*
X54435474Y-48232136D01*
X54399524Y-48412868D01*
X54329006Y-48583113D01*
X54226630Y-48736330D01*
X54096330Y-48866630D01*
X53943113Y-48969006D01*
X53772868Y-49039524D01*
X53592136Y-49075474D01*
X53407864Y-49075474D01*
X53227132Y-49039524D01*
X53056887Y-48969006D01*
X52903670Y-48866630D01*
X52773370Y-48736330D01*
X52670994Y-48583113D01*
X52600476Y-48412868D01*
X52564526Y-48232136D01*
X52564526Y-48047864D01*
X52600476Y-47867132D01*
X52670994Y-47696887D01*
X52773370Y-47543670D01*
X52903670Y-47413370D01*
X53056887Y-47310994D01*
X53227132Y-47240476D01*
X53407864Y-47204526D01*
X53592136Y-47204526D01*
X53772868Y-47240476D01*
G37*
G36*
X79172868Y-47240476D02*
G01*
X79343113Y-47310994D01*
X79496330Y-47413370D01*
X79626630Y-47543670D01*
X79729006Y-47696887D01*
X79799524Y-47867132D01*
X79835474Y-48047864D01*
X79835474Y-48232136D01*
X79799524Y-48412868D01*
X79729006Y-48583113D01*
X79626630Y-48736330D01*
X79496330Y-48866630D01*
X79343113Y-48969006D01*
X79172868Y-49039524D01*
X78992136Y-49075474D01*
X78807864Y-49075474D01*
X78627132Y-49039524D01*
X78456887Y-48969006D01*
X78303670Y-48866630D01*
X78173370Y-48736330D01*
X78070994Y-48583113D01*
X78000476Y-48412868D01*
X77964526Y-48232136D01*
X77964526Y-48047864D01*
X78000476Y-47867132D01*
X78070994Y-47696887D01*
X78173370Y-47543670D01*
X78303670Y-47413370D01*
X78456887Y-47310994D01*
X78627132Y-47240476D01*
X78807864Y-47204526D01*
X78992136Y-47204526D01*
X79172868Y-47240476D01*
G37*
G36*
X88116229Y-47072179D02*
G01*
X88168137Y-47106863D01*
X88202821Y-47158771D01*
X88215000Y-47220000D01*
X88215000Y-48780000D01*
X88202821Y-48841229D01*
X88168137Y-48893137D01*
X88116229Y-48927821D01*
X88055000Y-48940000D01*
X86495000Y-48940000D01*
X86433771Y-48927821D01*
X86381863Y-48893137D01*
X86347179Y-48841229D01*
X86335000Y-48780000D01*
X86335000Y-47220000D01*
X86347179Y-47158771D01*
X86381863Y-47106863D01*
X86433771Y-47072179D01*
X86495000Y-47060000D01*
X88055000Y-47060000D01*
X88116229Y-47072179D01*
G37*
G36*
X85007868Y-47100476D02*
G01*
X85178113Y-47170994D01*
X85331330Y-47273370D01*
X85461630Y-47403670D01*
X85564006Y-47556887D01*
X85634524Y-47727132D01*
X85670474Y-47907864D01*
X85670474Y-48092136D01*
X85634524Y-48272868D01*
X85564006Y-48443113D01*
X85461630Y-48596330D01*
X85331330Y-48726630D01*
X85178113Y-48829006D01*
X85007868Y-48899524D01*
X84827136Y-48935474D01*
X84642864Y-48935474D01*
X84462132Y-48899524D01*
X84291887Y-48829006D01*
X84138670Y-48726630D01*
X84008370Y-48596330D01*
X83905994Y-48443113D01*
X83835476Y-48272868D01*
X83799526Y-48092136D01*
X83799526Y-47907864D01*
X83835476Y-47727132D01*
X83905994Y-47556887D01*
X84008370Y-47403670D01*
X84138670Y-47273370D01*
X84291887Y-47170994D01*
X84462132Y-47100476D01*
X84642864Y-47064526D01*
X84827136Y-47064526D01*
X85007868Y-47100476D01*
G37*
G36*
X53772868Y-44700476D02*
G01*
X53943113Y-44770994D01*
X54096330Y-44873370D01*
X54226630Y-45003670D01*
X54329006Y-45156887D01*
X54399524Y-45327132D01*
X54435474Y-45507864D01*
X54435474Y-45692136D01*
X54399524Y-45872868D01*
X54329006Y-46043113D01*
X54226630Y-46196330D01*
X54096330Y-46326630D01*
X53943113Y-46429006D01*
X53772868Y-46499524D01*
X53592136Y-46535474D01*
X53407864Y-46535474D01*
X53227132Y-46499524D01*
X53056887Y-46429006D01*
X52903670Y-46326630D01*
X52773370Y-46196330D01*
X52670994Y-46043113D01*
X52600476Y-45872868D01*
X52564526Y-45692136D01*
X52564526Y-45507864D01*
X52600476Y-45327132D01*
X52670994Y-45156887D01*
X52773370Y-45003670D01*
X52903670Y-44873370D01*
X53056887Y-44770994D01*
X53227132Y-44700476D01*
X53407864Y-44664526D01*
X53592136Y-44664526D01*
X53772868Y-44700476D01*
G37*
G36*
X79172868Y-44700476D02*
G01*
X79343113Y-44770994D01*
X79496330Y-44873370D01*
X79626630Y-45003670D01*
X79729006Y-45156887D01*
X79799524Y-45327132D01*
X79835474Y-45507864D01*
X79835474Y-45692136D01*
X79799524Y-45872868D01*
X79729006Y-46043113D01*
X79626630Y-46196330D01*
X79496330Y-46326630D01*
X79343113Y-46429006D01*
X79172868Y-46499524D01*
X78992136Y-46535474D01*
X78807864Y-46535474D01*
X78627132Y-46499524D01*
X78456887Y-46429006D01*
X78303670Y-46326630D01*
X78173370Y-46196330D01*
X78070994Y-46043113D01*
X78000476Y-45872868D01*
X77964526Y-45692136D01*
X77964526Y-45507864D01*
X78000476Y-45327132D01*
X78070994Y-45156887D01*
X78173370Y-45003670D01*
X78303670Y-44873370D01*
X78456887Y-44770994D01*
X78627132Y-44700476D01*
X78807864Y-44664526D01*
X78992136Y-44664526D01*
X79172868Y-44700476D01*
G37*
G36*
X94300830Y-42710340D02*
G01*
X94518718Y-42781136D01*
X94722848Y-42885145D01*
X94908194Y-43019807D01*
X95070193Y-43181806D01*
X95204855Y-43367152D01*
X95308864Y-43571282D01*
X95379660Y-43789170D01*
X95415499Y-44015450D01*
X95415499Y-44244550D01*
X95379660Y-44470830D01*
X95308864Y-44688718D01*
X95204855Y-44892848D01*
X95070193Y-45078194D01*
X94908194Y-45240193D01*
X94722848Y-45374855D01*
X94518718Y-45478864D01*
X94300830Y-45549660D01*
X94074550Y-45585499D01*
X93845450Y-45585499D01*
X93619170Y-45549660D01*
X93401282Y-45478864D01*
X93197152Y-45374855D01*
X93011806Y-45240193D01*
X92849807Y-45078194D01*
X92715145Y-44892848D01*
X92611136Y-44688718D01*
X92540340Y-44470830D01*
X92504501Y-44244550D01*
X92504501Y-44015450D01*
X92540340Y-43789170D01*
X92611136Y-43571282D01*
X92715145Y-43367152D01*
X92849807Y-43181806D01*
X93011806Y-43019807D01*
X93197152Y-42885145D01*
X93401282Y-42781136D01*
X93619170Y-42710340D01*
X93845450Y-42674501D01*
X94074550Y-42674501D01*
X94300830Y-42710340D01*
G37*
G36*
X114380830Y-42710340D02*
G01*
X114598718Y-42781136D01*
X114802848Y-42885145D01*
X114988194Y-43019807D01*
X115150193Y-43181806D01*
X115284855Y-43367152D01*
X115388864Y-43571282D01*
X115459660Y-43789170D01*
X115495499Y-44015450D01*
X115495499Y-44244550D01*
X115459660Y-44470830D01*
X115388864Y-44688718D01*
X115284855Y-44892848D01*
X115150193Y-45078194D01*
X114988194Y-45240193D01*
X114802848Y-45374855D01*
X114598718Y-45478864D01*
X114380830Y-45549660D01*
X114154550Y-45585499D01*
X113925450Y-45585499D01*
X113699170Y-45549660D01*
X113481282Y-45478864D01*
X113277152Y-45374855D01*
X113091806Y-45240193D01*
X112929807Y-45078194D01*
X112795145Y-44892848D01*
X112691136Y-44688718D01*
X112620340Y-44470830D01*
X112584501Y-44244550D01*
X112584501Y-44015450D01*
X112620340Y-43789170D01*
X112691136Y-43571282D01*
X112795145Y-43367152D01*
X112929807Y-43181806D01*
X113091806Y-43019807D01*
X113277152Y-42885145D01*
X113481282Y-42781136D01*
X113699170Y-42710340D01*
X113925450Y-42674501D01*
X114154550Y-42674501D01*
X114380830Y-42710340D01*
G37*
G36*
X121890181Y-41538429D02*
G01*
X122142879Y-41606140D01*
X122384577Y-41706255D01*
X122611140Y-41837061D01*
X122818692Y-41996320D01*
X123003680Y-42181308D01*
X123162939Y-42388860D01*
X123293745Y-42615423D01*
X123393860Y-42857121D01*
X123461571Y-43109819D01*
X123495718Y-43369194D01*
X123495718Y-43630806D01*
X123461571Y-43890181D01*
X123393860Y-44142879D01*
X123293745Y-44384577D01*
X123162939Y-44611140D01*
X123003680Y-44818692D01*
X122818692Y-45003680D01*
X122611140Y-45162939D01*
X122384577Y-45293745D01*
X122142879Y-45393860D01*
X121890181Y-45461571D01*
X121630806Y-45495718D01*
X121369194Y-45495718D01*
X121109819Y-45461571D01*
X120857121Y-45393860D01*
X120615423Y-45293745D01*
X120388860Y-45162939D01*
X120181308Y-45003680D01*
X119996320Y-44818692D01*
X119837061Y-44611140D01*
X119706255Y-44384577D01*
X119606140Y-44142879D01*
X119538429Y-43890181D01*
X119504282Y-43630806D01*
X119504282Y-43369194D01*
X119538429Y-43109819D01*
X119606140Y-42857121D01*
X119706255Y-42615423D01*
X119837061Y-42388860D01*
X119996320Y-42181308D01*
X120181308Y-41996320D01*
X120388860Y-41837061D01*
X120615423Y-41706255D01*
X120857121Y-41606140D01*
X121109819Y-41538429D01*
X121369194Y-41504282D01*
X121630806Y-41504282D01*
X121890181Y-41538429D01*
G37*
G36*
X27531163Y-41784586D02*
G01*
X27758591Y-41845526D01*
X27976120Y-41935629D01*
X28180026Y-42053355D01*
X28366822Y-42196688D01*
X28533312Y-42363178D01*
X28676645Y-42549974D01*
X28794371Y-42753880D01*
X28884474Y-42971409D01*
X28945414Y-43198837D01*
X28976146Y-43432274D01*
X28976146Y-43667726D01*
X28945414Y-43901163D01*
X28884474Y-44128591D01*
X28794371Y-44346120D01*
X28676645Y-44550026D01*
X28533312Y-44736822D01*
X28366822Y-44903312D01*
X28180026Y-45046645D01*
X27976120Y-45164371D01*
X27758591Y-45254474D01*
X27531163Y-45315414D01*
X27297726Y-45346146D01*
X27062274Y-45346146D01*
X26828837Y-45315414D01*
X26601409Y-45254474D01*
X26383880Y-45164371D01*
X26179974Y-45046645D01*
X25993178Y-44903312D01*
X25826688Y-44736822D01*
X25683355Y-44550026D01*
X25565629Y-44346120D01*
X25475526Y-44128591D01*
X25414586Y-43901163D01*
X25383854Y-43667726D01*
X25383854Y-43432274D01*
X25414586Y-43198837D01*
X25475526Y-42971409D01*
X25565629Y-42753880D01*
X25683355Y-42549974D01*
X25826688Y-42363178D01*
X25993178Y-42196688D01*
X26179974Y-42053355D01*
X26383880Y-41935629D01*
X26601409Y-41845526D01*
X26828837Y-41784586D01*
X27062274Y-41753854D01*
X27297726Y-41753854D01*
X27531163Y-41784586D01*
G37*
G36*
X47851163Y-41784586D02*
G01*
X48078591Y-41845526D01*
X48296120Y-41935629D01*
X48500026Y-42053355D01*
X48686822Y-42196688D01*
X48853312Y-42363178D01*
X48996645Y-42549974D01*
X49114371Y-42753880D01*
X49204474Y-42971409D01*
X49265414Y-43198837D01*
X49296146Y-43432274D01*
X49296146Y-43667726D01*
X49265414Y-43901163D01*
X49204474Y-44128591D01*
X49114371Y-44346120D01*
X48996645Y-44550026D01*
X48853312Y-44736822D01*
X48686822Y-44903312D01*
X48500026Y-45046645D01*
X48296120Y-45164371D01*
X48078591Y-45254474D01*
X47851163Y-45315414D01*
X47617726Y-45346146D01*
X47382274Y-45346146D01*
X47148837Y-45315414D01*
X46921409Y-45254474D01*
X46703880Y-45164371D01*
X46499974Y-45046645D01*
X46313178Y-44903312D01*
X46146688Y-44736822D01*
X46003355Y-44550026D01*
X45885629Y-44346120D01*
X45795526Y-44128591D01*
X45734586Y-43901163D01*
X45703854Y-43667726D01*
X45703854Y-43432274D01*
X45734586Y-43198837D01*
X45795526Y-42971409D01*
X45885629Y-42753880D01*
X46003355Y-42549974D01*
X46146688Y-42363178D01*
X46313178Y-42196688D01*
X46499974Y-42053355D01*
X46703880Y-41935629D01*
X46921409Y-41845526D01*
X47148837Y-41784586D01*
X47382274Y-41753854D01*
X47617726Y-41753854D01*
X47851163Y-41784586D01*
G37*
%LPD*%
M02*
